<?xml version="1.0" encoding="utf-8"?>
<!-- Generator: Adobe Illustrator 18.0.0, SVG Export Plug-In . SVG Version: 6.00 Build 0)  -->
<!DOCTYPE svg PUBLIC "-//W3C//DTD SVG 1.1//EN" "http://www.w3.org/Graphics/SVG/1.1/DTD/svg11.dtd">
<svg version="1.1" id="design-freepik" xmlns="http://www.w3.org/2000/svg" xmlns:xlink="http://www.w3.org/1999/xlink" x="0px"
	 y="0px" viewBox="0 0 700 700" enable-background="new 0 0 700 700" xml:space="preserve">
<path fill="#FFFFFF" stroke="#000000" stroke-width="0.7658" stroke-miterlimit="10" d="M350.9,94.2c-7.3,0-14.7,0.9-21.4,2.8
	c-25.1,7.2-37,35.7-23.3,58.2c0.2,0.3,0.3,0.6,0.3,0.9c4.3,1.7,8.6,3.4,12.7,5.4c-3.5-7.6-4.4-16.3-2.3-24.5
	c4.1-15.8,18.8-25.4,33.9-25.6c15.1,0.1,29.8,9.7,33.9,25.6c2.1,8.3,1.2,17-2.3,24.5c4.2-2,8.4-3.7,12.7-5.4c0-0.3,0.1-0.6,0.3-0.9
	c13.7-22.6,1.8-51.1-23.3-58.2C365.6,95.1,358.2,94.2,350.9,94.2z"/>
<path fill="#FFFFFF" stroke="#000000" stroke-width="0.7658" stroke-miterlimit="10" d="M531.7,169.1c-5.2-5.2-11-9.8-17.1-13.2
	c-22.8-12.7-51.4-1-57.6,24.7c-0.1,0.4-0.2,0.6-0.4,0.9c1.9,4.2,3.7,8.5,5.2,12.8c2.9-7.8,8.4-14.7,15.7-19
	c14.1-8.3,31.3-4.7,42.1,5.9c10.6,10.8,14.2,28,5.9,42.1c-4.3,7.4-11.1,12.9-19,15.7c4.3,1.5,8.6,3.3,12.8,5.2
	c0.2-0.2,0.5-0.3,0.9-0.4c25.7-6.2,37.4-34.8,24.7-57.6C541.5,180.1,536.9,174.3,531.7,169.1z"/>
<path fill="#FFFFFF" stroke="#000000" stroke-width="0.7658" stroke-miterlimit="10" d="M606.6,349.9c0-7.3-0.9-14.7-2.8-21.4
	c-7.2-25.1-35.7-37-58.2-23.3c-0.3,0.2-0.6,0.3-0.9,0.3c-1.7,4.3-3.4,8.6-5.4,12.7c7.6-3.5,16.3-4.4,24.5-2.3
	c15.8,4.1,25.4,18.8,25.6,33.9c-0.1,15.1-9.7,29.8-25.6,33.9c-8.3,2.1-17,1.2-24.5-2.3c2,4.2,3.7,8.4,5.4,12.7
	c0.3,0,0.6,0.1,0.9,0.3c22.6,13.7,51.1,1.8,58.2-23.3C605.7,364.6,606.6,357.2,606.6,349.9z"/>
<path fill="#FFFFFF" stroke="#000000" stroke-width="0.7658" stroke-miterlimit="10" d="M531.7,530.7c5.2-5.2,9.8-11,13.2-17.1
	c12.7-22.8,1-51.4-24.7-57.6c-0.4-0.1-0.6-0.2-0.9-0.4c-4.2,1.9-8.5,3.7-12.8,5.2c7.8,2.9,14.7,8.4,19,15.7
	c8.3,14.1,4.7,31.3-5.9,42.1c-10.8,10.6-28,14.2-42.1,5.9c-7.4-4.3-12.9-11.1-15.7-19c-1.5,4.3-3.3,8.6-5.2,12.8
	c0.2,0.2,0.3,0.5,0.4,0.9c6.2,25.7,34.8,37.4,57.6,24.7C520.7,540.5,526.5,535.9,531.7,530.7z"/>
<path fill="#FFFFFF" stroke="#000000" stroke-width="0.7658" stroke-miterlimit="10" d="M350.9,605.6c7.3,0,14.7-0.9,21.4-2.8
	c25.1-7.2,37-35.7,23.3-58.2c-0.2-0.3-0.3-0.6-0.3-0.9c-4.3-1.7-8.6-3.4-12.7-5.4c3.5,7.6,4.4,16.3,2.3,24.5
	c-4.1,15.8-18.8,25.4-33.9,25.6c-15.1-0.1-29.8-9.7-33.9-25.6c-2.1-8.3-1.2-17,2.3-24.5c-4.2,2-8.4,3.7-12.7,5.4
	c0,0.3-0.1,0.6-0.3,0.9c-13.7,22.6-1.8,51.1,23.3,58.2C336.2,604.7,343.6,605.6,350.9,605.6z"/>
<path fill="#FFFFFF" stroke="#000000" stroke-width="0.7658" stroke-miterlimit="10" d="M170.1,530.7c5.2,5.2,11,9.8,17.1,13.2
	c22.8,12.7,51.4,1,57.6-24.7c0.1-0.4,0.2-0.6,0.4-0.9c-1.9-4.2-3.7-8.5-5.2-12.8c-2.9,7.8-8.4,14.7-15.7,19
	c-14.1,8.3-31.3,4.7-42.1-5.9c-10.6-10.8-14.2-28-5.9-42.1c4.3-7.4,11.1-12.9,19-15.7c-4.3-1.5-8.6-3.3-12.8-5.2
	c-0.2,0.2-0.5,0.3-0.9,0.4c-25.7,6.2-37.4,34.8-24.7,57.6C160.3,519.7,164.9,525.5,170.1,530.7z"/>
<path fill="#FFFFFF" stroke="#000000" stroke-width="0.7658" stroke-miterlimit="10" d="M95.2,349.9c0,7.3,0.9,14.7,2.8,21.4
	c7.2,25.1,35.7,37,58.2,23.3c0.3-0.2,0.6-0.3,0.9-0.3c1.7-4.3,3.4-8.6,5.4-12.7c-7.6,3.5-16.3,4.4-24.5,2.3
	c-15.8-4.1-25.4-18.8-25.6-33.9c0.1-15.1,9.7-29.8,25.6-33.9c8.3-2.1,17-1.2,24.5,2.3c-2-4.2-3.7-8.4-5.4-12.7
	c-0.3,0-0.6-0.1-0.9-0.3c-22.6-13.7-51.1-1.8-58.2,23.3C96.1,335.2,95.2,342.6,95.2,349.9z"/>
<path fill="#FFFFFF" stroke="#000000" stroke-width="0.7658" stroke-miterlimit="10" d="M170.1,169.1c-5.2,5.2-9.8,11-13.2,17.1
	c-12.7,22.8-1,51.4,24.7,57.6c0.4,0.1,0.6,0.2,0.9,0.4c4.2-1.9,8.5-3.7,12.8-5.2c-7.8-2.9-14.7-8.4-19-15.7
	c-8.3-14.1-4.7-31.3,5.9-42.1c10.8-10.6,28-14.2,42.1-5.9c7.4,4.3,12.9,11.1,15.7,19c1.5-4.3,3.3-8.6,5.2-12.8
	c-0.2-0.2-0.3-0.5-0.4-0.9c-6.2-25.7-34.8-37.4-57.6-24.7C181.1,159.3,175.3,163.9,170.1,169.1z"/>
<path fill="#FFFFFF" stroke="#000000" stroke-width="0.7658" stroke-miterlimit="10" d="M350.9,2c-4.8,7.6-10.1,14.8-16,21.6
	c-6.1,7.1-12.8,13.8-18.3,21.4c-5.9,8.2-9.8,17.3-10.4,27.4c-0.5,9.8,1.7,19.5,5.4,28.4c5.4-4.3,11.8-7.3,18.6-9
	c-2.1-8.2-3.8-17.3,0.8-24.9c1.9-3.2,4.7-5.8,8-7.5c0.4-0.2,0.8-0.4,1.2-0.5c-7.6-13.8,6.5-28.5,8.4-42.2c0.2-1.1,1.2-1.7,2.3-1.7
	c1.1,0,2.2,0.6,2.3,1.7c1.9,13.7,16,28.3,8.4,42.2c0.4,0.2,0.8,0.3,1.2,0.5c3.3,1.7,6.1,4.3,8,7.5c4.6,7.7,2.9,16.7,0.8,24.9
	c6.9,1.7,13.2,4.7,18.6,9c3.8-9,5.9-18.7,5.4-28.4C395,62.2,391,53.2,385.2,45c-5.5-7.6-12.2-14.3-18.3-21.4
	C361,16.8,355.7,9.5,350.9,2z"/>
<path fill="#FFFFFF" stroke="#000000" stroke-width="0.7658" stroke-miterlimit="10" d="M596.9,103.9c-8.8,2-17.6,3.3-26.6,4
	c-9.4,0.7-18.8,0.7-28.1,2.2c-9.9,1.6-19.2,5.2-26.7,12c-7.3,6.5-12.6,14.9-16.3,23.9c6.9,0.8,13.5,3.1,19.6,6.8
	c4.3-7.3,9.5-14.9,18.2-17.1c3.6-0.9,7.5-0.8,10.9,0.4c0.4,0.1,0.8,0.3,1.2,0.4c4.4-15.2,24.7-15.5,35.7-23.9
	c0.9-0.7,2.1-0.3,2.9,0.4c0.8,0.8,1.1,1.9,0.4,2.9c-8.4,11-8.7,31.3-23.9,35.7c0.2,0.4,0.3,0.8,0.4,1.2c1.1,3.5,1.3,7.4,0.4,10.9
	c-2.2,8.6-9.8,13.9-17.1,18.2c3.7,6,6,12.7,6.8,19.6c9-3.7,17.4-9,23.9-16.3c6.8-7.6,10.4-16.8,12-26.7c1.5-9.3,1.5-18.7,2.2-28.1
	C593.6,121.5,595,112.6,596.9,103.9z"/>
<path fill="#FFFFFF" stroke="#000000" stroke-width="0.7658" stroke-miterlimit="10" d="M698.8,349.9c-7.6-4.8-14.8-10.1-21.6-16
	c-7.1-6.1-13.8-12.8-21.4-18.3c-8.2-5.9-17.3-9.8-27.4-10.4c-9.8-0.5-19.5,1.7-28.4,5.4c4.3,5.4,7.3,11.8,9,18.6
	c8.2-2.1,17.3-3.8,24.9,0.8c3.2,1.9,5.8,4.7,7.5,8c0.2,0.4,0.4,0.8,0.5,1.2c13.8-7.6,28.5,6.5,42.2,8.4c1.1,0.2,1.7,1.2,1.7,2.3
	c0,1.1-0.6,2.2-1.7,2.3c-13.7,1.9-28.3,16-42.2,8.4c-0.2,0.4-0.3,0.8-0.5,1.2c-1.7,3.3-4.3,6.1-7.5,8c-7.7,4.6-16.7,2.9-24.9,0.8
	c-1.7,6.9-4.7,13.2-9,18.6c9,3.8,18.7,5.9,28.4,5.4c10.1-0.5,19.2-4.5,27.4-10.4c7.6-5.5,14.3-12.2,21.4-18.3
	C684,360,691.2,354.7,698.8,349.9z"/>
<path fill="#FFFFFF" stroke="#000000" stroke-width="0.7658" stroke-miterlimit="10" d="M596.9,595.9c-2-8.8-3.3-17.6-4-26.6
	c-0.7-9.4-0.7-18.8-2.2-28.1c-1.6-9.9-5.2-19.2-12-26.7c-6.5-7.3-14.9-12.6-23.9-16.3c-0.8,6.9-3.1,13.5-6.8,19.6
	c7.3,4.3,14.9,9.5,17.1,18.2c0.9,3.6,0.8,7.5-0.4,10.9c-0.1,0.4-0.3,0.8-0.4,1.2c15.2,4.4,15.5,24.7,23.9,35.7
	c0.7,0.9,0.3,2.1-0.4,2.9c-0.8,0.8-1.9,1.1-2.9,0.4c-11-8.4-31.3-8.7-35.7-23.9c-0.4,0.2-0.8,0.3-1.2,0.4c-3.5,1.1-7.4,1.3-10.9,0.4
	c-8.6-2.2-13.9-9.8-18.2-17.1c-6,3.7-12.7,6-19.6,6.8c3.7,9,9,17.4,16.3,23.9c7.6,6.8,16.8,10.4,26.7,12c9.3,1.5,18.7,1.5,28.1,2.2
	C579.3,592.6,588.2,594,596.9,595.9z"/>
<path fill="#FFFFFF" stroke="#000000" stroke-width="0.7658" stroke-miterlimit="10" d="M350.9,697.8c4.8-7.6,10.1-14.8,16-21.6
	c6.1-7.1,12.8-13.8,18.3-21.4c5.9-8.2,9.8-17.3,10.4-27.4c0.5-9.8-1.7-19.5-5.4-28.4c-5.4,4.3-11.8,7.3-18.6,9
	c2.1,8.2,3.8,17.3-0.8,24.9c-1.9,3.2-4.7,5.8-8,7.5c-0.4,0.2-0.8,0.4-1.2,0.5c7.6,13.8-6.5,28.5-8.4,42.2c-0.2,1.1-1.2,1.7-2.3,1.7
	c-1.1,0-2.2-0.6-2.3-1.7c-1.9-13.7-16-28.3-8.4-42.2c-0.4-0.2-0.8-0.3-1.2-0.5c-3.3-1.7-6.1-4.3-8-7.5c-4.6-7.7-2.9-16.7-0.8-24.9
	c-6.9-1.7-13.2-4.7-18.6-9c-3.8,9-5.9,18.7-5.4,28.4c0.5,10.1,4.5,19.2,10.4,27.4c5.5,7.6,12.2,14.3,18.3,21.4
	C340.8,683,346.1,690.2,350.9,697.8z"/>
<path fill="#FFFFFF" stroke="#000000" stroke-width="0.7658" stroke-miterlimit="10" d="M104.9,595.9c8.8-2,17.6-3.3,26.6-4
	c9.4-0.7,18.8-0.7,28.1-2.2c9.9-1.6,19.2-5.2,26.7-12c7.3-6.5,12.6-14.9,16.3-23.9c-6.9-0.8-13.5-3.1-19.6-6.8
	c-4.3,7.3-9.5,14.9-18.2,17.1c-3.6,0.9-7.5,0.8-10.9-0.4c-0.4-0.1-0.8-0.3-1.2-0.4c-4.4,15.2-24.7,15.5-35.7,23.9
	c-0.9,0.7-2.1,0.3-2.9-0.4c-0.8-0.8-1.1-1.9-0.4-2.9c8.4-11,8.7-31.3,23.9-35.7c-0.2-0.4-0.3-0.8-0.4-1.2c-1.1-3.5-1.3-7.4-0.4-10.9
	c2.2-8.6,9.8-13.9,17.1-18.2c-3.7-6-6-12.7-6.8-19.6c-9,3.7-17.4,9-23.9,16.3c-6.8,7.6-10.4,16.8-12,26.7
	c-1.5,9.3-1.5,18.7-2.2,28.1C108.2,578.3,106.8,587.2,104.9,595.9z"/>
<path fill="#FFFFFF" stroke="#000000" stroke-width="0.7658" stroke-miterlimit="10" d="M3,349.9c7.6,4.8,14.8,10.1,21.6,16
	c7.1,6.1,13.8,12.8,21.4,18.3c8.2,5.9,17.3,9.8,27.4,10.4c9.8,0.5,19.5-1.7,28.4-5.4c-4.3-5.4-7.3-11.8-9-18.6
	c-8.2,2.1-17.3,3.8-24.9-0.8c-3.2-1.9-5.8-4.7-7.5-8c-0.2-0.4-0.4-0.8-0.5-1.2c-13.8,7.6-28.5-6.5-42.2-8.4
	c-1.1-0.2-1.7-1.2-1.7-2.3c0-1.1,0.6-2.2,1.7-2.3c13.7-1.9,28.3-16,42.2-8.4c0.2-0.4,0.3-0.8,0.5-1.2c1.7-3.3,4.3-6.1,7.5-8
	c7.7-4.6,16.7-2.9,24.9-0.8c1.7-6.9,4.7-13.2,9-18.6c-9-3.8-18.7-5.9-28.4-5.4c-10.1,0.5-19.2,4.5-27.4,10.4
	c-7.6,5.5-14.3,12.2-21.4,18.3C17.8,339.8,10.5,345.1,3,349.9z"/>
<path fill="#FFFFFF" stroke="#000000" stroke-width="0.7658" stroke-miterlimit="10" d="M104.9,103.9c2,8.8,3.3,17.6,4,26.6
	c0.7,9.4,0.7,18.8,2.2,28.1c1.6,9.9,5.2,19.2,12,26.7c6.5,7.3,14.9,12.6,23.9,16.3c0.8-6.9,3.1-13.5,6.8-19.6
	c-7.3-4.3-14.9-9.5-17.1-18.2c-0.9-3.6-0.8-7.5,0.4-10.9c0.1-0.4,0.3-0.8,0.4-1.2c-15.2-4.4-15.5-24.7-23.9-35.7
	c-0.7-0.9-0.3-2.1,0.4-2.9c0.8-0.8,1.9-1.1,2.9-0.4c11,8.4,31.3,8.7,35.7,23.9c0.4-0.2,0.8-0.3,1.2-0.4c3.5-1.1,7.4-1.3,10.9-0.4
	c8.6,2.2,13.9,9.8,18.2,17.1c6-3.7,12.7-6,19.6-6.8c-3.7-9-9-17.4-16.3-23.9c-7.6-6.8-16.8-10.4-26.7-12c-9.3-1.5-18.7-1.5-28.1-2.2
	C122.5,107.2,113.6,105.8,104.9,103.9z"/>
<path fill="#FFFFFF" stroke="#000000" stroke-width="0.7658" stroke-miterlimit="10" d="M350.9,218.4c-6.7,7.4-14.8,12.6-22.6,18.9
	c-4.2,3.4-8.1,7.4-9.6,12.7c-1.5,5.4-0.6,11.1,0.4,16.5c0.4,0.3,0.7,0.7,0.9,1.3c0.4,1.6,0.9,3.2,1.5,4.8c0.3,0.3,0.5,0.6,0.6,1
	c0,0.2,0.1,0.4,0.2,0.6c0.2,0.1,0.4,0.3,0.6,0.4c1.3,1.6,1.8,3.3,1.9,5.3c7.5,6,16.4,10.6,21.9,18.7c2,2.9,3.3,6,4.2,9.3
	c0.9-3.3,2.3-6.4,4.2-9.3c5.5-8.1,14.4-12.7,21.9-18.7c0.1-1.9,0.6-3.7,1.9-5.3c0.2-0.2,0.4-0.3,0.6-0.4c0-0.2,0.1-0.4,0.2-0.6
	c0.1-0.4,0.3-0.7,0.6-1c0.5-1.6,1-3.2,1.5-4.8c0.2-0.6,0.5-1,0.9-1.3c1.1-5.4,2-11.1,0.4-16.5c-1.5-5.3-5.4-9.3-9.6-12.7
	C365.7,231,357.6,225.7,350.9,218.4z M443.9,256.9c-10,0.4-19.4-1.6-29.4-2.6c-5.4-0.6-10.9-0.5-15.7,2.2c-4.9,2.7-8.3,7.4-11.4,12
	c0.1,0.5,0,1-0.3,1.5c-0.8,1.5-1.6,2.9-2.3,4.4c0,0.4-0.1,0.8-0.3,1.2c-0.1,0.2-0.2,0.4-0.3,0.5c0.1,0.2,0.1,0.5,0.1,0.7
	c-0.2,2.1-1.1,3.6-2.4,5.1c1,9.5,4.1,19,2.3,28.7c-0.6,3.4-1.9,6.6-3.6,9.6c3-1.7,6.2-2.9,9.6-3.6c9.6-1.8,19.1,1.2,28.7,2.3
	c1.5-1.3,3-2.2,5.1-2.4c0.2,0,0.5,0,0.7,0.1c0.2-0.1,0.4-0.2,0.5-0.3c0.3-0.2,0.8-0.3,1.2-0.3c1.5-0.7,3-1.5,4.4-2.3
	c0.5-0.3,1.1-0.4,1.5-0.3c4.6-3,9.3-6.5,12-11.4c2.7-4.8,2.8-10.4,2.2-15.7C445.5,276.3,443.5,266.9,443.9,256.9z M482.4,349.9
	c-7.4-6.7-12.6-14.8-18.9-22.6c-3.4-4.2-7.4-8.1-12.7-9.6c-5.4-1.5-11.1-0.6-16.5,0.4c-0.3,0.4-0.7,0.7-1.3,0.9
	c-1.6,0.4-3.2,0.9-4.8,1.5c-0.3,0.3-0.6,0.5-1,0.6c-0.2,0-0.4,0.1-0.6,0.2c-0.1,0.2-0.3,0.4-0.4,0.6c-1.6,1.3-3.3,1.8-5.3,1.9
	c-6,7.5-10.6,16.4-18.7,21.9c-2.9,2-6,3.3-9.3,4.2c3.3,0.9,6.4,2.3,9.3,4.2c8.1,5.5,12.7,14.4,18.7,21.9c1.9,0.1,3.7,0.6,5.3,1.9
	c0.2,0.2,0.3,0.4,0.4,0.6c0.2,0,0.4,0.1,0.6,0.2c0.4,0.1,0.7,0.3,1,0.6c1.6,0.5,3.2,1,4.8,1.5c0.6,0.2,1,0.5,1.3,0.9
	c5.4,1.1,11.1,2,16.5,0.4c5.3-1.5,9.3-5.4,12.7-9.6C469.8,364.7,475.1,356.6,482.4,349.9z M443.9,442.9c-0.4-10,1.6-19.4,2.6-29.4
	c0.6-5.4,0.5-10.9-2.2-15.7c-2.7-4.9-7.4-8.3-12-11.4c-0.5,0.1-1,0-1.5-0.3c-1.5-0.8-2.9-1.6-4.4-2.3c-0.4,0-0.8-0.1-1.2-0.3
	c-0.2-0.1-0.4-0.2-0.5-0.3c-0.2,0.1-0.5,0.1-0.7,0.1c-2.1-0.2-3.6-1.1-5.1-2.4c-9.5,1-19,4.1-28.7,2.3c-3.4-0.6-6.6-1.9-9.6-3.6
	c1.7,3,2.9,6.2,3.6,9.6c1.8,9.6-1.2,19.1-2.3,28.7c1.3,1.5,2.2,3,2.4,5.1c0,0.2,0,0.5-0.1,0.7c0.1,0.2,0.2,0.4,0.3,0.5
	c0.2,0.3,0.3,0.8,0.3,1.2c0.7,1.5,1.5,3,2.3,4.4c0.3,0.5,0.4,1.1,0.3,1.5c3,4.6,6.5,9.3,11.4,12c4.8,2.7,10.4,2.8,15.7,2.2
	C424.5,444.5,433.9,442.5,443.9,442.9z M350.9,481.4c6.7-7.4,14.8-12.6,22.6-18.9c4.2-3.4,8.1-7.4,9.6-12.7
	c1.5-5.4,0.6-11.1-0.4-16.5c-0.4-0.3-0.7-0.7-0.9-1.3c-0.4-1.6-0.9-3.2-1.5-4.8c-0.3-0.3-0.5-0.6-0.6-1c0-0.2-0.1-0.4-0.2-0.6
	c-0.2-0.1-0.4-0.3-0.6-0.4c-1.3-1.6-1.8-3.3-1.9-5.3c-7.5-6-16.4-10.6-21.9-18.7c-2-2.9-3.3-6-4.2-9.3c-0.9,3.3-2.3,6.4-4.2,9.3
	c-5.5,8.1-14.4,12.7-21.9,18.7c-0.1,1.9-0.6,3.7-1.9,5.3c-0.2,0.2-0.4,0.3-0.6,0.4c0,0.2-0.1,0.4-0.2,0.6c-0.1,0.4-0.3,0.7-0.6,1
	c-0.5,1.6-1,3.2-1.5,4.8c-0.2,0.6-0.5,1-0.9,1.3c-1.1,5.4-2,11.1-0.4,16.5c1.5,5.3,5.4,9.3,9.6,12.7
	C336.1,468.8,344.1,474.1,350.9,481.4z M257.9,442.9c10-0.4,19.4,1.6,29.4,2.6c5.4,0.6,10.9,0.5,15.7-2.2c4.9-2.7,8.3-7.4,11.4-12
	c-0.1-0.5,0-1,0.3-1.5c0.8-1.5,1.6-2.9,2.3-4.4c0-0.4,0.1-0.8,0.3-1.2c0.1-0.2,0.2-0.4,0.3-0.5c-0.1-0.2-0.1-0.5-0.1-0.7
	c0.2-2.1,1.1-3.6,2.4-5.1c-1-9.5-4.1-19-2.3-28.7c0.6-3.4,1.9-6.6,3.6-9.6c-3,1.7-6.2,2.9-9.6,3.6c-9.6,1.8-19.1-1.2-28.7-2.3
	c-1.5,1.3-3,2.2-5.1,2.4c-0.2,0-0.5,0-0.7-0.1c-0.2,0.1-0.4,0.2-0.5,0.3c-0.3,0.2-0.8,0.3-1.2,0.3c-1.5,0.7-3,1.5-4.4,2.3
	c-0.5,0.3-1.1,0.4-1.5,0.3c-4.6,3-9.3,6.5-12,11.4c-2.7,4.8-2.8,10.4-2.2,15.7C256.3,423.5,258.3,432.9,257.9,442.9z M219.4,349.9
	c7.4,6.7,12.6,14.8,18.9,22.6c3.4,4.2,7.4,8.1,12.7,9.6c5.4,1.5,11.1,0.6,16.5-0.4c0.3-0.4,0.7-0.7,1.3-0.9c1.6-0.4,3.2-0.9,4.8-1.5
	c0.3-0.3,0.6-0.5,1-0.6c0.2,0,0.4-0.1,0.6-0.2c0.1-0.2,0.3-0.4,0.4-0.6c1.6-1.3,3.3-1.8,5.3-1.9c6-7.5,10.6-16.4,18.7-21.9
	c2.9-2,6-3.3,9.3-4.2c-3.3-0.9-6.4-2.3-9.3-4.2c-8.1-5.5-12.7-14.4-18.7-21.9c-1.9-0.1-3.7-0.6-5.3-1.9c-0.2-0.2-0.3-0.4-0.4-0.6
	c-0.2,0-0.4-0.1-0.6-0.2c-0.4-0.1-0.7-0.3-1-0.6c-1.6-0.5-3.2-1-4.8-1.5c-0.6-0.2-1-0.5-1.3-0.9c-5.4-1.1-11.1-2-16.5-0.4
	c-5.3,1.5-9.3,5.4-12.7,9.6C232,335.1,226.7,343.1,219.4,349.9z M257.9,256.9c0.4,10-1.6,19.4-2.6,29.4c-0.6,5.4-0.5,10.9,2.2,15.7
	c2.7,4.9,7.4,8.3,12,11.4c0.5-0.1,1,0,1.5,0.3c1.5,0.8,2.9,1.6,4.4,2.3c0.4,0,0.8,0.1,1.2,0.3c0.2,0.1,0.4,0.2,0.5,0.3
	c0.2-0.1,0.5-0.1,0.7-0.1c2.1,0.2,3.6,1.1,5.1,2.4c9.5-1,19-4.1,28.7-2.3c3.4,0.6,6.6,1.9,9.6,3.6c-1.7-3-2.9-6.2-3.6-9.6
	c-1.8-9.6,1.2-19.1,2.3-28.7c-1.3-1.5-2.2-3-2.4-5.1c0-0.2,0-0.5,0.1-0.7c-0.1-0.2-0.2-0.4-0.3-0.5c-0.2-0.3-0.3-0.8-0.3-1.2
	c-0.7-1.5-1.5-3-2.3-4.4c-0.3-0.5-0.4-1.1-0.3-1.5c-3-4.6-6.5-9.3-11.4-12c-4.8-2.7-10.4-2.8-15.7-2.2
	C277.3,255.3,267.9,257.3,257.9,256.9z M350.9,279.3c-10,0-18.8-6.6-18.6-17.2c0.1-10,9.1-16.8,18.6-16.6
	c9.5-0.2,18.5,6.6,18.6,16.6C369.7,272.6,360.9,279.3,350.9,279.3z M400.8,299.9c-7.1-7.1-8.6-18-1-25.4c7.2-7,18.3-5.5,24.9,1.4
	c6.9,6.6,8.4,17.8,1.4,24.9C418.8,308.5,407.9,307,400.8,299.9z M421.5,349.9c0-10,6.6-18.8,17.2-18.6c10,0.1,16.8,9.1,16.6,18.6
	c0.2,9.5-6.6,18.5-16.6,18.6C428.2,368.7,421.5,359.9,421.5,349.9z M400.8,399.8c7.1-7.1,18-8.6,25.4-1c7,7.2,5.5,18.3-1.4,24.9
	c-6.6,6.9-17.8,8.4-24.9,1.4C392.3,417.8,393.8,406.9,400.8,399.8z M350.9,420.5c10,0,18.8,6.6,18.6,17.2
	c-0.1,10-9.1,16.8-18.6,16.6c-9.5,0.2-18.5-6.6-18.6-16.6C332.1,427.2,340.9,420.5,350.9,420.5z M300.9,399.8c7.1,7.1,8.6,18,1,25.4
	c-7.2,7-18.3,5.5-24.9-1.4c-6.9-6.6-8.4-17.8-1.4-24.9C283,391.3,293.8,392.8,300.9,399.8z M280.3,349.9c0,10-6.6,18.8-17.2,18.6
	c-10-0.1-16.8-9.1-16.6-18.6c-0.2-9.5,6.6-18.5,16.6-18.6C273.6,331.1,280.3,339.9,280.3,349.9z M300.9,299.9
	c-7.1,7.1-18,8.6-25.4,1c-7-7.2-5.5-18.3,1.4-24.9c6.6-6.9,17.8-8.4,24.9-1.4C309.5,282,308,292.8,300.9,299.9z"/>
<path fill="#FFFFFF" stroke="#000000" stroke-width="0.7658" stroke-miterlimit="10" d="M350.9,146.8c-9.5,0-18.5-8.3-18.3-17.9
	c0-3.1,0.9-6,2.4-8.4c-5.5,3.4-10,8.5-12.4,14.5c-4,10.4-2,22.5,5,31.1c10.3,6.4,19.3,15.6,23.2,26.7c3.9-11.1,12.9-20.3,23.2-26.7
	c7-8.6,9-20.7,5-31.1c-2.3-6-6.8-11.1-12.4-14.5c1.5,2.4,2.4,5.3,2.4,8.4C369.4,138.5,360.4,146.9,350.9,146.8z"/>
<path fill="#FFFFFF" stroke="#000000" stroke-width="0.7658" stroke-miterlimit="10" d="M494.5,206.3c-6.8-6.7-7.2-18.9-0.3-25.6
	c2.2-2.2,4.9-3.6,7.7-4.2c-6.3-1.5-13.1-1.1-19,1.5c-10.2,4.5-17.3,14.5-18.4,25.5c2.8,11.8,2.6,24.7-2.4,35.3
	c10.6-5.1,23.5-5.2,35.3-2.4c11-1.1,21-8.3,25.5-18.4c2.6-5.9,3-12.6,1.5-19c-0.7,2.8-2.1,5.4-4.2,7.7
	C513.4,213.5,501.2,213.1,494.5,206.3z"/>
<path fill="#FFFFFF" stroke="#000000" stroke-width="0.7658" stroke-miterlimit="10" d="M554,349.9c0-9.5,8.3-18.5,17.9-18.3
	c3.1,0,6,0.9,8.4,2.4c-3.4-5.5-8.5-10-14.5-12.4c-10.4-4-22.5-2-31.1,5c-6.4,10.3-15.6,19.3-26.7,23.2c11.1,3.9,20.3,12.9,26.7,23.2
	c8.6,7,20.7,9,31.1,5c6-2.3,11.1-6.8,14.5-12.4c-2.4,1.5-5.3,2.4-8.4,2.4C562.3,368.4,553.9,359.4,554,349.9z"/>
<path fill="#FFFFFF" stroke="#000000" stroke-width="0.7658" stroke-miterlimit="10" d="M494.5,493.5c6.7-6.8,18.9-7.2,25.6-0.3
	c2.2,2.2,3.6,4.9,4.2,7.7c1.5-6.3,1.1-13.1-1.5-19c-4.5-10.2-14.5-17.3-25.5-18.4c-11.8,2.8-24.7,2.6-35.3-2.4
	c5.1,10.6,5.2,23.5,2.4,35.3c1.1,11,8.3,21,18.4,25.5c5.9,2.6,12.6,3,19,1.5c-2.8-0.7-5.4-2.1-7.7-4.2
	C487.3,512.4,487.7,500.2,494.5,493.5z"/>
<path fill="#FFFFFF" stroke="#000000" stroke-width="0.7658" stroke-miterlimit="10" d="M350.9,553c9.5,0,18.5,8.3,18.3,17.9
	c0,3.1-0.9,6-2.4,8.4c5.5-3.4,10-8.5,12.4-14.5c4-10.4,2-22.5-5-31.1c-10.3-6.4-19.3-15.6-23.2-26.7c-3.9,11.1-12.9,20.3-23.2,26.7
	c-7,8.6-9,20.7-5,31.1c2.3,6,6.8,11.1,12.4,14.5c-1.5-2.4-2.4-5.3-2.4-8.4C332.4,561.3,341.4,552.9,350.9,553z"/>
<path fill="#FFFFFF" stroke="#000000" stroke-width="0.7658" stroke-miterlimit="10" d="M207.3,493.5c6.8,6.7,7.2,18.9,0.3,25.6
	c-2.2,2.2-4.9,3.6-7.7,4.2c6.3,1.5,13.1,1.1,19-1.5c10.2-4.5,17.3-14.5,18.4-25.5c-2.8-11.8-2.6-24.7,2.4-35.3
	c-10.6,5.1-23.5,5.2-35.3,2.4c-11,1.1-21,8.3-25.5,18.4c-2.6,5.9-3,12.6-1.5,19c0.7-2.8,2.1-5.4,4.2-7.7
	C188.4,486.3,200.6,486.7,207.3,493.5z"/>
<path fill="#FFFFFF" stroke="#000000" stroke-width="0.7658" stroke-miterlimit="10" d="M147.8,349.9c0,9.5-8.3,18.5-17.9,18.3
	c-3.1,0-6-0.9-8.4-2.4c3.4,5.5,8.5,10,14.5,12.4c10.4,4,22.5,2,31.1-5c6.4-10.3,15.6-19.3,26.7-23.2c-11.1-3.9-20.3-12.9-26.7-23.2
	c-8.6-7-20.7-9-31.1-5c-6,2.3-11.1,6.8-14.5,12.4c2.4-1.5,5.3-2.4,8.4-2.4C139.5,331.4,147.9,340.4,147.8,349.9z"/>
<path fill="#FFFFFF" stroke="#000000" stroke-width="0.7658" stroke-miterlimit="10" d="M207.3,206.3c-6.7,6.8-18.9,7.2-25.6,0.3
	c-2.2-2.2-3.6-4.9-4.2-7.7c-1.5,6.3-1.1,13.1,1.5,19c4.5,10.2,14.5,17.3,25.5,18.4c11.8-2.8,24.7-2.6,35.3,2.4
	c-5.1-10.6-5.2-23.5-2.4-35.3c-1.1-11-8.3-21-18.4-25.5c-5.9-2.6-12.6-3-19-1.5c2.8,0.7,5.4,2.1,7.7,4.2
	C214.5,187.4,214.1,199.6,207.3,206.3z"/>
<path fill="#FFFFFF" stroke="#000000" stroke-width="0.7658" stroke-miterlimit="10" d="M350.9,62.2c-3.6,0-6.6-0.2-9.9,1.5
	c-2.7,1.5-4.9,3.8-6.3,6.5c-3.2,6.4-1.4,13.9,0.3,20.5c5.1-0.9,10.5-1.4,15.9-1.5c5.4,0,10.8,0.5,15.9,1.5
	c1.8-6.6,3.6-14.1,0.3-20.5c-1.4-2.7-3.6-5-6.3-6.5C357.5,62,354.5,62.2,350.9,62.2z"/>
<path fill="#FFFFFF" stroke="#000000" stroke-width="0.7658" stroke-miterlimit="10" d="M554.3,146.5c-2.6-2.6-4.5-4.8-8.1-5.9
	c-2.9-0.9-6.1-0.8-9.1,0.1c-6.8,2.2-10.8,8.8-14.3,14.7c4.3,3,8.4,6.4,12.3,10.2c3.8,3.8,7.2,8,10.2,12.3
	c5.9-3.4,12.5-7.5,14.7-14.3c1-2.9,1-6.1,0.1-9.1C559.1,151,556.9,149.1,554.3,146.5z"/>
<path fill="#FFFFFF" stroke="#000000" stroke-width="0.7658" stroke-miterlimit="10" d="M638.5,349.9c0-3.6,0.2-6.6-1.5-9.9
	c-1.5-2.7-3.8-4.9-6.5-6.3c-6.4-3.2-13.9-1.4-20.5,0.3c0.9,5.1,1.4,10.5,1.5,15.9c0,5.4-0.5,10.8-1.5,15.9
	c6.6,1.8,14.1,3.6,20.5,0.3c2.7-1.4,5-3.6,6.5-6.3C638.8,356.5,638.5,353.5,638.5,349.9z"/>
<path fill="#FFFFFF" stroke="#000000" stroke-width="0.7658" stroke-miterlimit="10" d="M554.3,553.3c2.6-2.6,4.8-4.5,5.9-8.1
	c0.9-2.9,0.8-6.1-0.1-9.1c-2.2-6.8-8.8-10.8-14.7-14.3c-3,4.3-6.4,8.4-10.2,12.3c-3.8,3.8-8,7.2-12.3,10.2
	c3.4,5.9,7.5,12.5,14.3,14.7c2.9,1,6.1,1,9.1,0.1C549.8,558.1,551.7,555.9,554.3,553.3z"/>
<path fill="#FFFFFF" stroke="#000000" stroke-width="0.7658" stroke-miterlimit="10" d="M350.9,637.5c3.6,0,6.6,0.2,9.9-1.5
	c2.7-1.5,4.9-3.8,6.3-6.5c3.2-6.4,1.4-13.9-0.3-20.5c-5.1,0.9-10.5,1.4-15.9,1.5c-5.4,0-10.8-0.5-15.9-1.5
	c-1.8,6.6-3.6,14.1-0.3,20.5c1.4,2.7,3.6,5,6.3,6.5C344.3,637.8,347.3,637.5,350.9,637.5z"/>
<path fill="#FFFFFF" stroke="#000000" stroke-width="0.7658" stroke-miterlimit="10" d="M147.5,553.3c2.6,2.6,4.5,4.8,8.1,5.9
	c2.9,0.9,6.1,0.8,9.1-0.1c6.8-2.2,10.8-8.8,14.3-14.7c-4.3-3-8.4-6.4-12.3-10.2c-3.8-3.8-7.2-8-10.2-12.3
	c-5.9,3.4-12.5,7.5-14.7,14.3c-1,2.9-1,6.1-0.1,9.1C142.6,548.8,144.9,550.7,147.5,553.3z"/>
<path fill="#FFFFFF" stroke="#000000" stroke-width="0.7658" stroke-miterlimit="10" d="M63.2,349.9c0,3.6-0.2,6.6,1.5,9.9
	c1.5,2.7,3.8,4.9,6.5,6.3c6.4,3.2,13.9,1.4,20.5-0.3c-0.9-5.1-1.4-10.5-1.5-15.9c0-5.4,0.5-10.8,1.5-15.9
	c-6.6-1.8-14.1-3.6-20.5-0.3c-2.7,1.4-5,3.6-6.5,6.3C63,343.3,63.2,346.3,63.2,349.9z"/>
<path fill="#FFFFFF" stroke="#000000" stroke-width="0.7658" stroke-miterlimit="10" d="M147.5,146.5c-2.6,2.6-4.8,4.5-5.9,8.1
	c-0.9,2.9-0.8,6.1,0.1,9.1c2.2,6.8,8.8,10.8,14.7,14.3c3-4.3,6.4-8.4,10.2-12.3c3.8-3.8,8-7.2,12.3-10.2
	c-3.4-5.9-7.5-12.5-14.3-14.7c-2.9-1-6.1-1-9.1-0.1C152,141.6,150.1,143.9,147.5,146.5z"/>
<path fill="#FFFFFF" stroke="#000000" stroke-width="0.7658" stroke-miterlimit="10" d="M350.9,333.9c-2.2,0-4.5,0.4-6.2,1
	c-1.7,0.8-3.5,2.2-5.1,3.7c-1.5,1.6-2.9,3.4-3.7,5.1c-0.6,1.8-0.9,4-1,6.2c0,2.2,0.4,4.5,1,6.2c0.8,1.7,2.2,3.5,3.7,5.1
	c1.6,1.5,3.4,2.9,5.1,3.7c1.8,0.6,4,0.9,6.2,1c2.2,0,4.5-0.4,6.2-1c1.7-0.8,3.5-2.2,5.1-3.7c1.5-1.6,2.9-3.4,3.7-5.1
	c0.6-1.8,0.9-4,1-6.2c0-2.2-0.4-4.5-1-6.2c-0.8-1.7-2.2-3.5-3.7-5.1c-1.6-1.5-3.4-2.9-5.1-3.7C355.4,334.3,353.1,333.9,350.9,333.9z
	 M348.7,344.5c0.1,0,0.2-0.1,0.3-0.1c0.7-0.3,1.3-0.4,2-0.4c0.6,0,1.3,0.1,2,0.4c0.1,0,0.2,0.1,0.3,0.1c0.1,0,0.2,0.1,0.3,0.1
	c0.6,0.3,1.2,0.7,1.7,1.1c0.5,0.5,0.8,1,1.1,1.7c0,0.1,0.1,0.2,0.1,0.3c0,0.1,0.1,0.2,0.1,0.3c0.3,0.7,0.4,1.3,0.4,2
	c0,0.6-0.1,1.3-0.4,2c0,0.1-0.1,0.2-0.1,0.3c0,0.1-0.1,0.2-0.1,0.3c-0.3,0.6-0.7,1.2-1.1,1.7c-0.5,0.5-1,0.8-1.7,1.1
	c-0.1,0-0.2,0.1-0.3,0.1c-0.1,0-0.2,0.1-0.3,0.1c-0.7,0.3-1.3,0.4-2,0.4c-0.6,0-1.3-0.1-2-0.4c-0.1,0-0.2-0.1-0.3-0.1
	c-0.1,0-0.2-0.1-0.3-0.1c-0.6-0.3-1.2-0.7-1.7-1.1c-0.5-0.5-0.8-1-1.1-1.7c0-0.1-0.1-0.2-0.1-0.3c0-0.1-0.1-0.2-0.1-0.3
	c-0.3-0.7-0.4-1.3-0.4-2c0-0.6,0.1-1.3,0.4-2c0-0.1,0.1-0.2,0.1-0.3c0-0.1,0.1-0.2,0.1-0.3c0.3-0.6,0.7-1.2,1.1-1.7
	c0.5-0.5,1-0.8,1.7-1.1C348.5,344.6,348.6,344.5,348.7,344.5z"/>
<path fill="#FFFFFF" stroke="#000000" stroke-width="0.7658" stroke-miterlimit="10" d="M350.9,250.2c-6.9-0.1-13.7,4.4-13.8,11.8
	c-0.1,7.9,6.4,12.4,13.8,12.4c7.4,0,14-4.5,13.8-12.4C364.6,254.6,357.8,250.1,350.9,250.2z"/>
<path fill="#FFFFFF" stroke="#000000" stroke-width="0.7658" stroke-miterlimit="10" d="M421.4,279.4c-4.8-5-12.8-6.6-18.1-1.4
	c-5.7,5.5-4.2,13.3,1,18.6c5.2,5.2,13,6.7,18.6,1C427.9,292.2,426.4,284.2,421.4,279.4z"/>
<path fill="#FFFFFF" stroke="#000000" stroke-width="0.7658" stroke-miterlimit="10" d="M450.6,349.9c0.1-6.9-4.4-13.7-11.8-13.8
	c-7.9-0.1-12.4,6.4-12.4,13.8c0,7.4,4.5,14,12.4,13.8C446.2,363.6,450.7,356.8,450.6,349.9z"/>
<path fill="#FFFFFF" stroke="#000000" stroke-width="0.7658" stroke-miterlimit="10" d="M421.4,420.4c5-4.8,6.6-12.8,1.4-18.1
	c-5.5-5.7-13.3-4.2-18.6,1c-5.2,5.2-6.7,13-1,18.6C408.6,426.9,416.6,425.4,421.4,420.4z"/>
<path fill="#FFFFFF" stroke="#000000" stroke-width="0.7658" stroke-miterlimit="10" d="M350.9,449.6c6.9,0.1,13.7-4.4,13.8-11.8
	c0.1-7.9-6.4-12.4-13.8-12.4c-7.4,0-14,4.5-13.8,12.4C337.2,445.2,344,449.7,350.9,449.6z"/>
<path fill="#FFFFFF" stroke="#000000" stroke-width="0.7658" stroke-miterlimit="10" d="M280.4,420.4c4.8,5,12.8,6.6,18.1,1.4
	c5.7-5.5,4.2-13.3-1-18.6c-5.2-5.2-13-6.7-18.6-1C273.8,407.6,275.4,415.6,280.4,420.4z"/>
<path fill="#FFFFFF" stroke="#000000" stroke-width="0.7658" stroke-miterlimit="10" d="M251.2,349.9c-0.1,6.9,4.4,13.7,11.8,13.8
	c7.9,0.1,12.4-6.4,12.4-13.8c0-7.4-4.5-14-12.4-13.8C255.6,336.2,251.1,343,251.2,349.9z"/>
<path fill="#FFFFFF" stroke="#000000" stroke-width="0.7658" stroke-miterlimit="10" d="M280.4,279.4c-5,4.8-6.6,12.8-1.4,18.1
	c5.5,5.7,13.3,4.2,18.6-1c5.2-5.2,6.7-13,1-18.6C293.2,272.8,285.2,274.4,280.4,279.4z"/>
<path fill="#FFFFFF" stroke="#000000" stroke-width="0.7658" stroke-miterlimit="10" d="M350.9,25.9c-4.3,10.5-12,21.9-5.8,31.8
	c1.8-0.2,3.7-0.2,5.8-0.2c2.1,0,3.9,0,5.8,0.2C362.9,47.8,355.2,36.4,350.9,25.9z"/>
<path fill="#FFFFFF" stroke="#000000" stroke-width="0.7658" stroke-miterlimit="10" d="M580,120.8c-10.5,4.4-23.9,7-26.5,18.4
	c1.4,1.2,2.8,2.5,4.2,4c1.4,1.5,2.8,2.8,4,4.2C573,144.7,575.6,131.2,580,120.8z"/>
<path fill="#FFFFFF" stroke="#000000" stroke-width="0.7658" stroke-miterlimit="10" d="M674.9,349.9c-10.5-4.3-21.9-12-31.8-5.8
	c0.2,1.8,0.2,3.7,0.2,5.8c0,2.1,0,3.9-0.2,5.8C653,361.9,664.4,354.2,674.9,349.9z"/>
<path fill="#FFFFFF" stroke="#000000" stroke-width="0.7658" stroke-miterlimit="10" d="M580,579c-4.4-10.5-7-23.9-18.4-26.5
	c-1.2,1.4-2.5,2.8-4,4.2c-1.5,1.4-2.8,2.8-4.2,4C556.1,572,569.6,574.6,580,579z"/>
<path fill="#FFFFFF" stroke="#000000" stroke-width="0.7658" stroke-miterlimit="10" d="M350.9,673.9c4.3-10.5,12-21.9,5.8-31.8
	c-1.8,0.2-3.7,0.2-5.8,0.2c-2.1,0-3.9,0-5.8-0.2C338.9,652,346.6,663.4,350.9,673.9z"/>
<path fill="#FFFFFF" stroke="#000000" stroke-width="0.7658" stroke-miterlimit="10" d="M121.8,579c10.5-4.4,23.9-7,26.5-18.4
	c-1.4-1.2-2.8-2.5-4.2-4c-1.4-1.5-2.8-2.8-4-4.2C128.8,555.1,126.2,568.6,121.8,579z"/>
<path fill="#FFFFFF" stroke="#000000" stroke-width="0.7658" stroke-miterlimit="10" d="M26.9,349.9c10.5,4.3,21.9,12,31.8,5.8
	c-0.2-1.8-0.2-3.7-0.2-5.8c0-2.1,0-3.9,0.2-5.8C48.8,337.9,37.4,345.6,26.9,349.9z"/>
<path fill="#FFFFFF" stroke="#000000" stroke-width="0.7658" stroke-miterlimit="10" d="M121.8,120.8c4.4,10.5,7,23.9,18.4,26.5
	c1.2-1.4,2.5-2.8,4-4.2c1.5-1.4,2.8-2.8,4.2-4C145.7,127.8,132.2,125.2,121.8,120.8z"/>
<path fill="#FFFFFF" stroke="#000000" stroke-width="0.7658" stroke-miterlimit="10" d="M350.9,117.3c-0.2,0-0.4,0-0.6,0
	c-6.8-0.3-12.8,4.4-12.9,11.6c-0.1,7.1,6.6,13.1,13.5,13.1c6.9,0,13.6-6.1,13.5-13.1c-0.1-7.2-6.2-11.8-12.9-11.6
	C351.3,117.3,351.1,117.4,350.9,117.3z"/>
<path fill="#FFFFFF" stroke="#000000" stroke-width="0.7658" stroke-miterlimit="10" d="M515.3,185.5c-0.2-0.1-0.3-0.3-0.4-0.4
	c-4.6-5-12.2-6-17.3-1c-5.1,4.9-4.6,13.9,0.3,18.8c4.9,4.9,13.9,5.3,18.8,0.3c5-5.1,4-12.7-1-17.3
	C515.6,185.7,515.5,185.6,515.3,185.5z"/>
<path fill="#FFFFFF" stroke="#000000" stroke-width="0.7658" stroke-miterlimit="10" d="M583.5,349.9c0-0.2,0-0.4,0-0.6
	c0.3-6.8-4.4-12.8-11.6-12.9c-7.1-0.1-13.1,6.6-13.1,13.5c0,6.9,6.1,13.6,13.1,13.5c7.2-0.1,11.8-6.2,11.6-12.9
	C583.4,350.3,583.4,350.1,583.5,349.9z"/>
<path fill="#FFFFFF" stroke="#000000" stroke-width="0.7658" stroke-miterlimit="10" d="M515.3,514.3c0.1-0.2,0.3-0.3,0.4-0.4
	c5-4.6,6-12.2,1-17.3c-4.9-5.1-13.9-4.6-18.8,0.3c-4.9,4.9-5.3,13.9-0.3,18.8c5.1,5,12.7,4,17.3-1
	C515.1,514.6,515.2,514.5,515.3,514.3z"/>
<path fill="#FFFFFF" stroke="#000000" stroke-width="0.7658" stroke-miterlimit="10" d="M350.9,582.5c0.2,0,0.4,0,0.6,0
	c6.8,0.3,12.8-4.4,12.9-11.6c0.1-7.1-6.6-13.1-13.5-13.1c-6.9,0-13.6,6.1-13.5,13.1c0.1,7.2,6.2,11.8,12.9,11.6
	C350.5,582.4,350.7,582.4,350.9,582.5z"/>
<path fill="#FFFFFF" stroke="#000000" stroke-width="0.7658" stroke-miterlimit="10" d="M186.5,514.3c0.2,0.1,0.3,0.3,0.4,0.4
	c4.6,5,12.2,6,17.3,1c5.1-4.9,4.6-13.9-0.3-18.8c-4.9-4.9-13.9-5.3-18.8-0.3c-5,5.1-4,12.7,1,17.3
	C186.2,514.1,186.3,514.2,186.5,514.3z"/>
<path fill="#FFFFFF" stroke="#000000" stroke-width="0.7658" stroke-miterlimit="10" d="M118.3,349.9c0,0.2,0,0.4,0,0.6
	c-0.3,6.8,4.4,12.8,11.6,12.9c7.1,0.1,13.1-6.6,13.1-13.5c0-6.9-6.1-13.6-13.1-13.5c-7.2,0.1-11.8,6.2-11.6,12.9
	C118.3,349.5,118.4,349.7,118.3,349.9z"/>
<path fill="#FFFFFF" stroke="#000000" stroke-width="0.7658" stroke-miterlimit="10" d="M186.5,185.5c-0.1,0.2-0.3,0.3-0.4,0.4
	c-5,4.6-6,12.2-1,17.3c4.9,5.1,13.9,4.6,18.8-0.3c4.9-4.9,5.3-13.9,0.3-18.8c-5.1-5-12.7-4-17.3,1
	C186.7,185.2,186.6,185.3,186.5,185.5z"/>
<path fill="#FFFFFF" stroke="#000000" stroke-width="0.7658" stroke-miterlimit="10" d="M342,328.4C342,328.4,342,328.4,342,328.4
	c1.6-0.9,3.8-2.2,5.8-3c0.2-9-0.5-18.4-6.3-25.7c-4.6-5.9-11.3-9.9-17.4-14.3c-1.2,7.4-3.1,14.9-2.2,22.4
	c1.1,9.2,7.3,16.4,13.8,22.6C337.8,329.6,340.3,329,342,328.4C342,328.4,342,328.4,342,328.4z"/>
<path fill="#FFFFFF" stroke="#000000" stroke-width="0.7658" stroke-miterlimit="10" d="M359.8,328.4
	C359.8,328.4,359.8,328.4,359.8,328.4c1.7,0.5,4.2,1.1,6.2,2c6.5-6.2,12.7-13.4,13.8-22.6c0.9-7.5-1-15-2.2-22.4
	c-6.1,4.4-12.7,8.4-17.4,14.3c-5.7,7.3-6.5,16.8-6.3,25.7C356,326.3,358.2,327.6,359.8,328.4C359.8,328.4,359.8,328.4,359.8,328.4z"
	/>
<path fill="#FFFFFF" stroke="#000000" stroke-width="0.7658" stroke-miterlimit="10" d="M372.4,341C372.4,341,372.4,341,372.4,341
	c0.9,1.6,2.2,3.8,3,5.8c9,0.2,18.4-0.5,25.7-6.3c5.9-4.6,9.9-11.3,14.3-17.4c-7.4-1.2-14.9-3.1-22.4-2.2
	c-9.2,1.1-16.4,7.3-22.6,13.8C371.2,336.8,371.8,339.3,372.4,341C372.4,341,372.4,341,372.4,341z"/>
<path fill="#FFFFFF" stroke="#000000" stroke-width="0.7658" stroke-miterlimit="10" d="M372.4,358.8
	C372.4,358.8,372.4,358.8,372.4,358.8c-0.5,1.7-1.1,4.2-2,6.2c6.2,6.5,13.4,12.7,22.6,13.8c7.5,0.9,15-1,22.4-2.2
	c-4.4-6.1-8.4-12.7-14.3-17.4c-7.3-5.7-16.8-6.5-25.7-6.3C374.5,355,373.2,357.2,372.4,358.8C372.4,358.8,372.4,358.8,372.4,358.8z"
	/>
<path fill="#FFFFFF" stroke="#000000" stroke-width="0.7658" stroke-miterlimit="10" d="M359.8,371.4
	C359.8,371.4,359.8,371.4,359.8,371.4c-1.6,0.9-3.8,2.2-5.8,3c-0.2,9,0.5,18.4,6.3,25.7c4.6,5.9,11.3,9.9,17.4,14.3
	c1.2-7.4,3.1-14.9,2.2-22.4c-1.1-9.2-7.3-16.4-13.8-22.6C364,370.2,361.5,370.8,359.8,371.4C359.8,371.4,359.8,371.4,359.8,371.4z"
	/>
<path fill="#FFFFFF" stroke="#000000" stroke-width="0.7658" stroke-miterlimit="10" d="M342,371.4C342,371.4,342,371.4,342,371.4
	c-1.7-0.5-4.2-1.1-6.2-2c-6.5,6.2-12.7,13.4-13.8,22.6c-0.9,7.5,1,15,2.2,22.4c6.1-4.4,12.7-8.4,17.4-14.3
	c5.7-7.3,6.5-16.8,6.3-25.7C345.8,373.5,343.6,372.2,342,371.4C342,371.4,342,371.4,342,371.4z"/>
<path fill="#FFFFFF" stroke="#000000" stroke-width="0.7658" stroke-miterlimit="10" d="M329.4,358.8
	C329.4,358.8,329.4,358.8,329.4,358.8c-0.9-1.6-2.2-3.8-3-5.8c-9-0.2-18.4,0.5-25.7,6.3c-5.9,4.6-9.9,11.3-14.3,17.4
	c7.4,1.2,14.9,3.1,22.4,2.2c9.2-1.1,16.4-7.3,22.6-13.8C330.6,363,330,360.5,329.4,358.8C329.4,358.8,329.4,358.8,329.4,358.8z"/>
<path fill="#FFFFFF" stroke="#000000" stroke-width="0.7658" stroke-miterlimit="10" d="M329.4,341C329.4,341,329.4,341,329.4,341
	c0.5-1.7,1.1-4.2,2-6.2c-6.2-6.5-13.4-12.7-22.6-13.8c-7.5-0.9-15,1-22.4,2.2c4.4,6.1,8.4,12.7,14.3,17.4c7.3,5.7,16.8,6.5,25.7,6.3
	C327.3,344.8,328.6,342.6,329.4,341C329.4,341,329.4,341,329.4,341z"/>
<path fill="#FFFFFF" stroke="#000000" stroke-width="0.7658" stroke-miterlimit="10" d="M335.9,193.2c-1.7,6.5-8.2,10.5-13.5,14.3
	c-7.2,5.1-14.7,10.6-18.8,18.6c4.2,8.6,7.5,17.6,9.8,26.9c0,0,0.1,0,0.1,0c0.7-5.7,2.9-11.1,7.6-15.8c4-4,8.9-7,13.4-10.4
	c4.5-3.3,8.6-7,12.4-11.1C347.1,206.4,342.4,199.1,335.9,193.2z"/>
<path fill="#FFFFFF" stroke="#000000" stroke-width="0.7658" stroke-miterlimit="10" d="M229.5,249.7c3.4,5.8,1.7,13.2,0.6,19.6
	c-1.5,8.8-2.9,17.9-0.1,26.4c9.1,3.1,17.7,7.1,25.9,12.1c0,0,0.1-0.1,0.1-0.1c-3.6-4.5-5.8-9.9-5.8-16.5c0-5.7,1.3-11.2,2.1-16.8
	c0.8-5.5,1.1-11.1,0.9-16.6C246.7,251.1,238.3,249.3,229.5,249.7z"/>
<path fill="#FFFFFF" stroke="#000000" stroke-width="0.7658" stroke-miterlimit="10" d="M194.2,364.9c6.5,1.7,10.5,8.2,14.3,13.5
	c5.1,7.2,10.6,14.7,18.6,18.8c8.6-4.2,17.6-7.5,26.9-9.8c0,0,0-0.1,0-0.1c-5.7-0.7-11.1-2.9-15.8-7.6c-4-4-7-8.9-10.4-13.4
	c-3.3-4.5-7-8.6-11.1-12.4C207.4,353.7,200.1,358.4,194.2,364.9z"/>
<path fill="#FFFFFF" stroke="#000000" stroke-width="0.7658" stroke-miterlimit="10" d="M250.7,471.3c5.8-3.4,13.2-1.7,19.6-0.6
	c8.8,1.5,17.9,2.9,26.4,0.1c3.1-9.1,7.1-17.7,12.1-25.9c0,0-0.1-0.1-0.1-0.1c-4.5,3.6-9.9,5.8-16.5,5.8c-5.7,0-11.2-1.3-16.8-2.1
	c-5.5-0.8-11.1-1.1-16.6-0.9C252.1,454.1,250.3,462.5,250.7,471.3z"/>
<path fill="#FFFFFF" stroke="#000000" stroke-width="0.7658" stroke-miterlimit="10" d="M365.9,506.6c1.7-6.5,8.2-10.5,13.5-14.3
	c7.2-5.1,14.7-10.6,18.8-18.6c-4.2-8.6-7.5-17.6-9.8-26.9c0,0-0.1,0-0.1,0c-0.7,5.7-2.9,11.1-7.6,15.8c-4,4-8.9,7-13.4,10.4
	c-4.5,3.3-8.6,7-12.4,11.1C354.7,493.4,359.4,500.7,365.9,506.6z"/>
<path fill="#FFFFFF" stroke="#000000" stroke-width="0.7658" stroke-miterlimit="10" d="M472.3,450.1c-3.4-5.8-1.7-13.2-0.6-19.6
	c1.5-8.8,2.9-17.9,0.1-26.4c-9.1-3.1-17.7-7.1-25.9-12.1c0,0-0.1,0.1-0.1,0.1c3.6,4.5,5.8,9.9,5.8,16.5c0,5.7-1.3,11.2-2.1,16.8
	c-0.8,5.5-1.1,11.1-0.9,16.6C455.1,448.7,463.5,450.5,472.3,450.1z"/>
<path fill="#FFFFFF" stroke="#000000" stroke-width="0.7658" stroke-miterlimit="10" d="M507.6,334.9c-6.5-1.7-10.5-8.2-14.3-13.5
	c-5.1-7.2-10.6-14.7-18.6-18.8c-8.6,4.2-17.6,7.5-26.9,9.8c0,0,0,0.1,0,0.1c5.7,0.7,11.1,2.9,15.8,7.6c4,4,7,8.9,10.4,13.4
	c3.3,4.5,7,8.6,11.1,12.4C494.4,346.1,501.7,341.4,507.6,334.9z"/>
<path fill="#FFFFFF" stroke="#000000" stroke-width="0.7658" stroke-miterlimit="10" d="M451.1,228.5c-5.8,3.4-13.2,1.7-19.6,0.6
	c-8.8-1.5-17.9-2.9-26.4-0.1c-3.1,9.1-7.1,17.7-12.1,25.9c0,0,0.1,0.1,0.1,0.1c4.5-3.6,9.9-5.8,16.5-5.8c5.7,0,11.2,1.3,16.8,2.1
	c5.5,0.8,11.1,1.1,16.6,0.9C449.7,245.7,451.5,237.3,451.1,228.5z"/>
<path fill="#FFFFFF" stroke="#000000" stroke-width="0.7658" stroke-miterlimit="10" d="M365.9,193.2c1.7,6.5,8.2,10.5,13.5,14.3
	c7.2,5.1,14.7,10.6,18.8,18.6c-4.2,8.6-7.5,17.6-9.8,26.9c0,0-0.1,0-0.1,0c-0.7-5.7-2.9-11.1-7.6-15.8c-4-4-8.9-7-13.4-10.4
	c-4.5-3.3-8.6-7-12.4-11.1C354.7,206.4,359.4,199.1,365.9,193.2z"/>
<path fill="#FFFFFF" stroke="#000000" stroke-width="0.7658" stroke-miterlimit="10" d="M250.7,228.5c5.8,3.4,13.2,1.7,19.6,0.6
	c8.8-1.5,17.9-2.9,26.4-0.1c3.1,9.1,7.1,17.7,12.1,25.9c0,0-0.1,0.1-0.1,0.1c-4.5-3.6-9.9-5.8-16.5-5.8c-5.7,0-11.2,1.3-16.8,2.1
	c-5.5,0.8-11.1,1.1-16.6,0.9C252.1,245.7,250.3,237.3,250.7,228.5z"/>
<path fill="#FFFFFF" stroke="#000000" stroke-width="0.7658" stroke-miterlimit="10" d="M194.2,334.9c6.5-1.7,10.5-8.2,14.3-13.5
	c5.1-7.2,10.6-14.7,18.6-18.8c8.6,4.2,17.6,7.5,26.9,9.8c0,0,0,0.1,0,0.1c-5.7,0.7-11.1,2.9-15.8,7.6c-4,4-7,8.9-10.4,13.4
	c-3.3,4.5-7,8.6-11.1,12.4C207.4,346.1,200.1,341.4,194.2,334.9z"/>
<path fill="#FFFFFF" stroke="#000000" stroke-width="0.7658" stroke-miterlimit="10" d="M229.5,450.1c3.4-5.8,1.7-13.2,0.6-19.6
	c-1.5-8.8-2.9-17.9-0.1-26.4c9.1-3.1,17.7-7.1,25.9-12.1c0,0,0.1,0.1,0.1,0.1c-3.6,4.5-5.8,9.9-5.8,16.5c0,5.7,1.3,11.2,2.1,16.8
	c0.8,5.5,1.1,11.1,0.9,16.6C246.7,448.7,238.3,450.5,229.5,450.1z"/>
<path fill="#FFFFFF" stroke="#000000" stroke-width="0.7658" stroke-miterlimit="10" d="M335.9,506.6c-1.7-6.5-8.2-10.5-13.5-14.3
	c-7.2-5.1-14.7-10.6-18.8-18.6c4.2-8.6,7.5-17.6,9.8-26.9c0,0,0.1,0,0.1,0c0.7,5.7,2.9,11.1,7.6,15.8c4,4,8.9,7,13.4,10.4
	c4.5,3.3,8.6,7,12.4,11.1C347.1,493.4,342.4,500.7,335.9,506.6z"/>
<path fill="#FFFFFF" stroke="#000000" stroke-width="0.7658" stroke-miterlimit="10" d="M451.1,471.3c-5.8-3.4-13.2-1.7-19.6-0.6
	c-8.8,1.5-17.9,2.9-26.4,0.1c-3.1-9.1-7.1-17.7-12.1-25.9c0,0,0.1-0.1,0.1-0.1c4.5,3.6,9.9,5.8,16.5,5.8c5.7,0,11.2-1.3,16.8-2.1
	c5.5-0.8,11.1-1.1,16.6-0.9C449.7,454.1,451.5,462.5,451.1,471.3z"/>
<path fill="#FFFFFF" stroke="#000000" stroke-width="0.7658" stroke-miterlimit="10" d="M507.6,364.9c-6.5,1.7-10.5,8.2-14.3,13.5
	c-5.1,7.2-10.6,14.7-18.6,18.8c-8.6-4.2-17.6-7.5-26.9-9.8c0,0,0-0.1,0-0.1c5.7-0.7,11.1-2.9,15.8-7.6c4-4,7-8.9,10.4-13.4
	c3.3-4.5,7-8.6,11.1-12.4C494.4,353.7,501.7,358.4,507.6,364.9z"/>
<path fill="#FFFFFF" stroke="#000000" stroke-width="0.7658" stroke-miterlimit="10" d="M472.3,249.7c-3.4,5.8-1.7,13.2-0.6,19.6
	c1.5,8.8,2.9,17.9,0.1,26.4c-9.1,3.1-17.7,7.1-25.9,12.1c0,0-0.1-0.1-0.1-0.1c3.6-4.5,5.8-9.9,5.8-16.5c0-5.7-1.3-11.2-2.1-16.8
	c-0.8-5.5-1.1-11.1-0.9-16.6C455.1,251.1,463.5,249.3,472.3,249.7z"/>
<path fill="#FFFFFF" stroke="#000000" stroke-width="0.7658" stroke-miterlimit="10" d="M269.8,154.2c0.6-0.3,1.4-0.2,2.1,0.1
	c8.9,4.1,18.3,7.2,27.3,11.2c8.3,3.8,16.4,8.1,24.2,12.8c9.3,5.7,19.3,12.8,24.6,22.4c-1.5-12.4-10.7-22.5-21.4-29.6
	c-0.5,0-1.1-0.2-1.6-0.8c-0.2-0.2-0.3-0.4-0.4-0.5c-2.5-1.6-5.1-3-7.7-4.2c-9.5-4.6-19.6-7.7-29.4-11.7c-8-3.3-15.6-7.2-22.8-11.8
	c-1.8,8.4-4.4,16.5-7.7,24.5c-4.1,9.7-9,19.1-12.5,29.1c-0.9,2.7-1.8,5.5-2.5,8.4c0,0.2,0,0.5,0.1,0.7c0,0.7-0.2,1.3-0.6,1.6
	c-2.5,12.6-2,26.2,5.8,36c-3-10.5-0.9-22.6,1.6-33.2c2.1-8.9,4.8-17.6,8-26.2c3.5-9.2,7.9-18,11.4-27.2
	C268.7,155,269.2,154.5,269.8,154.2z"/>
<path fill="#FFFFFF" stroke="#000000" stroke-width="0.7658" stroke-miterlimit="10" d="M432,154.2c0.6,0.3,1.1,0.8,1.4,1.6
	c3.4,9.2,7.9,18,11.4,27.2c3.2,8.5,5.9,17.3,8,26.2c2.5,10.6,4.6,22.7,1.6,33.2c7.8-9.8,8.3-23.5,5.8-36c-0.4-0.4-0.6-0.9-0.6-1.6
	c0-0.2,0-0.5,0.1-0.7c-0.7-2.9-1.5-5.7-2.5-8.4c-3.5-10-8.4-19.3-12.5-29.1c-3.3-7.9-5.9-16.1-7.7-24.5c-7.2,4.7-14.8,8.6-22.8,11.8
	c-9.8,4-19.9,7.2-29.4,11.7c-2.6,1.2-5.2,2.6-7.7,4.2c-0.2,0.2-0.3,0.4-0.4,0.5c-0.5,0.5-1,0.8-1.6,0.8
	c-10.7,7.1-19.9,17.1-21.4,29.6c5.3-9.6,15.3-16.7,24.6-22.4c7.8-4.8,15.8-9.1,24.2-12.8c9-4.1,18.3-7.1,27.3-11.2
	C430.6,154,431.3,154,432,154.2z"/>
<path fill="#FFFFFF" stroke="#000000" stroke-width="0.7658" stroke-miterlimit="10" d="M546.6,268.8c0.3,0.6,0.2,1.4-0.1,2.1
	c-4.1,8.9-7.2,18.3-11.2,27.3c-3.8,8.3-8.1,16.4-12.8,24.2c-5.7,9.3-12.8,19.3-22.4,24.6c12.4-1.5,22.5-10.7,29.6-21.4
	c0-0.5,0.2-1.1,0.8-1.6c0.2-0.2,0.4-0.3,0.5-0.4c1.6-2.5,3-5.1,4.2-7.7c4.6-9.5,7.7-19.6,11.7-29.4c3.3-8,7.2-15.6,11.8-22.8
	c-8.4-1.8-16.5-4.4-24.5-7.7c-9.7-4.1-19.1-9-29.1-12.5c-2.7-0.9-5.5-1.8-8.4-2.5c-0.2,0-0.5,0-0.7,0.1c-0.7,0-1.3-0.2-1.6-0.6
	c-12.6-2.5-26.2-2-36,5.8c10.5-3,22.6-0.9,33.2,1.6c8.9,2.1,17.6,4.8,26.2,8c9.2,3.5,18,7.9,27.2,11.4
	C545.8,267.7,546.3,268.2,546.6,268.8z"/>
<path fill="#FFFFFF" stroke="#000000" stroke-width="0.7658" stroke-miterlimit="10" d="M546.6,431c-0.3,0.6-0.8,1.1-1.6,1.4
	c-9.2,3.4-18,7.9-27.2,11.4c-8.5,3.2-17.3,5.9-26.2,8c-10.6,2.5-22.7,4.6-33.2,1.6c9.8,7.8,23.5,8.3,36,5.8c0.4-0.4,0.9-0.6,1.6-0.6
	c0.2,0,0.5,0,0.7,0.1c2.9-0.7,5.7-1.5,8.4-2.5c10-3.5,19.4-8.4,29.1-12.5c7.9-3.3,16.1-5.9,24.5-7.7c-4.7-7.2-8.6-14.8-11.8-22.8
	c-4-9.8-7.2-19.9-11.7-29.4c-1.2-2.6-2.6-5.2-4.2-7.7c-0.2-0.2-0.4-0.3-0.5-0.4c-0.5-0.5-0.8-1-0.8-1.6
	c-7.1-10.7-17.1-19.9-29.6-21.4c9.6,5.3,16.7,15.3,22.4,24.6c4.8,7.8,9.1,15.8,12.8,24.2c4.1,9,7.1,18.3,11.2,27.3
	C546.8,429.6,546.8,430.3,546.6,431z"/>
<path fill="#FFFFFF" stroke="#000000" stroke-width="0.7658" stroke-miterlimit="10" d="M432,545.6c-0.6,0.3-1.4,0.2-2.1-0.1
	c-8.9-4.1-18.3-7.2-27.3-11.2c-8.3-3.8-16.4-8.1-24.2-12.8c-9.3-5.7-19.3-12.8-24.6-22.4c1.5,12.4,10.7,22.5,21.4,29.6
	c0.5,0,1.1,0.2,1.6,0.8c0.2,0.2,0.3,0.4,0.4,0.5c2.5,1.6,5.1,3,7.7,4.2c9.5,4.6,19.6,7.7,29.4,11.7c8,3.3,15.6,7.2,22.8,11.8
	c1.8-8.4,4.4-16.5,7.7-24.5c4.1-9.7,9-19.1,12.5-29.1c0.9-2.7,1.8-5.5,2.5-8.4c0-0.2,0-0.5-0.1-0.7c0-0.7,0.2-1.3,0.6-1.6
	c2.5-12.6,2-26.2-5.8-36c3,10.5,0.9,22.6-1.6,33.2c-2.1,8.9-4.8,17.6-8,26.2c-3.5,9.2-7.9,18-11.4,27.2
	C433.1,544.8,432.6,545.3,432,545.6z"/>
<path fill="#FFFFFF" stroke="#000000" stroke-width="0.7658" stroke-miterlimit="10" d="M269.8,545.6c-0.6-0.3-1.1-0.8-1.4-1.6
	c-3.4-9.2-7.9-18-11.4-27.2c-3.2-8.5-5.9-17.3-8-26.2c-2.5-10.6-4.6-22.7-1.6-33.2c-7.8,9.8-8.3,23.5-5.8,36
	c0.4,0.4,0.6,0.9,0.6,1.6c0,0.2,0,0.5-0.1,0.7c0.7,2.9,1.5,5.7,2.5,8.4c3.5,10,8.4,19.4,12.5,29.1c3.3,7.9,5.9,16.1,7.7,24.5
	c7.2-4.7,14.8-8.6,22.8-11.8c9.8-4,19.9-7.2,29.4-11.7c2.6-1.2,5.2-2.6,7.7-4.2c0.2-0.2,0.3-0.4,0.4-0.5c0.5-0.5,1-0.8,1.6-0.8
	c10.7-7.1,19.9-17.1,21.4-29.6c-5.3,9.6-15.3,16.7-24.6,22.4c-7.8,4.8-15.8,9.1-24.2,12.8c-9,4.1-18.3,7.1-27.3,11.2
	C271.2,545.8,270.5,545.8,269.8,545.6z"/>
<path fill="#FFFFFF" stroke="#000000" stroke-width="0.7658" stroke-miterlimit="10" d="M155.2,431c-0.3-0.6-0.2-1.4,0.1-2.1
	c4.1-8.9,7.2-18.3,11.2-27.3c3.8-8.3,8.1-16.4,12.8-24.2c5.7-9.3,12.8-19.3,22.4-24.6c-12.4,1.5-22.5,10.7-29.6,21.4
	c0,0.5-0.2,1.1-0.8,1.6c-0.2,0.2-0.4,0.3-0.5,0.4c-1.6,2.5-3,5.1-4.2,7.7c-4.6,9.5-7.7,19.6-11.7,29.4c-3.3,8-7.2,15.6-11.8,22.8
	c8.4,1.8,16.5,4.4,24.5,7.7c9.7,4.1,19.1,9,29.1,12.5c2.7,0.9,5.5,1.8,8.4,2.5c0.2,0,0.5,0,0.7-0.1c0.7,0,1.3,0.2,1.6,0.6
	c12.6,2.5,26.2,2,36-5.8c-10.5,3-22.6,0.9-33.2-1.6c-8.9-2.1-17.6-4.8-26.2-8c-9.2-3.5-18-7.9-27.2-11.4
	C156,432.1,155.5,431.6,155.2,431z"/>
<path fill="#FFFFFF" stroke="#000000" stroke-width="0.7658" stroke-miterlimit="10" d="M155.2,268.8c0.3-0.6,0.8-1.1,1.6-1.4
	c9.2-3.4,18-7.9,27.2-11.4c8.5-3.2,17.3-5.9,26.2-8c10.6-2.5,22.7-4.6,33.2-1.6c-9.8-7.8-23.5-8.3-36-5.8c-0.4,0.4-0.9,0.6-1.6,0.6
	c-0.2,0-0.5,0-0.7-0.1c-2.9,0.7-5.7,1.5-8.4,2.5c-10,3.5-19.3,8.4-29.1,12.5c-7.9,3.3-16.1,5.9-24.5,7.7c4.7,7.2,8.6,14.8,11.8,22.8
	c4,9.8,7.2,19.9,11.7,29.4c1.2,2.6,2.6,5.2,4.2,7.7c0.2,0.2,0.4,0.3,0.5,0.4c0.5,0.5,0.8,1,0.8,1.6c7.1,10.7,17.1,19.9,29.6,21.4
	c-9.6-5.3-16.7-15.3-22.4-24.6c-4.8-7.8-9.1-15.8-12.8-24.2c-4.1-9-7.1-18.3-11.2-27.3C155,270.2,155,269.5,155.2,268.8z"/>
<path fill="#FFFFFF" stroke="#000000" stroke-width="0.7658" stroke-miterlimit="10" d="M307.9,175.1c-0.1,10.6-10.4,15.9-16.2,23.7
	c2.2,4.9,4.1,10,5.7,15.1c0,0.1,0.1,0.1,0.2,0.2c1.7,2,2.9,4.2,3.7,6.6c3.1-4.7,7.1-8.6,11.6-12.2c3.2-2.5,6.6-4.8,9.9-7.2
	c3.7-2.7,8.5-5.9,8.7-10.9c0-0.3,0.1-0.5,0.2-0.8c-5-3.9-10.6-7.1-15.6-10C313.4,178,310.6,176.6,307.9,175.1z"/>
<path fill="#FFFFFF" stroke="#000000" stroke-width="0.7658" stroke-miterlimit="10" d="M196.9,256.7c7.4,7.6,3.9,18.6,5.3,28.2
	c5,2,9.9,4.2,14.7,6.6c0.1,0,0.1,0,0.2,0c2.6,0.2,5.1,0.9,7.3,2c-1.2-5.5-1.1-11.1-0.4-16.8c0.5-4,1.2-8,1.9-12.1
	c0.7-4.5,1.9-10.2-1.6-13.9c-0.2-0.2-0.3-0.4-0.4-0.7c-6.3,0.8-12.5,2.5-18.1,4C202.8,254.9,199.8,255.8,196.9,256.7z"/>
<path fill="#FFFFFF" stroke="#000000" stroke-width="0.7658" stroke-miterlimit="10" d="M176.1,392.9c10.6,0.1,15.9,10.4,23.7,16.2
	c4.9-2.2,10-4.1,15.1-5.7c0.1,0,0.1-0.1,0.2-0.2c2-1.7,4.2-2.9,6.6-3.7c-4.7-3.1-8.6-7.1-12.2-11.6c-2.5-3.2-4.8-6.6-7.2-9.9
	c-2.7-3.7-5.9-8.5-10.9-8.7c-0.3,0-0.5-0.1-0.8-0.2c-3.9,5-7.1,10.6-10,15.6C179,387.4,177.6,390.2,176.1,392.9z"/>
<path fill="#FFFFFF" stroke="#000000" stroke-width="0.7658" stroke-miterlimit="10" d="M257.7,503.9c7.6-7.4,18.6-3.9,28.2-5.3
	c2-5,4.2-9.9,6.6-14.7c0-0.1,0-0.1,0-0.2c0.2-2.6,0.9-5.1,2-7.3c-5.5,1.2-11.1,1.1-16.8,0.4c-4-0.5-8-1.2-12.1-1.9
	c-4.5-0.7-10.2-1.9-13.9,1.6c-0.2,0.2-0.4,0.3-0.7,0.4c0.8,6.3,2.5,12.5,4,18.1C255.9,498,256.8,500.9,257.7,503.9z"/>
<path fill="#FFFFFF" stroke="#000000" stroke-width="0.7658" stroke-miterlimit="10" d="M393.9,524.7c0.1-10.6,10.4-15.9,16.2-23.7
	c-2.2-4.9-4.1-10-5.7-15.1c0-0.1-0.1-0.1-0.2-0.2c-1.7-2-2.9-4.2-3.7-6.6c-3.1,4.7-7.1,8.6-11.6,12.2c-3.2,2.5-6.6,4.8-9.9,7.2
	c-3.7,2.7-8.5,5.9-8.7,10.9c0,0.3-0.1,0.5-0.2,0.8c5,3.9,10.6,7.1,15.6,10C388.4,521.7,391.2,523.2,393.9,524.7z"/>
<path fill="#FFFFFF" stroke="#000000" stroke-width="0.7658" stroke-miterlimit="10" d="M504.9,443c-7.4-7.6-3.9-18.6-5.3-28.2
	c-5-2-9.9-4.2-14.7-6.6c-0.1,0-0.1,0-0.2,0c-2.6-0.2-5.1-0.9-7.3-2c1.2,5.5,1.1,11.1,0.4,16.8c-0.5,4-1.2,8-1.9,12.1
	c-0.7,4.5-1.9,10.2,1.6,13.9c0.2,0.2,0.3,0.4,0.4,0.7c6.3-0.8,12.5-2.5,18.1-4C499,444.9,501.9,444,504.9,443z"/>
<path fill="#FFFFFF" stroke="#000000" stroke-width="0.7658" stroke-miterlimit="10" d="M525.7,306.9c-10.6-0.1-15.9-10.4-23.7-16.2
	c-4.9,2.2-10,4.1-15.1,5.7c-0.1,0-0.1,0.1-0.2,0.2c-2,1.7-4.2,2.9-6.6,3.7c4.7,3.1,8.6,7.1,12.2,11.6c2.5,3.2,4.8,6.6,7.2,9.9
	c2.7,3.7,5.9,8.5,10.9,8.7c0.3,0,0.5,0.1,0.8,0.2c3.9-5,7.1-10.6,10-15.6C522.7,312.4,524.2,309.6,525.7,306.9z"/>
<path fill="#FFFFFF" stroke="#000000" stroke-width="0.7658" stroke-miterlimit="10" d="M444,195.9c-7.6,7.4-18.6,3.9-28.2,5.3
	c-2,5-4.2,9.9-6.6,14.7c0,0.1,0,0.1,0,0.2c-0.2,2.6-0.9,5.1-2,7.3c5.5-1.2,11.1-1.1,16.8-0.4c4,0.5,8,1.2,12.1,1.9
	c4.5,0.7,10.2,1.9,13.9-1.6c0.2-0.2,0.4-0.3,0.7-0.4c-0.8-6.3-2.5-12.5-4-18.1C445.9,201.8,445,198.8,444,195.9z"/>
<path fill="#FFFFFF" stroke="#000000" stroke-width="0.7658" stroke-miterlimit="10" d="M393.9,175.1c0.1,10.6,10.4,15.9,16.2,23.7
	c-2.2,4.9-4.1,10-5.7,15.1c0,0.1-0.1,0.1-0.2,0.2c-1.7,2-2.9,4.2-3.7,6.6c-3.1-4.7-7.1-8.6-11.6-12.2c-3.2-2.5-6.6-4.8-9.9-7.2
	c-3.7-2.7-8.5-5.9-8.7-10.9c0-0.3-0.1-0.5-0.2-0.8c5-3.9,10.6-7.1,15.6-10C388.4,178,391.2,176.6,393.9,175.1z"/>
<path fill="#FFFFFF" stroke="#000000" stroke-width="0.7658" stroke-miterlimit="10" d="M257.7,195.9c7.6,7.4,18.6,3.9,28.2,5.3
	c2,5,4.2,9.9,6.6,14.7c0,0.1,0,0.1,0,0.2c0.2,2.6,0.9,5.1,2,7.3c-5.5-1.2-11.1-1.1-16.8-0.4c-4,0.5-8,1.2-12.1,1.9
	c-4.5,0.7-10.2,1.9-13.9-1.6c-0.2-0.2-0.4-0.3-0.7-0.4c0.8-6.3,2.5-12.5,4-18.1C255.9,201.8,256.8,198.8,257.7,195.9z"/>
<path fill="#FFFFFF" stroke="#000000" stroke-width="0.7658" stroke-miterlimit="10" d="M176.1,306.9c10.6-0.1,15.9-10.4,23.7-16.2
	c4.9,2.2,10,4.1,15.1,5.7c0.1,0,0.1,0.1,0.2,0.2c2,1.7,4.2,2.9,6.6,3.7c-4.7,3.1-8.6,7.1-12.2,11.6c-2.5,3.2-4.8,6.6-7.2,9.9
	c-2.7,3.7-5.9,8.5-10.9,8.7c-0.3,0-0.5,0.1-0.8,0.2c-3.9-5-7.1-10.6-10-15.6C179,312.4,177.6,309.6,176.1,306.9z"/>
<path fill="#FFFFFF" stroke="#000000" stroke-width="0.7658" stroke-miterlimit="10" d="M196.9,443c7.4-7.6,3.9-18.6,5.3-28.2
	c5-2,9.9-4.2,14.7-6.6c0.1,0,0.1,0,0.2,0c2.6-0.2,5.1-0.9,7.3-2c-1.2,5.5-1.1,11.1-0.4,16.8c0.5,4,1.2,8,1.9,12.1
	c0.7,4.5,1.9,10.2-1.6,13.9c-0.2,0.2-0.3,0.4-0.4,0.7c-6.3-0.8-12.5-2.5-18.1-4C202.8,444.9,199.8,444,196.9,443z"/>
<path fill="#FFFFFF" stroke="#000000" stroke-width="0.7658" stroke-miterlimit="10" d="M307.9,524.7c-0.1-10.6-10.4-15.9-16.2-23.7
	c2.2-4.9,4.1-10,5.7-15.1c0-0.1,0.1-0.1,0.2-0.2c1.7-2,2.9-4.2,3.7-6.6c3.1,4.7,7.1,8.6,11.6,12.2c3.2,2.5,6.6,4.8,9.9,7.2
	c3.7,2.7,8.5,5.9,8.7,10.9c0,0.3,0.1,0.5,0.2,0.8c-5,3.9-10.6,7.1-15.6,10C313.4,521.7,310.6,523.2,307.9,524.7z"/>
<path fill="#FFFFFF" stroke="#000000" stroke-width="0.7658" stroke-miterlimit="10" d="M444,503.9c-7.6-7.4-18.6-3.9-28.2-5.3
	c-2-5-4.2-9.9-6.6-14.7c0-0.1,0-0.1,0-0.2c-0.2-2.6-0.9-5.1-2-7.3c5.5,1.2,11.1,1.1,16.8,0.4c4-0.5,8-1.2,12.1-1.9
	c4.5-0.7,10.2-1.9,13.9,1.6c0.2,0.2,0.4,0.3,0.7,0.4c-0.8,6.3-2.5,12.5-4,18.1C445.9,498,445,500.9,444,503.9z"/>
<path fill="#FFFFFF" stroke="#000000" stroke-width="0.7658" stroke-miterlimit="10" d="M525.7,392.9c-10.6,0.1-15.9,10.4-23.7,16.2
	c-4.9-2.2-10-4.1-15.1-5.7c-0.1,0-0.1-0.1-0.2-0.2c-2-1.7-4.2-2.9-6.6-3.7c4.7-3.1,8.6-7.1,12.2-11.6c2.5-3.2,4.8-6.6,7.2-9.9
	c2.7-3.7,5.9-8.5,10.9-8.7c0.3,0,0.5-0.1,0.8-0.2c3.9,5,7.1,10.6,10,15.6C522.7,387.4,524.2,390.2,525.7,392.9z"/>
<path fill="#FFFFFF" stroke="#000000" stroke-width="0.7658" stroke-miterlimit="10" d="M504.9,256.7c-7.4,7.6-3.9,18.6-5.3,28.2
	c-5,2-9.9,4.2-14.7,6.6c-0.1,0-0.1,0-0.2,0c-2.6,0.2-5.1,0.9-7.3,2c1.2-5.5,1.1-11.1,0.4-16.8c-0.5-4-1.2-8-1.9-12.1
	c-0.7-4.5-1.9-10.2,1.6-13.9c0.2-0.2,0.3-0.4,0.4-0.7c6.3,0.8,12.5,2.5,18.1,4C499,254.9,501.9,255.8,504.9,256.7z"/>
<path fill="#FFFFFF" stroke="#000000" stroke-width="0.7658" stroke-miterlimit="10" d="M258.5,74c8,9.6,12.5,21.6,13,34
	c3.7-0.1,7.6,0.9,11.2,3.3c6.4,4.1,10.2,10.7,13.2,17.5c0.6-5,2.1-9.9,4.6-14.5c1.2-2.2,2.5-4.3,4-6.2c-0.7-9.4-1.5-19.2-6.5-27.4
	c-4.3-7-11.3-11.8-18.7-15.3c-15.5-7.4-32.8-10.2-49.1-15.3C238,59.7,250.5,64.4,258.5,74z"/>
<path fill="#FFFFFF" stroke="#000000" stroke-width="0.7658" stroke-miterlimit="10" d="M90.5,220.2c12.5,1.2,24.1,6.4,33.3,14.9
	c2.6-2.7,6.1-4.7,10.2-5.6c7.4-1.6,14.8,0.4,21.7,3.1c-3.1-4-5.5-8.5-7-13.5c-0.7-2.4-1.3-4.8-1.6-7.2c-7.1-6.1-14.6-12.5-24-14.7
	c-8-1.9-16.4-0.3-24,2.4c-16.2,5.7-30.4,15.9-45.5,23.9C65.9,224.5,78,219,90.5,220.2z"/>
<path fill="#FFFFFF" stroke="#000000" stroke-width="0.7658" stroke-miterlimit="10" d="M75,442.3c9.6-8,21.6-12.5,34-13
	c-0.1-3.7,0.9-7.6,3.3-11.2c4.1-6.4,10.7-10.2,17.5-13.2c-5-0.6-9.9-2.1-14.5-4.6c-2.2-1.2-4.3-2.5-6.2-4
	c-9.4,0.7-19.2,1.5-27.4,6.5c-7,4.3-11.8,11.3-15.3,18.7c-7.4,15.5-10.2,32.8-15.3,49.1C60.7,462.8,65.4,450.3,75,442.3z"/>
<path fill="#FFFFFF" stroke="#000000" stroke-width="0.7658" stroke-miterlimit="10" d="M221.2,610.3c1.2-12.5,6.4-24.1,14.9-33.3
	c-2.7-2.6-4.7-6.1-5.6-10.2c-1.6-7.4,0.4-14.8,3.1-21.7c-4,3.1-8.5,5.5-13.5,7c-2.4,0.7-4.8,1.3-7.2,1.6c-6.1,7.1-12.5,14.6-14.7,24
	c-1.9,8-0.3,16.4,2.4,24c5.7,16.2,15.9,30.4,23.9,45.5C225.5,634.9,220,622.8,221.2,610.3z"/>
<path fill="#FFFFFF" stroke="#000000" stroke-width="0.7658" stroke-miterlimit="10" d="M443.3,625.8c-8-9.6-12.5-21.6-13-34
	c-3.7,0.1-7.6-0.9-11.2-3.3c-6.4-4.1-10.2-10.7-13.2-17.5c-0.6,5-2.1,9.9-4.6,14.5c-1.2,2.2-2.5,4.3-4,6.2
	c0.7,9.4,1.5,19.2,6.5,27.4c4.3,7,11.3,11.8,18.7,15.3c15.5,7.4,32.8,10.2,49.1,15.3C463.8,640.1,451.3,635.4,443.3,625.8z"/>
<path fill="#FFFFFF" stroke="#000000" stroke-width="0.7658" stroke-miterlimit="10" d="M611.3,479.6c-12.5-1.2-24.1-6.4-33.3-14.9
	c-2.6,2.7-6.1,4.7-10.2,5.6c-7.4,1.6-14.8-0.4-21.7-3.1c3.1,4,5.5,8.5,7,13.5c0.7,2.4,1.3,4.8,1.6,7.2c7.1,6.1,14.6,12.5,24,14.7
	c8,1.9,16.4,0.3,24-2.4c16.2-5.7,30.4-15.9,45.5-23.9C635.9,475.3,623.8,480.8,611.3,479.6z"/>
<path fill="#FFFFFF" stroke="#000000" stroke-width="0.7658" stroke-miterlimit="10" d="M626.8,257.5c-9.6,8-21.6,12.5-34,13
	c0.1,3.7-0.9,7.6-3.3,11.2c-4.1,6.4-10.7,10.2-17.5,13.2c5,0.6,9.9,2.1,14.5,4.6c2.2,1.2,4.3,2.5,6.2,4c9.4-0.7,19.2-1.5,27.4-6.5
	c7-4.3,11.8-11.3,15.3-18.7c7.4-15.5,10.2-32.8,15.3-49.1C641.1,237,636.4,249.5,626.8,257.5z"/>
<path fill="#FFFFFF" stroke="#000000" stroke-width="0.7658" stroke-miterlimit="10" d="M480.6,89.5c-1.2,12.5-6.4,24.1-14.9,33.3
	c2.7,2.6,4.7,6.1,5.6,10.2c1.6,7.4-0.4,14.8-3.1,21.7c4-3.1,8.5-5.5,13.5-7c2.4-0.7,4.8-1.3,7.2-1.6c6.1-7.1,12.5-14.6,14.7-24
	c1.9-8,0.3-16.4-2.4-24c-5.7-16.2-15.9-30.4-23.9-45.5C476.3,64.9,481.8,77,480.6,89.5z"/>
<path fill="#FFFFFF" stroke="#000000" stroke-width="0.7658" stroke-miterlimit="10" d="M443.3,74c-8,9.6-12.5,21.6-13,34
	c-3.7-0.1-7.6,0.9-11.2,3.3c-6.4,4.1-10.2,10.7-13.2,17.5c-0.6-5-2.1-9.9-4.6-14.5c-1.2-2.2-2.5-4.3-4-6.2
	c0.7-9.4,1.5-19.2,6.5-27.4c4.3-7,11.3-11.8,18.7-15.3c15.5-7.4,32.8-10.2,49.1-15.3C463.8,59.7,451.3,64.4,443.3,74z"/>
<path fill="#FFFFFF" stroke="#000000" stroke-width="0.7658" stroke-miterlimit="10" d="M221.2,89.5c1.2,12.5,6.4,24.1,14.9,33.3
	c-2.7,2.6-4.7,6.1-5.6,10.2c-1.6,7.4,0.4,14.8,3.1,21.7c-4-3.1-8.5-5.5-13.5-7c-2.4-0.7-4.8-1.3-7.2-1.6c-6.1-7.1-12.5-14.6-14.7-24
	c-1.9-8-0.3-16.4,2.4-24c5.7-16.2,15.9-30.4,23.9-45.5C225.5,64.9,220,77,221.2,89.5z"/>
<path fill="#FFFFFF" stroke="#000000" stroke-width="0.7658" stroke-miterlimit="10" d="M75,257.5c9.6,8,21.6,12.5,34,13
	c-0.1,3.7,0.9,7.6,3.3,11.2c4.1,6.4,10.7,10.2,17.5,13.2c-5,0.6-9.9,2.1-14.5,4.6c-2.2,1.2-4.3,2.5-6.2,4
	c-9.4-0.7-19.2-1.5-27.4-6.5c-7-4.3-11.8-11.3-15.3-18.7c-7.4-15.5-10.2-32.8-15.3-49.1C60.7,237,65.4,249.5,75,257.5z"/>
<path fill="#FFFFFF" stroke="#000000" stroke-width="0.7658" stroke-miterlimit="10" d="M90.5,479.6c12.5-1.2,24.1-6.4,33.3-14.9
	c2.6,2.7,6.1,4.7,10.2,5.6c7.4,1.6,14.8-0.4,21.7-3.1c-3.1,4-5.5,8.5-7,13.5c-0.7,2.4-1.3,4.8-1.6,7.2c-7.1,6.1-14.6,12.5-24,14.7
	c-8,1.9-16.4,0.3-24-2.4c-16.2-5.7-30.4-15.9-45.5-23.9C65.9,475.3,78,480.8,90.5,479.6z"/>
<path fill="#FFFFFF" stroke="#000000" stroke-width="0.7658" stroke-miterlimit="10" d="M258.5,625.8c8-9.6,12.5-21.6,13-34
	c3.7,0.1,7.6-0.9,11.2-3.3c6.4-4.1,10.2-10.7,13.2-17.5c0.6,5,2.1,9.9,4.6,14.5c1.2,2.2,2.5,4.3,4,6.2c-0.7,9.4-1.5,19.2-6.5,27.4
	c-4.3,7-11.3,11.8-18.7,15.3c-15.5,7.4-32.8,10.2-49.1,15.3C238,640.1,250.5,635.4,258.5,625.8z"/>
<path fill="#FFFFFF" stroke="#000000" stroke-width="0.7658" stroke-miterlimit="10" d="M480.6,610.3c-1.2-12.5-6.4-24.1-14.9-33.3
	c2.7-2.6,4.7-6.1,5.6-10.2c1.6-7.4-0.4-14.8-3.1-21.7c4,3.1,8.5,5.5,13.5,7c2.4,0.7,4.8,1.3,7.2,1.6c6.1,7.1,12.5,14.6,14.7,24
	c1.9,8,0.3,16.4-2.4,24c-5.7,16.2-15.9,30.4-23.9,45.5C476.3,634.9,481.8,622.8,480.6,610.3z"/>
<path fill="#FFFFFF" stroke="#000000" stroke-width="0.7658" stroke-miterlimit="10" d="M626.8,442.3c-9.6-8-21.6-12.5-34-13
	c0.1-3.7-0.9-7.6-3.3-11.2c-4.1-6.4-10.7-10.2-17.5-13.2c5-0.6,9.9-2.1,14.5-4.6c2.2-1.2,4.3-2.5,6.2-4c9.4,0.7,19.2,1.5,27.4,6.5
	c7,4.3,11.8,11.3,15.3,18.7c7.4,15.5,10.2,32.8,15.3,49.1C641.1,462.8,636.4,450.3,626.8,442.3z"/>
<path fill="#FFFFFF" stroke="#000000" stroke-width="0.7658" stroke-miterlimit="10" d="M611.3,220.2c-12.5,1.2-24.1,6.4-33.3,14.9
	c-2.6-2.7-6.1-4.7-10.2-5.6c-7.4-1.6-14.8,0.4-21.7,3.1c3.1-4,5.5-8.5,7-13.5c0.7-2.4,1.3-4.8,1.6-7.2c7.1-6.1,14.6-12.5,24-14.7
	c8-1.9,16.4-0.3,24,2.4c16.2,5.7,30.4,15.9,45.5,23.9C635.9,224.5,623.8,219,611.3,220.2z"/>
<path fill="#FFFFFF" stroke="#000000" stroke-width="0.7658" stroke-miterlimit="10" d="M293.5,168.3c-5.8-2.5-11.8-4.7-17.7-7.1
	c5.5,10.5,10.1,21.4,13.8,32.7c5.8-6.1,14-11.6,13.3-20.4c0-0.3,0-0.6,0.1-0.8C299.9,171.1,296.8,169.7,293.5,168.3z"/>
<path fill="#FFFFFF" stroke="#000000" stroke-width="0.7658" stroke-miterlimit="10" d="M181.9,262c-5.9,2.3-11.7,5.1-17.5,7.5
	c11.3,3.5,22.3,8,32.9,13.4c-0.3-8.4,1.8-18.1-5-23.8c-0.2-0.2-0.4-0.4-0.5-0.7C188.5,259.5,185.2,260.7,181.9,262z"/>
<path fill="#FFFFFF" stroke="#000000" stroke-width="0.7658" stroke-miterlimit="10" d="M169.3,407.2c-2.5,5.8-4.7,11.8-7.1,17.7
	c10.5-5.5,21.4-10.1,32.7-13.8c-6.1-5.8-11.6-14-20.4-13.3c-0.3,0-0.6,0-0.8-0.1C172.1,400.9,170.7,404,169.3,407.2z"/>
<path fill="#FFFFFF" stroke="#000000" stroke-width="0.7658" stroke-miterlimit="10" d="M263,518.9c2.3,5.9,5.1,11.7,7.5,17.5
	c3.5-11.3,8-22.3,13.4-32.9c-8.4,0.3-18.1-1.8-23.8,5c-0.2,0.2-0.4,0.4-0.7,0.5C260.5,512.3,261.7,515.6,263,518.9z"/>
<path fill="#FFFFFF" stroke="#000000" stroke-width="0.7658" stroke-miterlimit="10" d="M408.2,531.5c5.8,2.5,11.8,4.7,17.7,7.1
	c-5.5-10.5-10.1-21.4-13.8-32.7c-5.8,6.1-14,11.6-13.3,20.4c0,0.3,0,0.6-0.1,0.8C401.9,528.7,405,530.1,408.2,531.5z"/>
<path fill="#FFFFFF" stroke="#000000" stroke-width="0.7658" stroke-miterlimit="10" d="M519.9,437.8c5.9-2.3,11.7-5.1,17.5-7.5
	c-11.3-3.5-22.3-8-32.9-13.4c0.3,8.4-1.8,18.1,5,23.8c0.2,0.2,0.4,0.4,0.5,0.7C513.3,440.3,516.6,439.1,519.9,437.8z"/>
<path fill="#FFFFFF" stroke="#000000" stroke-width="0.7658" stroke-miterlimit="10" d="M532.5,292.5c2.5-5.8,4.7-11.8,7.1-17.7
	c-10.5,5.5-21.4,10.1-32.7,13.8c6.1,5.8,11.6,14,20.4,13.3c0.3,0,0.6,0,0.8,0.1C529.7,298.9,531.1,295.8,532.5,292.5z"/>
<path fill="#FFFFFF" stroke="#000000" stroke-width="0.7658" stroke-miterlimit="10" d="M438.8,180.9c-2.3-5.9-5.1-11.7-7.5-17.5
	c-3.5,11.3-8,22.3-13.4,32.9c8.4-0.3,18.1,1.8,23.8-5c0.2-0.2,0.4-0.4,0.7-0.5C441.3,187.5,440.1,184.2,438.8,180.9z"/>
<path fill="#FFFFFF" stroke="#000000" stroke-width="0.7658" stroke-miterlimit="10" d="M408.2,168.3c5.8-2.5,11.8-4.7,17.7-7.1
	c-5.5,10.5-10.1,21.4-13.8,32.7c-5.8-6.1-14-11.6-13.3-20.4c0-0.3,0-0.6-0.1-0.8C401.9,171.1,405,169.7,408.2,168.3z"/>
<path fill="#FFFFFF" stroke="#000000" stroke-width="0.7658" stroke-miterlimit="10" d="M263,180.9c2.3-5.9,5.1-11.7,7.5-17.5
	c3.5,11.3,8,22.3,13.4,32.9c-8.4-0.3-18.1,1.8-23.8-5c-0.2-0.2-0.4-0.4-0.7-0.5C260.5,187.5,261.7,184.2,263,180.9z"/>
<path fill="#FFFFFF" stroke="#000000" stroke-width="0.7658" stroke-miterlimit="10" d="M169.3,292.5c-2.5-5.8-4.7-11.8-7.1-17.7
	c10.5,5.5,21.4,10.1,32.7,13.8c-6.1,5.8-11.6,14-20.4,13.3c-0.3,0-0.6,0-0.8,0.1C172.1,298.9,170.7,295.8,169.3,292.5z"/>
<path fill="#FFFFFF" stroke="#000000" stroke-width="0.7658" stroke-miterlimit="10" d="M181.9,437.8c-5.9-2.3-11.7-5.1-17.5-7.5
	c11.3-3.5,22.3-8,32.9-13.4c-0.3,8.4,1.8,18.1-5,23.8c-0.2,0.2-0.4,0.4-0.5,0.7C188.5,440.3,185.2,439.1,181.9,437.8z"/>
<path fill="#FFFFFF" stroke="#000000" stroke-width="0.7658" stroke-miterlimit="10" d="M293.5,531.5c-5.8,2.5-11.8,4.7-17.7,7.1
	c5.5-10.5,10.1-21.4,13.8-32.7c5.8,6.1,14,11.6,13.3,20.4c0,0.3,0,0.6,0.1,0.8C299.9,528.7,296.8,530.1,293.5,531.5z"/>
<path fill="#FFFFFF" stroke="#000000" stroke-width="0.7658" stroke-miterlimit="10" d="M438.8,518.9c-2.3,5.9-5.1,11.7-7.5,17.5
	c-3.5-11.3-8-22.3-13.4-32.9c8.4,0.3,18.1-1.8,23.8,5c0.2,0.2,0.4,0.4,0.7,0.5C441.3,512.3,440.1,515.6,438.8,518.9z"/>
<path fill="#FFFFFF" stroke="#000000" stroke-width="0.7658" stroke-miterlimit="10" d="M532.5,407.2c2.5,5.8,4.7,11.8,7.1,17.7
	c-10.5-5.5-21.4-10.1-32.7-13.8c6.1-5.8,11.6-14,20.4-13.3c0.3,0,0.6,0,0.8-0.1C529.7,400.9,531.1,404,532.5,407.2z"/>
<path fill="#FFFFFF" stroke="#000000" stroke-width="0.7658" stroke-miterlimit="10" d="M519.9,262c5.9,2.3,11.7,5.1,17.5,7.5
	c-11.3,3.5-22.3,8-32.9,13.4c0.3-8.4-1.8-18.1,5-23.8c0.2-0.2,0.4-0.4,0.5-0.7C513.3,259.5,516.6,260.7,519.9,262z"/>
<path fill="#FFFFFF" stroke="#000000" stroke-width="0.7658" stroke-miterlimit="10" d="M295.7,152c1,0.4,2,0.8,3.1,1.1
	c-1.2-5.1-2.7-10.1-4.4-15.1c-2.2-6.2-4.7-12.7-8.9-17.9c-3.8-4.6-9.6-8.5-15.9-7.5c-5.1,0.8-8,4.2-8.9,8.6
	c1.6,5.3,3.3,10.5,5.2,15.7C275.2,143.3,285.2,148,295.7,152z"/>
<path fill="#FFFFFF" stroke="#000000" stroke-width="0.7658" stroke-miterlimit="10" d="M172,249c1-0.4,2-0.9,3-1.3
	c-4.5-2.7-9-5.3-13.8-7.5c-5.9-2.8-12.3-5.7-18.9-6.4c-6-0.6-12.8,0.8-16.5,6c-3,4.2-2.7,8.6-0.2,12.4c4.9,2.6,9.8,5.1,14.8,7.4
	C151.3,257.3,161.7,253.6,172,249z"/>
<path fill="#FFFFFF" stroke="#000000" stroke-width="0.7658" stroke-miterlimit="10" d="M153,405.1c0.4-1,0.8-2,1.1-3.1
	c-5.1,1.2-10.1,2.7-15.1,4.4c-6.2,2.2-12.7,4.7-17.9,8.9c-4.6,3.8-8.5,9.6-7.5,15.9c0.8,5.1,4.2,8,8.6,8.9
	c5.3-1.6,10.5-3.3,15.7-5.2C144.3,425.6,149,415.6,153,405.1z"/>
<path fill="#FFFFFF" stroke="#000000" stroke-width="0.7658" stroke-miterlimit="10" d="M250,528.8c-0.4-1-0.9-2-1.3-3
	c-2.7,4.5-5.3,9-7.5,13.8c-2.8,5.9-5.7,12.3-6.4,18.9c-0.6,6,0.8,12.8,6,16.5c4.2,3,8.6,2.7,12.4,0.2c2.6-4.9,5.1-9.8,7.4-14.8
	C258.3,549.5,254.6,539.1,250,528.8z"/>
<path fill="#FFFFFF" stroke="#000000" stroke-width="0.7658" stroke-miterlimit="10" d="M406.1,547.8c-1-0.4-2-0.8-3.1-1.1
	c1.2,5.1,2.7,10.1,4.4,15.1c2.2,6.2,4.7,12.7,8.9,17.9c3.8,4.6,9.6,8.5,15.9,7.5c5.1-0.8,8-4.2,8.9-8.6c-1.6-5.3-3.3-10.5-5.2-15.7
	C426.6,556.5,416.6,551.8,406.1,547.8z"/>
<path fill="#FFFFFF" stroke="#000000" stroke-width="0.7658" stroke-miterlimit="10" d="M529.8,450.8c-1,0.4-2,0.9-3,1.3
	c4.5,2.7,9,5.3,13.8,7.5c5.9,2.8,12.3,5.7,18.9,6.4c6,0.6,12.8-0.8,16.5-6c3-4.2,2.7-8.6,0.2-12.4c-4.9-2.6-9.8-5.1-14.8-7.4
	C550.5,442.5,540.1,446.2,529.8,450.8z"/>
<path fill="#FFFFFF" stroke="#000000" stroke-width="0.7658" stroke-miterlimit="10" d="M548.8,294.7c-0.4,1-0.8,2-1.1,3.1
	c5.1-1.2,10.1-2.7,15.1-4.4c6.2-2.2,12.7-4.7,17.9-8.9c4.6-3.8,8.5-9.6,7.5-15.9c-0.8-5.1-4.2-8-8.6-8.9c-5.3,1.6-10.5,3.3-15.7,5.2
	C557.5,274.2,552.8,284.2,548.8,294.7z"/>
<path fill="#FFFFFF" stroke="#000000" stroke-width="0.7658" stroke-miterlimit="10" d="M451.8,171c0.4,1,0.9,2,1.3,3
	c2.7-4.5,5.3-9,7.5-13.8c2.8-5.9,5.7-12.3,6.4-18.9c0.6-6-0.8-12.8-6-16.5c-4.2-3-8.6-2.7-12.4-0.2c-2.6,4.9-5.1,9.8-7.4,14.8
	C443.5,150.3,447.2,160.7,451.8,171z"/>
<path fill="#FFFFFF" stroke="#000000" stroke-width="0.7658" stroke-miterlimit="10" d="M406.1,152c-1,0.4-2,0.8-3.1,1.1
	c1.2-5.1,2.7-10.1,4.4-15.1c2.2-6.2,4.7-12.7,8.9-17.9c3.8-4.6,9.6-8.5,15.9-7.5c5.1,0.8,8,4.2,8.9,8.6c-1.6,5.3-3.3,10.5-5.2,15.7
	C426.6,143.3,416.6,148,406.1,152z"/>
<path fill="#FFFFFF" stroke="#000000" stroke-width="0.7658" stroke-miterlimit="10" d="M250,171c-0.4,1-0.9,2-1.3,3
	c-2.7-4.5-5.3-9-7.5-13.8c-2.8-5.9-5.7-12.3-6.4-18.9c-0.6-6,0.8-12.8,6-16.5c4.2-3,8.6-2.7,12.4-0.2c2.6,4.9,5.1,9.8,7.4,14.8
	C258.3,150.3,254.6,160.7,250,171z"/>
<path fill="#FFFFFF" stroke="#000000" stroke-width="0.7658" stroke-miterlimit="10" d="M153,294.7c0.4,1,0.8,2,1.1,3.1
	c-5.1-1.2-10.1-2.7-15.1-4.4c-6.2-2.2-12.7-4.7-17.9-8.9c-4.6-3.8-8.5-9.6-7.5-15.9c0.8-5.1,4.2-8,8.6-8.9
	c5.3,1.6,10.5,3.3,15.7,5.2C144.3,274.2,149,284.2,153,294.7z"/>
<path fill="#FFFFFF" stroke="#000000" stroke-width="0.7658" stroke-miterlimit="10" d="M172,450.8c1,0.4,2,0.9,3,1.3
	c-4.5,2.7-9,5.3-13.8,7.5c-5.9,2.8-12.3,5.7-18.9,6.4c-6,0.6-12.8-0.8-16.5-6c-3-4.2-2.7-8.6-0.2-12.4c4.9-2.6,9.8-5.1,14.8-7.4
	C151.3,442.5,161.7,446.2,172,450.8z"/>
<path fill="#FFFFFF" stroke="#000000" stroke-width="0.7658" stroke-miterlimit="10" d="M295.7,547.8c1-0.4,2-0.8,3.1-1.1
	c-1.2,5.1-2.7,10.1-4.4,15.1c-2.2,6.2-4.7,12.7-8.9,17.9c-3.8,4.6-9.6,8.5-15.9,7.5c-5.1-0.8-8-4.2-8.9-8.6
	c1.6-5.3,3.3-10.5,5.2-15.7C275.2,556.5,285.2,551.8,295.7,547.8z"/>
<path fill="#FFFFFF" stroke="#000000" stroke-width="0.7658" stroke-miterlimit="10" d="M451.8,528.8c0.4-1,0.9-2,1.3-3
	c2.7,4.5,5.3,9,7.5,13.8c2.8,5.9,5.7,12.3,6.4,18.9c0.6,6-0.8,12.8-6,16.5c-4.2,3-8.6,2.7-12.4,0.2c-2.6-4.9-5.1-9.8-7.4-14.8
	C443.5,549.5,447.2,539.1,451.8,528.8z"/>
<path fill="#FFFFFF" stroke="#000000" stroke-width="0.7658" stroke-miterlimit="10" d="M548.8,405.1c-0.4-1-0.8-2-1.1-3.1
	c5.1,1.2,10.1,2.7,15.1,4.4c6.2,2.2,12.7,4.7,17.9,8.9c4.6,3.8,8.5,9.6,7.5,15.9c-0.8,5.1-4.2,8-8.6,8.9c-5.3-1.6-10.5-3.3-15.7-5.2
	C557.5,425.6,552.8,415.6,548.8,405.1z"/>
<path fill="#FFFFFF" stroke="#000000" stroke-width="0.7658" stroke-miterlimit="10" d="M529.8,249c-1-0.4-2-0.9-3-1.3
	c4.5-2.7,9-5.3,13.8-7.5c5.9-2.8,12.3-5.7,18.9-6.4c6-0.6,12.8,0.8,16.5,6c3,4.2,2.7,8.6,0.2,12.4c-4.9,2.6-9.8,5.1-14.8,7.4
	C550.5,257.3,540.1,253.6,529.8,249z"/>
<path fill="#FFFFFF" stroke="#000000" stroke-width="0.7658" stroke-miterlimit="10" d="M255.8,120.3
	C255.8,120.4,255.8,120.4,255.8,120.3c0.1-0.1,0.1-0.2,0.2-0.3c1.4-5.7,5.6-9.6,10.7-11.2c-0.3-13.1-5.6-25.9-15-35.1
	c-6.8-6.7-15.6-11.1-22.5-17.6c-0.2,9.5-3.4,18.7-3.4,28.3c-0.1,13.2,5.2,25.9,14.2,35.5c4.7-2.5,10.5-2.7,15.5,0.4
	C255.6,120.3,255.7,120.3,255.8,120.3C255.8,120.4,255.8,120.4,255.8,120.3z"/>
<path fill="#FFFFFF" stroke="#000000" stroke-width="0.7658" stroke-miterlimit="10" d="M446,120.3C446,120.4,446,120.4,446,120.3
	c0.1,0,0.2-0.1,0.4-0.1c5-3.1,10.7-2.9,15.5-0.4c9-9.5,14.3-22.3,14.2-35.5c-0.1-9.6-3.2-18.8-3.4-28.3
	c-6.9,6.5-15.6,10.8-22.5,17.6c-9.4,9.3-14.7,22-15,35.1c5.1,1.6,9.3,5.5,10.7,11.2C445.9,120.1,445.9,120.2,446,120.3
	C446,120.4,446,120.4,446,120.3z"/>
<path fill="#FFFFFF" stroke="#000000" stroke-width="0.7658" stroke-miterlimit="10" d="M580.4,254.8
	C580.4,254.8,580.4,254.8,580.4,254.8c0.1,0.1,0.2,0.1,0.3,0.2c5.7,1.4,9.6,5.6,11.2,10.7c13.1-0.3,25.9-5.6,35.1-15
	c6.7-6.8,11.1-15.6,17.6-22.5c-9.5-0.2-18.7-3.4-28.3-3.4c-13.2-0.1-25.9,5.2-35.5,14.2c2.5,4.7,2.7,10.5-0.4,15.5
	C580.5,254.6,580.5,254.7,580.4,254.8C580.4,254.8,580.4,254.8,580.4,254.8z"/>
<path fill="#FFFFFF" stroke="#000000" stroke-width="0.7658" stroke-miterlimit="10" d="M580.4,445C580.4,445,580.4,445,580.4,445
	c0,0.1,0.1,0.2,0.1,0.4c3.1,5,2.9,10.7,0.4,15.5c9.5,9,22.3,14.3,35.5,14.2c9.6-0.1,18.8-3.2,28.3-3.4c-6.5-6.9-10.8-15.6-17.6-22.5
	c-9.3-9.4-22-14.7-35.1-15c-1.6,5.1-5.5,9.3-11.2,10.7C580.7,444.9,580.6,444.9,580.4,445C580.4,445,580.4,445,580.4,445z"/>
<path fill="#FFFFFF" stroke="#000000" stroke-width="0.7658" stroke-miterlimit="10" d="M446,579.4C446,579.4,446,579.4,446,579.4
	c-0.1,0.1-0.1,0.2-0.2,0.3c-1.4,5.7-5.6,9.6-10.7,11.2c0.3,13.1,5.6,25.9,15,35.1c6.8,6.7,15.6,11.1,22.5,17.6
	c0.2-9.5,3.4-18.7,3.4-28.3c0.1-13.2-5.2-25.9-14.2-35.5c-4.7,2.5-10.5,2.7-15.5-0.4C446.2,579.5,446.1,579.5,446,579.4
	C446,579.4,446,579.4,446,579.4z"/>
<path fill="#FFFFFF" stroke="#000000" stroke-width="0.7658" stroke-miterlimit="10" d="M255.8,579.4
	C255.8,579.4,255.8,579.4,255.8,579.4c-0.1,0-0.2,0.1-0.4,0.1c-5,3.1-10.7,2.9-15.5,0.4c-9,9.5-14.3,22.3-14.2,35.5
	c0.1,9.6,3.2,18.8,3.4,28.3c6.9-6.5,15.6-10.8,22.5-17.6c9.4-9.3,14.7-22,15-35.1c-5.1-1.6-9.3-5.5-10.7-11.2
	C255.9,579.7,255.9,579.6,255.8,579.4C255.8,579.4,255.8,579.4,255.8,579.4z"/>
<path fill="#FFFFFF" stroke="#000000" stroke-width="0.7658" stroke-miterlimit="10" d="M121.3,445C121.4,445,121.4,445,121.3,445
	c-0.1-0.1-0.2-0.1-0.3-0.2c-5.7-1.4-9.6-5.6-11.2-10.7c-13.1,0.3-25.9,5.6-35.1,15c-6.7,6.8-11.1,15.6-17.6,22.5
	c9.5,0.2,18.7,3.4,28.3,3.4c13.2,0.1,25.9-5.2,35.5-14.2c-2.5-4.7-2.7-10.5,0.4-15.5C121.3,445.2,121.3,445.1,121.3,445
	C121.4,445,121.4,445,121.3,445z"/>
<path fill="#FFFFFF" stroke="#000000" stroke-width="0.7658" stroke-miterlimit="10" d="M121.3,254.8
	C121.4,254.8,121.4,254.8,121.3,254.8c0-0.1-0.1-0.2-0.1-0.4c-3.1-5-2.9-10.7-0.4-15.5c-9.5-9-22.3-14.3-35.5-14.2
	c-9.6,0.1-18.8,3.2-28.3,3.4c6.5,6.9,10.8,15.6,17.6,22.5c9.3,9.4,22,14.7,35.1,15c1.6-5.1,5.5-9.3,11.2-10.7
	C121.1,254.9,121.2,254.9,121.3,254.8C121.4,254.8,121.4,254.8,121.3,254.8z"/>
</svg>
