<?xml version="1.0" encoding="utf-8"?>
<!-- Generator: Adobe Illustrator 18.0.0, SVG Export Plug-In . SVG Version: 6.00 Build 0)  -->
<!DOCTYPE svg PUBLIC "-//W3C//DTD SVG 1.1//EN" "http://www.w3.org/Graphics/SVG/1.1/DTD/svg11.dtd">
<svg version="1.1" id="Layer_1" xmlns="http://www.w3.org/2000/svg" xmlns:xlink="http://www.w3.org/1999/xlink" x="0px" y="0px"
	 viewBox="31 32 722.6 722.1" enable-background="new 31 32 722.6 722.1" xml:space="preserve">
<g id="design-freepik">
	<path fill="#FFFFFF" stroke="#000000" stroke-width="1.6368" stroke-miterlimit="10" d="M391,162.5c-6.6,0-13.2,0.8-19.2,2.5
		c-22.5,6.5-33.2,32-20.9,52.2c0.2,0.3,0.3,0.5,0.3,0.8c3.8,1.5,7.7,3.1,11.4,4.9c-3.2-6.8-4-14.6-2.1-22
		c3.7-14.2,16.8-22.8,30.5-23c13.6,0.1,26.7,8.7,30.5,23c1.9,7.4,1.1,15.2-2.1,22c3.7-1.8,7.6-3.4,11.4-4.9c0.1-0.3,0.1-0.5,0.3-0.8
		c12.3-20.3,1.6-45.9-20.9-52.2C404.2,163.3,397.6,162.5,391,162.5z"/>
	<path fill="#FFFFFF" stroke="#000000" stroke-width="1.6368" stroke-miterlimit="10" d="M553.3,229.7c-4.6-4.7-9.9-8.8-15.3-11.8
		c-20.5-11.3-46.1-0.9-51.7,22.2c-0.1,0.3-0.2,0.5-0.3,0.8c1.6,3.8,3.3,7.6,4.7,11.5c2.6-7.1,7.5-13.1,14.1-17
		c12.6-7.4,28-4.2,37.7,5.3c9.6,9.7,12.7,25.1,5.3,37.7c-3.8,6.6-10,11.5-17,14.1c3.9,1.4,7.7,3,11.5,4.7c0.2-0.1,0.5-0.3,0.8-0.3
		c23-5.6,33.5-31.3,22.2-51.7C562.1,239.6,558,234.4,553.3,229.7z"/>
	<path fill="#FFFFFF" stroke="#000000" stroke-width="1.6368" stroke-miterlimit="10" d="M620.6,392c0-6.6-0.8-13.2-2.5-19.2
		c-6.5-22.5-32-33.2-52.2-20.9c-0.3,0.2-0.5,0.3-0.8,0.3c-1.5,3.8-3.1,7.7-4.9,11.4c6.8-3.2,14.6-4,22-2.1
		c14.2,3.7,22.8,16.8,23,30.5c-0.1,13.6-8.7,26.7-23,30.5c-7.4,1.9-15.2,1.1-22-2.1c1.8,3.7,3.4,7.6,4.9,11.4
		c0.3,0.1,0.5,0.1,0.8,0.3c20.3,12.3,45.9,1.6,52.2-20.9C619.8,405.2,620.6,398.6,620.6,392z"/>
	<path fill="#FFFFFF" stroke="#000000" stroke-width="1.6368" stroke-miterlimit="10" d="M553.3,554.3c4.7-4.6,8.8-9.9,11.8-15.3
		c11.3-20.5,0.9-46.1-22.2-51.7c-0.3-0.1-0.5-0.2-0.8-0.3c-3.8,1.6-7.6,3.3-11.5,4.7c7.1,2.6,13.1,7.5,17,14.1
		c7.4,12.6,4.2,28-5.3,37.7c-9.7,9.6-25.1,12.7-37.7,5.3c-6.6-3.8-11.5-10-14.1-17c-1.4,3.9-3,7.7-4.7,11.5c0.1,0.2,0.3,0.5,0.3,0.8
		c5.6,23,31.3,33.5,51.7,22.2C543.4,563.1,548.7,559,553.3,554.3z"/>
	<path fill="#FFFFFF" stroke="#000000" stroke-width="1.6368" stroke-miterlimit="10" d="M391,621.6c6.6,0,13.2-0.8,19.2-2.5
		c22.5-6.5,33.2-32,20.9-52.2c-0.2-0.3-0.3-0.5-0.3-0.8c-3.8-1.5-7.7-3.1-11.4-4.9c3.2,6.8,4,14.6,2.1,22
		c-3.7,14.2-16.8,22.8-30.5,23c-13.6-0.1-26.7-8.7-30.5-23c-1.9-7.4-1.1-15.2,2.1-22c-3.7,1.8-7.6,3.4-11.4,4.9
		c-0.1,0.3-0.1,0.5-0.3,0.8c-12.3,20.3-1.6,45.9,20.9,52.2C377.8,620.8,384.4,621.6,391,621.6z"/>
	<path fill="#FFFFFF" stroke="#000000" stroke-width="1.6368" stroke-miterlimit="10" d="M228.7,554.3c4.6,4.7,9.9,8.8,15.3,11.8
		c20.5,11.3,46.1,0.9,51.7-22.2c0.1-0.3,0.2-0.5,0.3-0.8c-1.6-3.8-3.3-7.6-4.7-11.5c-2.6,7.1-7.5,13.1-14.1,17
		c-12.6,7.4-28,4.2-37.7-5.3c-9.6-9.7-12.7-25.1-5.3-37.7c3.8-6.6,10-11.5,17-14.1c-3.9-1.4-7.7-3-11.5-4.7
		c-0.2,0.1-0.5,0.3-0.8,0.3c-23,5.6-33.5,31.3-22.2,51.7C219.9,544.4,224.1,549.7,228.7,554.3z"/>
	<path fill="#FFFFFF" stroke="#000000" stroke-width="1.6368" stroke-miterlimit="10" d="M161.5,392c0,6.6,0.8,13.2,2.5,19.2
		c6.5,22.5,32,33.2,52.2,20.9c0.3-0.2,0.5-0.3,0.8-0.3c1.5-3.8,3.1-7.7,4.9-11.4c-6.8,3.2-14.6,4-22,2.1
		c-14.2-3.7-22.8-16.8-23-30.5c0.1-13.6,8.7-26.7,23-30.5c7.4-1.9,15.2-1.1,22,2.1c-1.8-3.7-3.4-7.6-4.9-11.4
		c-0.3-0.1-0.5-0.1-0.8-0.3c-20.3-12.3-45.9-1.6-52.2,20.9C162.3,378.8,161.5,385.4,161.5,392z"/>
	<path fill="#FFFFFF" stroke="#000000" stroke-width="1.6368" stroke-miterlimit="10" d="M228.7,229.7c-4.7,4.6-8.8,9.9-11.8,15.3
		c-11.3,20.5-0.9,46.1,22.2,51.7c0.3,0.1,0.5,0.2,0.8,0.3c3.8-1.6,7.6-3.3,11.5-4.7c-7.1-2.6-13.1-7.5-17-14.1
		c-7.4-12.6-4.2-28,5.3-37.7c9.7-9.6,25.1-12.7,37.7-5.3c6.6,3.8,11.5,10,14.1,17c1.4-3.9,3-7.7,4.7-11.5c-0.1-0.2-0.3-0.5-0.3-0.8
		c-5.6-23-31.3-33.5-51.7-22.2C238.6,220.9,233.4,225.1,228.7,229.7z"/>
	<path fill="#FFFFFF" stroke="#000000" stroke-width="1.6368" stroke-miterlimit="10" d="M391,79.7c-4.3,6.8-9.1,13.3-14.3,19.4
		c-5.5,6.4-11.5,12.4-16.4,19.2c-5.3,7.4-8.9,15.5-9.3,24.6c-0.5,8.7,1.5,17.5,4.9,25.5c4.8-3.8,10.6-6.6,16.7-8.1
		c-1.9-7.4-3.4-15.5,0.7-22.4c1.7-2.8,4.3-5.2,7.1-6.7c0.3-0.2,0.7-0.3,1-0.5c-6.9-12.4,5.8-25.6,7.5-37.9c0.1-1,1.1-1.6,2.1-1.6
		s1.9,0.5,2.1,1.6c1.6,12.3,14.4,25.4,7.5,37.9c0.3,0.1,0.7,0.3,1,0.5c3,1.5,5.5,3.9,7.1,6.7c4.1,6.9,2.6,15.1,0.7,22.4
		c6.2,1.5,11.9,4.3,16.7,8.1c3.4-8,5.3-16.8,4.9-25.5c-0.5-9.1-4.1-17.3-9.3-24.6c-4.9-6.9-10.9-12.8-16.4-19.2
		C400.1,93,395.4,86.5,391,79.7z"/>
	<path fill="#FFFFFF" stroke="#000000" stroke-width="1.6368" stroke-miterlimit="10" d="M611.9,171.2c-7.8,1.8-15.8,3-23.9,3.6
		c-8.4,0.6-16.8,0.6-25.2,1.9c-8.9,1.4-17.2,4.7-24,10.8c-6.5,5.8-11.3,13.4-14.6,21.4c6.1,0.7,12.2,2.8,17.5,6.1
		c3.8-6.5,8.5-13.4,16.3-15.3c3.2-0.8,6.7-0.7,9.8,0.3c0.3,0.1,0.8,0.3,1.1,0.4c3.9-13.6,22.2-14,32-21.4c0.8-0.6,1.9-0.3,2.5,0.3
		c0.7,0.7,1,1.7,0.3,2.5c-7.5,9.9-7.8,28.1-21.4,32c0.1,0.3,0.3,0.7,0.4,1.1c1,3.2,1.1,6.6,0.3,9.8c-2,7.8-8.8,12.4-15.3,16.3
		c3.3,5.4,5.4,11.4,6.1,17.5c8.1-3.3,15.6-8.1,21.4-14.6c6.1-6.8,9.3-15.1,10.8-24c1.4-8.3,1.3-16.8,1.9-25.2
		C608.9,187,610.1,179.1,611.9,171.2z"/>
	<path fill="#FFFFFF" stroke="#000000" stroke-width="1.6368" stroke-miterlimit="10" d="M703.4,392c-6.8-4.3-13.3-9.1-19.4-14.3
		c-6.4-5.5-12.4-11.5-19.2-16.4c-7.4-5.3-15.5-8.9-24.6-9.3c-8.7-0.5-17.5,1.5-25.5,4.9c3.8,4.8,6.6,10.6,8.1,16.7
		c7.4-1.9,15.5-3.4,22.4,0.7c2.8,1.7,5.2,4.3,6.7,7.1c0.2,0.3,0.3,0.7,0.5,1c12.4-6.9,25.6,5.8,37.9,7.5c1,0.1,1.6,1.1,1.6,2.1
		s-0.5,1.9-1.6,2.1c-12.3,1.6-25.4,14.4-37.9,7.5c-0.1,0.3-0.3,0.7-0.5,1c-1.5,3-3.9,5.5-6.7,7.1c-6.9,4.1-15.1,2.6-22.4,0.7
		c-1.5,6.2-4.3,11.9-8.1,16.7c8,3.4,16.8,5.3,25.5,4.9c9.1-0.5,17.3-4.1,24.6-9.3c6.9-4.9,12.8-10.9,19.2-16.4
		C690.1,401.1,696.5,396.4,703.4,392z"/>
	<path fill="#FFFFFF" stroke="#000000" stroke-width="1.6368" stroke-miterlimit="10" d="M611.9,612.9c-1.8-7.8-3-15.8-3.6-23.9
		c-0.6-8.4-0.6-16.8-1.9-25.2c-1.4-8.9-4.7-17.2-10.8-24c-5.8-6.5-13.4-11.3-21.4-14.6c-0.7,6.1-2.8,12.2-6.1,17.5
		c6.5,3.8,13.4,8.5,15.3,16.3c0.8,3.2,0.7,6.7-0.3,9.8c-0.1,0.3-0.3,0.8-0.4,1.1c13.6,3.9,14,22.2,21.4,32c0.6,0.8,0.3,1.9-0.3,2.5
		c-0.7,0.7-1.7,1-2.5,0.3c-9.9-7.5-28.1-7.8-32-21.4c-0.3,0.1-0.7,0.3-1.1,0.4c-3.2,1-6.6,1.1-9.8,0.3c-7.8-2-12.4-8.8-16.3-15.3
		c-5.4,3.3-11.4,5.4-17.5,6.1c3.3,8.1,8.1,15.6,14.6,21.4c6.8,6.1,15.1,9.3,24,10.8c8.3,1.4,16.8,1.3,25.2,1.9
		C596,609.9,604,611.1,611.9,612.9z"/>
	<path fill="#FFFFFF" stroke="#000000" stroke-width="1.6368" stroke-miterlimit="10" d="M391,704.4c4.3-6.8,9.1-13.3,14.3-19.4
		c5.5-6.4,11.5-12.4,16.4-19.2c5.3-7.4,8.9-15.5,9.3-24.6c0.5-8.7-1.5-17.5-4.9-25.5c-4.8,3.8-10.6,6.6-16.7,8.1
		c1.9,7.4,3.4,15.5-0.7,22.4c-1.7,2.8-4.3,5.2-7.1,6.7c-0.3,0.2-0.7,0.3-1,0.5c6.9,12.4-5.8,25.6-7.5,37.9c-0.1,1-1.1,1.6-2.1,1.6
		s-1.9-0.5-2.1-1.6c-1.6-12.3-14.4-25.4-7.5-37.9c-0.3-0.1-0.7-0.3-1-0.5c-3-1.5-5.5-3.9-7.1-6.7c-4.1-6.9-2.6-15.1-0.7-22.4
		c-6.2-1.5-11.9-4.3-16.7-8.1c-3.4,8-5.3,16.8-4.9,25.5c0.5,9.1,4.1,17.3,9.3,24.6c4.9,6.9,10.9,12.8,16.4,19.2
		C382,691.1,386.7,697.5,391,704.4z"/>
	<path fill="#FFFFFF" stroke="#000000" stroke-width="1.6368" stroke-miterlimit="10" d="M170.2,612.9c7.8-1.8,15.8-3,23.9-3.6
		c8.4-0.6,16.8-0.6,25.2-1.9c8.9-1.4,17.2-4.7,24-10.8c6.5-5.8,11.3-13.4,14.6-21.4c-6.1-0.7-12.2-2.8-17.5-6.1
		c-3.8,6.5-8.5,13.4-16.3,15.3c-3.2,0.8-6.7,0.7-9.8-0.3c-0.3-0.1-0.8-0.3-1.1-0.4c-3.9,13.6-22.2,14-32,21.4
		c-0.8,0.6-1.9,0.3-2.5-0.3c-0.7-0.7-1-1.7-0.3-2.5c7.5-9.9,7.8-28.1,21.4-32c-0.1-0.3-0.3-0.7-0.4-1.1c-1-3.2-1.1-6.6-0.3-9.8
		c2-7.8,8.8-12.4,15.3-16.3c-3.3-5.4-5.4-11.4-6.1-17.5c-8.1,3.3-15.6,8.1-21.4,14.6c-6.1,6.8-9.3,15.1-10.8,24
		c-1.4,8.3-1.3,16.8-1.9,25.2C173.2,597,171.9,605,170.2,612.9z"/>
	<path fill="#FFFFFF" stroke="#000000" stroke-width="1.6368" stroke-miterlimit="10" d="M78.7,392c6.8,4.3,13.3,9.1,19.4,14.3
		c6.4,5.5,12.4,11.5,19.2,16.4c7.4,5.3,15.5,8.9,24.6,9.3c8.7,0.5,17.5-1.5,25.5-4.9c-3.8-4.8-6.6-10.6-8.1-16.7
		c-7.4,1.9-15.5,3.4-22.4-0.7c-2.8-1.7-5.2-4.3-6.7-7.1c-0.2-0.3-0.3-0.7-0.5-1c-12.4,6.9-25.6-5.8-37.9-7.5c-1-0.1-1.6-1.1-1.6-2.1
		s0.5-1.9,1.6-2.1c12.3-1.6,25.4-14.4,37.9-7.5c0.1-0.3,0.3-0.7,0.5-1c1.5-3,3.9-5.5,6.7-7.1c6.9-4.1,15.1-2.6,22.4-0.7
		c1.5-6.2,4.3-11.9,8.1-16.7c-8-3.4-16.8-5.3-25.5-4.9c-9.1,0.5-17.3,4.1-24.6,9.3c-6.9,4.9-12.8,10.9-19.2,16.4
		C92,383,85.5,387.7,78.7,392z"/>
	<path fill="#FFFFFF" stroke="#000000" stroke-width="1.6368" stroke-miterlimit="10" d="M170.2,171.2c1.8,7.8,3,15.8,3.6,23.9
		c0.6,8.4,0.6,16.8,1.9,25.2c1.4,8.9,4.7,17.2,10.8,24c5.8,6.5,13.4,11.3,21.4,14.6c0.7-6.1,2.8-12.2,6.1-17.5
		c-6.5-3.8-13.4-8.5-15.3-16.3c-0.8-3.2-0.7-6.7,0.3-9.8c0.1-0.3,0.3-0.8,0.4-1.1c-13.6-3.9-14-22.2-21.4-32
		c-0.6-0.8-0.3-1.9,0.3-2.5c0.7-0.7,1.7-1,2.5-0.3c9.9,7.5,28.1,7.8,32,21.4c0.3-0.1,0.7-0.3,1.1-0.4c3.2-1,6.6-1.1,9.8-0.3
		c7.8,2,12.4,8.8,16.3,15.3c5.4-3.3,11.4-5.4,17.5-6.1c-3.3-8.1-8.1-15.6-14.6-21.4c-6.8-6.1-15.1-9.3-24-10.8
		c-8.3-1.4-16.8-1.3-25.2-1.9C186,174.2,178.1,172.9,170.2,171.2z"/>
	<path fill="#FFFFFF" stroke="#000000" stroke-width="1.6368" stroke-miterlimit="10" d="M391,273.9c-6,6.6-13.3,11.3-20.3,17
		c-3.8,3-7.2,6.6-8.6,11.4c-1.4,4.8-0.5,10,0.4,14.8c0.3,0.3,0.6,0.6,0.8,1.2c0.4,1.4,0.8,2.9,1.3,4.3c0.3,0.3,0.5,0.5,0.5,1
		c0.1,0.2,0.1,0.3,0.1,0.5c0.2,0.1,0.4,0.2,0.5,0.4c1.2,1.4,1.6,3,1.7,4.7c6.7,5.4,14.7,9.5,19.7,16.8c1.8,2.6,3,5.4,3.8,8.4
		c0.8-3,2.1-5.8,3.8-8.4c4.9-7.3,12.9-11.3,19.7-16.8c0.1-1.7,0.5-3.3,1.7-4.7c0.1-0.2,0.3-0.3,0.5-0.4c0.1-0.2,0.1-0.3,0.1-0.5
		c0.1-0.3,0.3-0.7,0.5-1c0.5-1.4,0.9-2.8,1.3-4.3c0.1-0.5,0.4-0.9,0.8-1.2c1-4.9,1.8-10,0.4-14.8c-1.4-4.8-4.8-8.3-8.6-11.4
		C404.4,285.3,397.1,280.6,391,273.9z M474.5,308.6c-8.9,0.4-17.5-1.4-26.3-2.3c-4.8-0.5-9.8-0.5-14.1,2c-4.4,2.5-7.4,6.7-10.2,10.8
		c0.1,0.4,0,0.9-0.3,1.4c-0.8,1.3-1.4,2.6-2.1,4c0,0.3-0.1,0.8-0.3,1c-0.1,0.1-0.2,0.3-0.3,0.5c0.1,0.2,0.1,0.4,0.1,0.7
		c-0.1,1.9-1,3.2-2.1,4.5c1,8.6,3.6,17.1,2.1,25.7c-0.5,3.1-1.7,5.9-3.2,8.6c2.7-1.5,5.6-2.6,8.6-3.2c8.7-1.6,17.2,1.1,25.7,2.1
		c1.3-1.2,2.7-2,4.5-2.1c0.2,0,0.5,0,0.7,0.1c0.1-0.1,0.3-0.2,0.5-0.3c0.3-0.2,0.7-0.3,1-0.3c1.3-0.7,2.7-1.4,4-2.1
		c0.5-0.3,1-0.3,1.4-0.3c4.1-2.7,8.3-5.8,10.8-10.2c2.4-4.3,2.5-9.3,2-14.1C475.9,326,474.2,317.5,474.5,308.6z M509.1,392
		c-6.6-6-11.3-13.3-17-20.3c-3-3.8-6.6-7.2-11.4-8.6c-4.8-1.4-10-0.5-14.8,0.4c-0.3,0.3-0.6,0.6-1.2,0.8c-1.4,0.4-2.9,0.8-4.3,1.3
		c-0.3,0.3-0.5,0.5-1,0.5c-0.2,0.1-0.3,0.1-0.5,0.1c-0.1,0.2-0.2,0.4-0.4,0.5c-1.4,1.2-3,1.6-4.7,1.7c-5.4,6.7-9.5,14.7-16.8,19.7
		c-2.6,1.8-5.4,3-8.4,3.8c3,0.8,5.8,2.1,8.4,3.8c7.3,4.9,11.3,12.9,16.8,19.7c1.7,0.1,3.3,0.5,4.7,1.7c0.2,0.1,0.3,0.3,0.4,0.5
		c0.2,0.1,0.3,0.1,0.5,0.1c0.3,0.1,0.7,0.3,1,0.5c1.4,0.5,2.8,0.9,4.3,1.3c0.5,0.1,0.9,0.4,1.2,0.8c4.9,1,10,1.8,14.8,0.4
		c4.8-1.4,8.3-4.8,11.4-8.6C497.7,405.4,502.5,398.1,509.1,392z M474.5,475.5c-0.4-8.9,1.4-17.5,2.3-26.3c0.5-4.8,0.5-9.8-2-14.1
		c-2.5-4.4-6.7-7.4-10.8-10.2c-0.4,0.1-0.9,0-1.4-0.3c-1.3-0.8-2.6-1.4-4-2.1c-0.3,0-0.8-0.1-1-0.3c-0.1-0.1-0.3-0.2-0.5-0.3
		c-0.2,0.1-0.4,0.1-0.7,0.1c-1.9-0.1-3.2-1-4.5-2.1c-8.6,1-17.1,3.6-25.7,2.1c-3.1-0.5-5.9-1.7-8.6-3.2c1.5,2.7,2.6,5.6,3.2,8.6
		c1.6,8.7-1.1,17.2-2.1,25.7c1.2,1.3,2,2.7,2.1,4.5c0,0.2,0,0.5-0.1,0.7c0.1,0.1,0.2,0.3,0.3,0.5c0.2,0.3,0.3,0.7,0.3,1
		c0.7,1.3,1.4,2.7,2.1,4c0.3,0.5,0.3,1,0.3,1.4c2.7,4.1,5.8,8.3,10.2,10.8c4.3,2.4,9.3,2.5,14.1,2
		C457.1,476.9,465.6,475.2,474.5,475.5z M391,510.1c6-6.6,13.3-11.3,20.3-17c3.8-3,7.2-6.6,8.6-11.4c1.4-4.8,0.5-10-0.4-14.8
		c-0.3-0.3-0.6-0.6-0.8-1.2c-0.4-1.4-0.8-2.9-1.3-4.3c-0.3-0.3-0.5-0.5-0.5-1c-0.1-0.2-0.1-0.3-0.1-0.5c-0.2-0.1-0.4-0.2-0.5-0.4
		c-1.2-1.4-1.6-3-1.7-4.7c-6.7-5.4-14.7-9.5-19.7-16.8c-1.8-2.6-3-5.4-3.8-8.4c-0.8,3-2.1,5.8-3.8,8.4c-4.9,7.3-12.9,11.3-19.7,16.8
		c-0.1,1.7-0.5,3.3-1.7,4.7c-0.1,0.2-0.3,0.3-0.5,0.4c-0.1,0.2-0.1,0.3-0.1,0.5c-0.1,0.3-0.3,0.7-0.5,1c-0.5,1.4-0.9,2.8-1.3,4.3
		c-0.1,0.5-0.4,0.9-0.8,1.2c-1,4.9-1.8,10-0.4,14.8c1.4,4.8,4.8,8.3,8.6,11.4C377.7,498.7,385,503.5,391,510.1z M307.6,475.5
		c8.9-0.4,17.5,1.4,26.3,2.3c4.8,0.5,9.8,0.5,14.1-2c4.4-2.5,7.4-6.7,10.2-10.8c-0.1-0.4,0-0.9,0.3-1.4c0.8-1.3,1.4-2.6,2.1-4
		c0-0.3,0.1-0.8,0.3-1c0.1-0.1,0.2-0.3,0.3-0.5c-0.1-0.2-0.1-0.4-0.1-0.7c0.1-1.9,1-3.2,2.1-4.5c-1-8.6-3.6-17.1-2.1-25.7
		c0.5-3.1,1.7-5.9,3.2-8.6c-2.7,1.5-5.6,2.6-8.6,3.2c-8.7,1.6-17.2-1.1-25.7-2.1c-1.3,1.2-2.7,2-4.5,2.1c-0.2,0-0.5,0-0.7-0.1
		c-0.1,0.1-0.3,0.2-0.5,0.3c-0.3,0.2-0.7,0.3-1,0.3c-1.3,0.7-2.7,1.4-4,2.1c-0.5,0.3-1,0.3-1.4,0.3c-4.1,2.7-8.3,5.8-10.8,10.2
		c-2.4,4.3-2.5,9.3-2,14.1C306.1,458.1,307.9,466.6,307.6,475.5z M272.9,392c6.6,6,11.3,13.3,17,20.3c3,3.8,6.6,7.2,11.4,8.6
		c4.8,1.4,10,0.5,14.8-0.4c0.3-0.3,0.6-0.6,1.2-0.8c1.4-0.4,2.9-0.8,4.3-1.3c0.3-0.3,0.5-0.5,1-0.5c0.2-0.1,0.3-0.1,0.5-0.1
		c0.1-0.2,0.2-0.4,0.4-0.5c1.4-1.2,3-1.6,4.7-1.7c5.4-6.7,9.5-14.7,16.8-19.7c2.6-1.8,5.4-3,8.4-3.8c-3-0.8-5.8-2.1-8.4-3.8
		c-7.3-4.9-11.3-12.9-16.8-19.7c-1.7-0.1-3.3-0.5-4.7-1.7c-0.2-0.1-0.3-0.3-0.4-0.5c-0.2-0.1-0.3-0.1-0.5-0.1
		c-0.3-0.1-0.7-0.3-1-0.5c-1.4-0.5-2.8-0.9-4.3-1.3c-0.5-0.1-0.9-0.4-1.2-0.8c-4.9-1-10-1.8-14.8-0.4c-4.8,1.4-8.3,4.8-11.4,8.6
		C284.3,378.7,279.6,386,272.9,392z M307.6,308.6c0.4,8.9-1.4,17.5-2.3,26.3c-0.5,4.8-0.5,9.8,2,14.1c2.5,4.4,6.7,7.4,10.8,10.2
		c0.4-0.1,0.9,0,1.4,0.3c1.3,0.8,2.6,1.4,4,2.1c0.3,0,0.8,0.1,1,0.3c0.1,0.1,0.3,0.2,0.5,0.3c0.2-0.1,0.4-0.1,0.7-0.1
		c1.9,0.1,3.2,1,4.5,2.1c8.6-1,17.1-3.6,25.7-2.1c3.1,0.5,5.9,1.7,8.6,3.2c-1.5-2.7-2.6-5.6-3.2-8.6c-1.6-8.7,1.1-17.2,2.1-25.7
		c-1.2-1.3-2-2.7-2.1-4.5c0-0.2,0-0.5,0.1-0.7c-0.1-0.1-0.2-0.3-0.3-0.5c-0.2-0.3-0.3-0.7-0.3-1c-0.7-1.3-1.4-2.7-2.1-4
		c-0.3-0.5-0.3-1-0.3-1.4c-2.7-4.1-5.8-8.3-10.2-10.8c-4.3-2.4-9.3-2.5-14.1-2C325,307.1,316.5,308.9,307.6,308.6z M391,328.7
		c-9,0-16.8-6-16.7-15.5c0.1-9,8.2-15.1,16.7-14.9c8.6-0.2,16.6,6,16.7,14.9C407.9,322.7,400,328.7,391,328.7z M435.9,347.2
		c-6.4-6.4-7.7-16.2-0.9-22.8c6.4-6.3,16.4-4.9,22.4,1.3c6.2,5.9,7.6,15.9,1.3,22.4C452,354.9,442.3,353.5,435.9,347.2z M454.4,392
		c0-9,6-16.8,15.5-16.7c9,0.1,15.1,8.2,14.9,16.7c0.2,8.6-6,16.6-14.9,16.7C460.4,408.9,454.4,401,454.4,392z M435.9,436.9
		c6.4-6.4,16.2-7.7,22.8-0.9c6.3,6.4,4.9,16.4-1.3,22.4c-5.9,6.2-15.9,7.6-22.4,1.3C428.2,453,429.5,443.3,435.9,436.9z M391,455.4
		c9,0,16.8,6,16.7,15.5c-0.1,9-8.2,15.1-16.7,14.9c-8.6,0.2-16.6-6-16.7-14.9C374.2,461.4,382,455.4,391,455.4z M346.2,436.9
		c6.4,6.4,7.7,16.2,0.9,22.8c-6.4,6.3-16.4,4.9-22.4-1.3c-6.2-5.9-7.6-15.9-1.3-22.4C330.1,429.2,339.8,430.5,346.2,436.9z
		 M327.7,392c0,9-6,16.8-15.5,16.7c-9-0.1-15.1-8.2-14.9-16.7c-0.2-8.6,6-16.6,14.9-16.7C321.7,375.2,327.7,383,327.7,392z
		 M346.2,347.2c-6.4,6.4-16.2,7.7-22.8,0.9c-6.3-6.4-4.9-16.4,1.3-22.4c5.9-6.2,15.9-7.6,22.4-1.3
		C353.9,331.1,352.5,340.8,346.2,347.2z"/>
	<path fill="#FFFFFF" stroke="#000000" stroke-width="1.6368" stroke-miterlimit="10" d="M391,209.7c-8.5,0.1-16.6-7.4-16.4-16.1
		c0.1-2.8,0.8-5.4,2.2-7.6c-4.9,3-9,7.6-11.1,13c-3.6,9.3-1.8,20.2,4.5,27.9c9.2,5.7,17.3,14,20.8,23.9c3.5-10,11.6-18.2,20.8-23.9
		c6.3-7.7,8.1-18.6,4.5-27.9c-2.1-5.4-6.1-9.9-11.1-13c1.4,2.2,2.1,4.7,2.2,7.6C407.6,202.3,399.6,209.8,391,209.7z"/>
	<path fill="#FFFFFF" stroke="#000000" stroke-width="1.6368" stroke-miterlimit="10" d="M519.9,263.1c-6-6-6.5-17-0.3-23
		c2-1.9,4.4-3.2,6.9-3.8c-5.6-1.4-11.8-1-17,1.3c-9.1,4.1-15.5,13.1-16.6,22.9c2.5,10.6,2.3,22.1-2.2,31.7
		c9.5-4.5,21.1-4.7,31.7-2.2c9.9-1,18.8-7.4,22.9-16.6c2.3-5.3,2.7-11.3,1.3-17c-0.6,2.5-1.9,4.9-3.8,6.9
		C536.9,269.6,525.9,269.2,519.9,263.1z"/>
	<path fill="#FFFFFF" stroke="#000000" stroke-width="1.6368" stroke-miterlimit="10" d="M573.4,392c-0.1-8.5,7.4-16.6,16.1-16.4
		c2.8,0.1,5.4,0.8,7.6,2.2c-3-4.9-7.6-9-13-11.1c-9.3-3.6-20.2-1.8-27.9,4.5c-5.7,9.2-14,17.3-23.9,20.8c10,3.5,18.2,11.6,23.9,20.8
		c7.7,6.3,18.6,8.1,27.9,4.5c5.4-2.1,9.9-6.1,13-11.1c-2.2,1.4-4.7,2.1-7.6,2.2C580.8,408.6,573.3,400.6,573.4,392z"/>
	<path fill="#FFFFFF" stroke="#000000" stroke-width="1.6368" stroke-miterlimit="10" d="M519.9,520.9c6-6,17-6.5,23-0.3
		c1.9,2,3.2,4.4,3.8,6.9c1.4-5.6,1-11.8-1.3-17c-4.1-9.1-13.1-15.5-22.9-16.6c-10.6,2.5-22.1,2.3-31.7-2.2
		c4.5,9.5,4.7,21.1,2.2,31.7c1,9.9,7.4,18.8,16.6,22.9c5.3,2.3,11.3,2.7,17,1.3c-2.5-0.6-4.9-1.9-6.9-3.8
		C513.5,537.9,513.9,526.9,519.9,520.9z"/>
	<path fill="#FFFFFF" stroke="#000000" stroke-width="1.6368" stroke-miterlimit="10" d="M391,574.4c8.5-0.1,16.6,7.4,16.4,16.1
		c-0.1,2.8-0.8,5.4-2.2,7.6c4.9-3,9-7.6,11.1-13c3.6-9.3,1.8-20.2-4.5-27.9c-9.2-5.7-17.3-14-20.8-23.9c-3.5,10-11.6,18.2-20.8,23.9
		c-6.3,7.7-8.1,18.6-4.5,27.9c2.1,5.4,6.1,9.9,11.1,13c-1.4-2.2-2.1-4.7-2.2-7.6C374.5,581.8,382.5,574.3,391,574.4z"/>
	<path fill="#FFFFFF" stroke="#000000" stroke-width="1.6368" stroke-miterlimit="10" d="M262.1,520.9c6,6,6.5,17,0.3,23
		c-2,1.9-4.4,3.2-6.9,3.8c5.6,1.4,11.8,1,17-1.3c9.1-4.1,15.5-13.1,16.6-22.9c-2.5-10.6-2.3-22.1,2.2-31.7
		c-9.5,4.5-21.1,4.7-31.7,2.2c-9.9,1-18.8,7.4-22.9,16.6c-2.3,5.3-2.7,11.3-1.3,17c0.6-2.5,1.9-4.9,3.8-6.9
		C245.2,514.5,256.2,514.9,262.1,520.9z"/>
	<path fill="#FFFFFF" stroke="#000000" stroke-width="1.6368" stroke-miterlimit="10" d="M208.7,392c0.1,8.5-7.4,16.6-16.1,16.4
		c-2.8-0.1-5.4-0.8-7.6-2.2c3,4.9,7.6,9,13,11.1c9.3,3.6,20.2,1.8,27.9-4.5c5.7-9.2,14-17.3,23.9-20.8c-10-3.5-18.2-11.6-23.9-20.8
		c-7.7-6.3-18.6-8.1-27.9-4.5c-5.4,2.1-9.9,6.1-13,11.1c2.2-1.4,4.7-2.1,7.6-2.2C201.3,375.5,208.8,383.5,208.7,392z"/>
	<path fill="#FFFFFF" stroke="#000000" stroke-width="1.6368" stroke-miterlimit="10" d="M262.1,263.1c-6,6-17,6.5-23,0.3
		c-1.9-2-3.2-4.4-3.8-6.9c-1.4,5.6-1,11.8,1.3,17c4.1,9.1,13.1,15.5,22.9,16.6c10.6-2.5,22.1-2.3,31.7,2.2
		c-4.5-9.5-4.7-21.1-2.2-31.7c-1-9.9-7.4-18.8-16.6-22.9c-5.3-2.3-11.3-2.7-17-1.3c2.5,0.6,4.9,1.9,6.9,3.8
		C268.6,246.2,268.2,257.2,262.1,263.1z"/>
	<path fill="#FFFFFF" stroke="#000000" stroke-width="1.6368" stroke-miterlimit="10" d="M391,133.8c-3.2,0-5.9-0.2-8.9,1.4
		c-2.4,1.3-4.4,3.4-5.6,5.8c-2.9,5.7-1.3,12.5,0.3,18.4c4.6-0.8,9.4-1.3,14.3-1.3c4.9,0,9.7,0.5,14.3,1.3c1.6-5.9,3.2-12.7,0.3-18.4
		c-1.2-2.5-3.2-4.5-5.6-5.8C397,133.6,394.3,133.8,391,133.8z"/>
	<path fill="#FFFFFF" stroke="#000000" stroke-width="1.6368" stroke-miterlimit="10" d="M573.6,209.5c-2.3-2.3-4.1-4.3-7.3-5.3
		c-2.6-0.8-5.5-0.8-8.1,0.1c-6,2-9.8,7.9-12.8,13.3c3.8,2.7,7.6,5.8,11,9.1c3.4,3.4,6.5,7.1,9.1,11c5.3-3.1,11.2-6.7,13.3-12.8
		c0.9-2.6,0.9-5.5,0.1-8.1C578,213.5,575.9,211.8,573.6,209.5z"/>
	<path fill="#FFFFFF" stroke="#000000" stroke-width="1.6368" stroke-miterlimit="10" d="M649.2,392c0-3.2,0.2-5.9-1.4-8.9
		c-1.3-2.4-3.4-4.4-5.8-5.6c-5.7-2.9-12.5-1.3-18.4,0.3c0.8,4.6,1.3,9.4,1.3,14.3c0,4.9-0.5,9.7-1.3,14.3c5.9,1.6,12.7,3.2,18.4,0.3
		c2.5-1.2,4.5-3.2,5.8-5.6C649.5,398,649.2,395.3,649.2,392z"/>
	<path fill="#FFFFFF" stroke="#000000" stroke-width="1.6368" stroke-miterlimit="10" d="M573.6,574.6c2.3-2.3,4.3-4.1,5.3-7.3
		c0.8-2.6,0.8-5.5-0.1-8.1c-2-6-7.9-9.8-13.3-12.8c-2.7,3.8-5.8,7.6-9.1,11c-3.4,3.4-7.1,6.5-11,9.1c3.1,5.3,6.7,11.2,12.8,13.3
		c2.6,0.9,5.5,0.9,8.1,0.1C569.6,579,571.3,576.9,573.6,574.6z"/>
	<path fill="#FFFFFF" stroke="#000000" stroke-width="1.6368" stroke-miterlimit="10" d="M391,650.2c3.2,0,5.9,0.2,8.9-1.4
		c2.4-1.3,4.4-3.4,5.6-5.8c2.9-5.7,1.3-12.5-0.3-18.4c-4.6,0.8-9.4,1.3-14.3,1.3c-4.9,0-9.7-0.5-14.3-1.3
		c-1.6,5.9-3.2,12.7-0.3,18.4c1.2,2.5,3.2,4.5,5.6,5.8C385.1,650.5,387.8,650.2,391,650.2z"/>
	<path fill="#FFFFFF" stroke="#000000" stroke-width="1.6368" stroke-miterlimit="10" d="M208.5,574.6c2.3,2.3,4.1,4.3,7.3,5.3
		c2.6,0.8,5.5,0.8,8.1-0.1c6-2,9.8-7.9,12.8-13.3c-3.8-2.7-7.6-5.8-11-9.1c-3.4-3.4-6.5-7.1-9.1-11c-5.3,3.1-11.2,6.7-13.3,12.8
		c-0.9,2.6-0.9,5.5-0.1,8.1C204.1,570.6,206.2,572.3,208.5,574.6z"/>
	<path fill="#FFFFFF" stroke="#000000" stroke-width="1.6368" stroke-miterlimit="10" d="M132.8,392c0,3.2-0.2,5.9,1.4,8.9
		c1.3,2.4,3.4,4.4,5.8,5.6c5.7,2.9,12.5,1.3,18.4-0.3c-0.8-4.6-1.3-9.4-1.3-14.3c0-4.9,0.5-9.7,1.3-14.3c-5.9-1.6-12.7-3.2-18.4-0.3
		c-2.5,1.2-4.5,3.2-5.8,5.6C132.6,386.1,132.8,388.8,132.8,392z"/>
	<path fill="#FFFFFF" stroke="#000000" stroke-width="1.6368" stroke-miterlimit="10" d="M208.5,209.5c-2.3,2.3-4.3,4.1-5.3,7.3
		c-0.8,2.6-0.8,5.5,0.1,8.1c2,6,7.9,9.8,13.3,12.8c2.7-3.8,5.8-7.6,9.1-11c3.4-3.4,7.1-6.5,11-9.1c-3.1-5.3-6.7-11.2-12.8-13.3
		c-2.6-0.9-5.5-0.9-8.1-0.1C212.5,205.1,210.8,207.2,208.5,209.5z"/>
	<path fill="#FFFFFF" stroke="#000000" stroke-width="1.6368" stroke-miterlimit="10" d="M391,377.7c-2,0-4,0.3-5.6,0.8
		c-1.5,0.8-3.2,2-4.5,3.4c-1.4,1.4-2.6,3.1-3.4,4.5c-0.5,1.6-0.8,3.6-0.8,5.6c0,2,0.3,4,0.8,5.6c0.8,1.5,2,3.2,3.4,4.5
		c1.4,1.4,3.1,2.6,4.5,3.4c1.6,0.5,3.6,0.8,5.6,0.8c2,0,4-0.3,5.6-0.8c1.5-0.8,3.2-2,4.5-3.4c1.4-1.4,2.6-3.1,3.4-4.5
		c0.5-1.6,0.8-3.6,0.8-5.6c0-2-0.3-4-0.8-5.6c-0.8-1.5-2-3.2-3.4-4.5c-1.4-1.4-3.1-2.6-4.5-3.4C395,378,393,377.7,391,377.7z
		 M389,387.2c0.1-0.1,0.1-0.1,0.3-0.1c0.6-0.2,1.2-0.3,1.8-0.3c0.5,0,1.2,0.1,1.8,0.3c0.1,0.1,0.1,0.1,0.3,0.1
		c0.1,0,0.1,0.1,0.3,0.1c0.5,0.3,1.1,0.6,1.5,1c0.4,0.4,0.8,0.9,1,1.5c0,0.1,0.1,0.1,0.1,0.3c0.1,0.1,0.1,0.1,0.1,0.3
		c0.2,0.6,0.3,1.2,0.3,1.8c0,0.5-0.1,1.2-0.3,1.8c-0.1,0.1-0.1,0.1-0.1,0.3c0,0.1-0.1,0.1-0.1,0.3c-0.3,0.5-0.6,1.1-1,1.5
		s-0.9,0.8-1.5,1c-0.1,0-0.1,0.1-0.3,0.1c-0.1,0.1-0.1,0.1-0.3,0.1c-0.6,0.2-1.2,0.3-1.8,0.3c-0.5,0-1.2-0.1-1.8-0.3
		c-0.1-0.1-0.1-0.1-0.3-0.1c-0.1,0-0.1-0.1-0.3-0.1c-0.5-0.3-1.1-0.6-1.5-1c-0.4-0.4-0.8-0.9-1-1.5c0-0.1-0.1-0.1-0.1-0.3
		c-0.1-0.1-0.1-0.1-0.1-0.3c-0.2-0.6-0.3-1.2-0.3-1.8c0-0.5,0.1-1.2,0.3-1.8c0.1-0.1,0.1-0.1,0.1-0.3c0-0.1,0.1-0.1,0.1-0.3
		c0.3-0.5,0.6-1.1,1-1.5c0.4-0.4,0.9-0.8,1.5-1C388.8,387.2,389,387.2,389,387.2z"/>
	<path fill="#FFFFFF" stroke="#000000" stroke-width="1.6368" stroke-miterlimit="10" d="M391,302.5c-6.2-0.1-12.3,4-12.4,10.6
		c-0.1,7.1,5.8,11.1,12.4,11.1s12.5-4,12.4-11.1C403.3,306.5,397.2,302.5,391,302.5z"/>
	<path fill="#FFFFFF" stroke="#000000" stroke-width="1.6368" stroke-miterlimit="10" d="M454.3,328.8c-4.3-4.5-11.5-5.9-16.3-1.3
		c-5.2,4.9-3.8,12,0.9,16.6c4.7,4.7,11.7,6,16.6,0.9C460.2,340.3,458.8,333.1,454.3,328.8z"/>
	<path fill="#FFFFFF" stroke="#000000" stroke-width="1.6368" stroke-miterlimit="10" d="M480.5,392c0.1-6.2-4-12.3-10.6-12.4
		c-7.1-0.1-11.1,5.8-11.1,12.4s4,12.5,11.1,12.4C476.6,404.3,480.6,398.2,480.5,392z"/>
	<path fill="#FFFFFF" stroke="#000000" stroke-width="1.6368" stroke-miterlimit="10" d="M454.3,455.3c4.5-4.3,5.9-11.5,1.3-16.3
		c-4.9-5.2-12-3.8-16.6,0.9c-4.7,4.7-6,11.7-0.9,16.6C442.8,461.2,450,459.8,454.3,455.3z"/>
	<path fill="#FFFFFF" stroke="#000000" stroke-width="1.6368" stroke-miterlimit="10" d="M391,481.5c6.2,0.1,12.3-4,12.4-10.6
		c0.1-7.1-5.8-11.1-12.4-11.1s-12.5,4-12.4,11.1C378.7,477.6,384.9,481.6,391,481.5z"/>
	<path fill="#FFFFFF" stroke="#000000" stroke-width="1.6368" stroke-miterlimit="10" d="M327.8,455.3c4.3,4.5,11.5,5.9,16.3,1.3
		c5.2-4.9,3.8-12-0.9-16.6c-4.7-4.7-11.7-6-16.6-0.9C321.9,443.8,323.3,451,327.8,455.3z"/>
	<path fill="#FFFFFF" stroke="#000000" stroke-width="1.6368" stroke-miterlimit="10" d="M301.5,392c-0.1,6.2,4,12.3,10.6,12.4
		c7.1,0.1,11.1-5.8,11.1-12.4s-4-12.5-11.1-12.4C305.5,379.7,301.5,385.9,301.5,392z"/>
	<path fill="#FFFFFF" stroke="#000000" stroke-width="1.6368" stroke-miterlimit="10" d="M327.8,328.8c-4.5,4.3-5.9,11.5-1.3,16.3
		c4.9,5.2,12,3.8,16.6-0.9c4.7-4.7,6-11.7,0.9-16.6C339.3,322.9,332.1,324.3,327.8,328.8z"/>
	<path fill="#FFFFFF" stroke="#000000" stroke-width="1.6368" stroke-miterlimit="10" d="M391,101.2c-3.8,9.4-10.7,19.7-5.2,28.5
		c1.6-0.2,3.4-0.1,5.2-0.2c1.9,0,3.5,0,5.2,0.2C401.8,120.8,394.9,110.7,391,101.2z"/>
	<path fill="#FFFFFF" stroke="#000000" stroke-width="1.6368" stroke-miterlimit="10" d="M596.7,186.4c-9.4,4-21.5,6.3-23.9,16.5
		c1.3,1,2.5,2.3,3.8,3.6c1.3,1.3,2.5,2.5,3.6,3.8C590.4,207.9,592.7,195.8,596.7,186.4z"/>
	<path fill="#FFFFFF" stroke="#000000" stroke-width="1.6368" stroke-miterlimit="10" d="M681.9,392c-9.4-3.8-19.7-10.7-28.5-5.2
		c0.2,1.6,0.1,3.4,0.2,5.2c0,1.9,0,3.5-0.2,5.2C662.2,402.8,672.4,395.9,681.9,392z"/>
	<path fill="#FFFFFF" stroke="#000000" stroke-width="1.6368" stroke-miterlimit="10" d="M596.7,597.7c-4-9.4-6.3-21.5-16.5-23.9
		c-1,1.3-2.3,2.5-3.6,3.8c-1.3,1.3-2.5,2.5-3.8,3.6C575.2,591.4,587.3,593.7,596.7,597.7z"/>
	<path fill="#FFFFFF" stroke="#000000" stroke-width="1.6368" stroke-miterlimit="10" d="M391,682.9c3.8-9.4,10.7-19.7,5.2-28.5
		c-1.6,0.2-3.4,0.1-5.2,0.2c-1.9,0-3.5,0-5.2-0.2C380.3,663.2,387.2,673.4,391,682.9z"/>
	<path fill="#FFFFFF" stroke="#000000" stroke-width="1.6368" stroke-miterlimit="10" d="M185.4,597.7c9.4-4,21.5-6.3,23.9-16.5
		c-1.3-1-2.5-2.3-3.8-3.6c-1.3-1.3-2.5-2.5-3.6-3.8C191.7,576.2,189.3,588.3,185.4,597.7z"/>
	<path fill="#FFFFFF" stroke="#000000" stroke-width="1.6368" stroke-miterlimit="10" d="M100.2,392c9.4,3.8,19.7,10.7,28.5,5.2
		c-0.2-1.6-0.1-3.4-0.2-5.2c0-1.9,0-3.5,0.2-5.2C119.8,381.3,109.7,388.2,100.2,392z"/>
	<path fill="#FFFFFF" stroke="#000000" stroke-width="1.6368" stroke-miterlimit="10" d="M185.4,186.4c4,9.4,6.3,21.5,16.5,23.9
		c1-1.3,2.3-2.5,3.6-3.8c1.3-1.3,2.5-2.5,3.8-3.6C206.9,192.7,194.8,190.3,185.4,186.4z"/>
	<path fill="#FFFFFF" stroke="#000000" stroke-width="1.6368" stroke-miterlimit="10" d="M391,183.3c-0.2,0-0.3,0-0.5,0
		c-6-0.2-11.5,4-11.6,10.4c-0.1,6.3,5.9,11.8,12.1,11.8c6.2,0,12.2-5.4,12.1-11.8c-0.1-6.5-5.6-10.7-11.6-10.4
		C391.4,183.3,391.2,183.3,391,183.3z"/>
	<path fill="#FFFFFF" stroke="#000000" stroke-width="1.6368" stroke-miterlimit="10" d="M538.6,244.4c-0.1-0.1-0.3-0.3-0.3-0.3
		c-4.1-4.5-10.9-5.4-15.5-0.9c-4.5,4.4-4.1,12.5,0.3,16.9c4.4,4.4,12.5,4.8,16.9,0.3c4.5-4.6,3.6-11.4-0.9-15.5
		C538.9,244.7,538.8,244.6,538.6,244.4z"/>
	<path fill="#FFFFFF" stroke="#000000" stroke-width="1.6368" stroke-miterlimit="10" d="M599.8,392c0-0.2,0-0.3,0-0.5
		c0.2-6-4-11.5-10.4-11.6c-6.3-0.1-11.8,5.9-11.8,12.1c0,6.2,5.4,12.2,11.8,12.1c6.5-0.1,10.7-5.6,10.4-11.6
		C599.8,392.4,599.8,392.2,599.8,392z"/>
	<path fill="#FFFFFF" stroke="#000000" stroke-width="1.6368" stroke-miterlimit="10" d="M538.6,539.6c0.1-0.1,0.3-0.3,0.3-0.3
		c4.5-4.1,5.4-10.9,0.9-15.5c-4.4-4.5-12.5-4.1-16.9,0.3c-4.4,4.4-4.8,12.5-0.3,16.9c4.6,4.5,11.4,3.6,15.5-0.9
		C538.4,539.9,538.5,539.8,538.6,539.6z"/>
	<path fill="#FFFFFF" stroke="#000000" stroke-width="1.6368" stroke-miterlimit="10" d="M391,600.8c0.2,0,0.3,0,0.5,0
		c6,0.2,11.5-4,11.6-10.4c0.1-6.3-5.9-11.8-12.1-11.8c-6.2,0-12.2,5.4-12.1,11.8c0.1,6.5,5.6,10.7,11.6,10.4
		C390.7,600.8,390.8,600.8,391,600.8z"/>
	<path fill="#FFFFFF" stroke="#000000" stroke-width="1.6368" stroke-miterlimit="10" d="M243.4,539.6c0.1,0.1,0.3,0.3,0.3,0.3
		c4.1,4.5,10.9,5.4,15.5,0.9c4.5-4.4,4.1-12.5-0.3-16.9c-4.4-4.4-12.5-4.8-16.9-0.3c-4.5,4.6-3.6,11.4,0.9,15.5
		C243.2,539.4,243.3,539.5,243.4,539.6z"/>
	<path fill="#FFFFFF" stroke="#000000" stroke-width="1.6368" stroke-miterlimit="10" d="M182.3,392c0,0.2,0,0.3,0,0.5
		c-0.2,6,4,11.5,10.4,11.6c6.3,0.1,11.8-5.9,11.8-12.1c0-6.2-5.4-12.2-11.8-12.1c-6.5,0.1-10.7,5.6-10.4,11.6
		C182.3,391.7,182.3,391.8,182.3,392z"/>
	<path fill="#FFFFFF" stroke="#000000" stroke-width="1.6368" stroke-miterlimit="10" d="M243.4,244.4c-0.1,0.1-0.3,0.3-0.3,0.3
		c-4.5,4.1-5.4,10.9-0.9,15.5c4.4,4.5,12.5,4.1,16.9-0.3c4.4-4.4,4.8-12.5,0.3-16.9c-4.6-4.5-11.4-3.6-15.5,0.9
		C243.7,244.2,243.6,244.3,243.4,244.4z"/>
	<path fill="#FFFFFF" stroke="#000000" stroke-width="1.6368" stroke-miterlimit="10" d="M383.1,372.8L383.1,372.8
		c1.4-0.8,3.4-1.9,5.2-2.7c0.2-8-0.5-16.6-5.6-23.1c-4.2-5.4-10.2-8.9-15.6-12.9c-1,6.7-2.7,13.4-1.9,20.1c1,8.2,6.5,14.8,12.4,20.3
		C379.3,373.8,381.5,373.3,383.1,372.8L383.1,372.8z"/>
	<path fill="#FFFFFF" stroke="#000000" stroke-width="1.6368" stroke-miterlimit="10" d="M399,372.8L399,372.8
		c1.6,0.5,3.8,1,5.6,1.8c5.8-5.6,11.3-12,12.4-20.3c0.8-6.7-0.9-13.4-1.9-20.1c-5.4,4-11.4,7.5-15.6,12.9
		c-5.2,6.5-5.8,15.1-5.6,23.1C395.6,370.8,397.6,372,399,372.8L399,372.8z"/>
	<path fill="#FFFFFF" stroke="#000000" stroke-width="1.6368" stroke-miterlimit="10" d="M410.3,384.1L410.3,384.1
		c0.8,1.4,1.9,3.4,2.7,5.2c8,0.2,16.6-0.5,23.1-5.6c5.4-4.2,8.9-10.2,12.9-15.6c-6.7-1-13.4-2.7-20.1-1.9c-8.2,1-14.8,6.5-20.3,12.4
		C409.3,380.3,409.8,382.5,410.3,384.1L410.3,384.1z"/>
	<path fill="#FFFFFF" stroke="#000000" stroke-width="1.6368" stroke-miterlimit="10" d="M410.3,400L410.3,400
		c-0.5,1.6-1,3.8-1.8,5.6c5.6,5.8,12,11.3,20.3,12.4c6.7,0.8,13.4-0.9,20.1-1.9c-4-5.4-7.5-11.4-12.9-15.6
		c-6.5-5.2-15.1-5.8-23.1-5.6C412.3,396.6,411,398.6,410.3,400L410.3,400z"/>
	<path fill="#FFFFFF" stroke="#000000" stroke-width="1.6368" stroke-miterlimit="10" d="M399,411.3L399,411.3
		c-1.4,0.8-3.4,1.9-5.2,2.7c-0.2,8,0.5,16.6,5.6,23.1c4.2,5.4,10.2,8.9,15.6,12.9c1-6.7,2.7-13.4,1.9-20.1
		c-1-8.2-6.5-14.8-12.4-20.3C402.8,410.3,400.6,410.8,399,411.3L399,411.3z"/>
	<path fill="#FFFFFF" stroke="#000000" stroke-width="1.6368" stroke-miterlimit="10" d="M383.1,411.3L383.1,411.3
		c-1.6-0.5-3.8-1-5.6-1.8c-5.8,5.6-11.3,12-12.4,20.3c-0.8,6.7,0.9,13.4,1.9,20.1c5.4-4,11.4-7.5,15.6-12.9
		c5.2-6.5,5.8-15.1,5.6-23.1C386.4,413.3,384.5,412,383.1,411.3L383.1,411.3z"/>
	<path fill="#FFFFFF" stroke="#000000" stroke-width="1.6368" stroke-miterlimit="10" d="M371.8,400L371.8,400
		c-0.8-1.4-1.9-3.4-2.7-5.2c-8-0.2-16.6,0.5-23.1,5.6c-5.4,4.2-8.9,10.2-12.9,15.6c6.7,1,13.4,2.7,20.1,1.9
		c8.2-1,14.8-6.5,20.3-12.4C372.8,403.8,372.3,401.6,371.8,400L371.8,400z"/>
	<path fill="#FFFFFF" stroke="#000000" stroke-width="1.6368" stroke-miterlimit="10" d="M371.8,384.1L371.8,384.1
		c0.5-1.6,1-3.8,1.8-5.6c-5.6-5.8-12-11.3-20.3-12.4c-6.7-0.8-13.4,0.9-20.1,1.9c4,5.4,7.5,11.4,12.9,15.6
		c6.5,5.2,15.1,5.8,23.1,5.6C369.8,387.4,371,385.5,371.8,384.1L371.8,384.1z"/>
	<path fill="#FFFFFF" stroke="#000000" stroke-width="1.6368" stroke-miterlimit="10" d="M377.6,251.3c-1.5,5.8-7.4,9.4-12.1,12.9
		c-6.5,4.6-13.2,9.5-16.8,16.7c3.8,7.7,6.7,15.7,8.8,24.1c0.1,0,0.1,0,0.1,0c0.6-5.2,2.5-10,6.8-14.2c3.6-3.6,8-6.3,12-9.3
		c4-3,7.8-6.3,11.1-10C387.7,263.2,383.4,256.7,377.6,251.3z"/>
	<path fill="#FFFFFF" stroke="#000000" stroke-width="1.6368" stroke-miterlimit="10" d="M282,302.1c3.1,5.2,1.5,11.8,0.5,17.6
		c-1.3,7.8-2.6,16-0.1,23.7c8.1,2.8,15.9,6.4,23.2,10.9l0.1-0.1c-3.2-4.1-5.2-8.9-5.2-14.8c0-5.1,1.2-10.1,1.9-15.1
		c0.7-4.9,1-10,0.8-14.9C297.5,303.4,289.9,301.7,282,302.1z"/>
	<path fill="#FFFFFF" stroke="#000000" stroke-width="1.6368" stroke-miterlimit="10" d="M250.3,405.5c5.8,1.5,9.4,7.4,12.9,12.1
		c4.6,6.5,9.5,13.2,16.7,16.8c7.7-3.8,15.7-6.7,24.1-8.8c0-0.1,0-0.1,0-0.1c-5.2-0.6-10-2.5-14.2-6.8c-3.6-3.6-6.3-8-9.3-12
		c-3-4-6.3-7.8-10-11.1C262.2,395.4,255.7,399.7,250.3,405.5z"/>
	<path fill="#FFFFFF" stroke="#000000" stroke-width="1.6368" stroke-miterlimit="10" d="M301.1,501.1c5.2-3.1,11.8-1.5,17.6-0.5
		c7.8,1.3,16,2.6,23.7,0.1c2.8-8.1,6.4-15.9,10.9-23.2l-0.1-0.1c-4.1,3.2-8.9,5.2-14.8,5.2c-5.1,0-10.1-1.2-15.1-1.9
		c-4.9-0.7-10-1-14.9-0.8C302.4,485.5,300.7,493.2,301.1,501.1z"/>
	<path fill="#FFFFFF" stroke="#000000" stroke-width="1.6368" stroke-miterlimit="10" d="M404.5,532.8c1.5-5.8,7.4-9.4,12.1-12.9
		c6.5-4.6,13.2-9.5,16.8-16.7c-3.8-7.7-6.7-15.7-8.8-24.1c-0.1,0-0.1,0-0.1,0c-0.6,5.2-2.5,10-6.8,14.2c-3.6,3.6-8,6.3-12,9.3
		c-4,3-7.8,6.3-11.1,10C394.4,520.9,398.7,527.4,404.5,532.8z"/>
	<path fill="#FFFFFF" stroke="#000000" stroke-width="1.6368" stroke-miterlimit="10" d="M500.1,482c-3.1-5.2-1.5-11.8-0.5-17.6
		c1.3-7.8,2.6-16,0.1-23.7c-8.1-2.8-15.9-6.4-23.2-10.9l-0.1,0.1c3.2,4.1,5.2,8.9,5.2,14.8c0,5.1-1.2,10.1-1.9,15.1
		c-0.7,4.9-1,10-0.8,14.9C484.5,480.7,492.2,482.4,500.1,482z"/>
	<path fill="#FFFFFF" stroke="#000000" stroke-width="1.6368" stroke-miterlimit="10" d="M531.8,378.6c-5.8-1.5-9.4-7.4-12.9-12.1
		c-4.6-6.5-9.5-13.2-16.7-16.8c-7.7,3.8-15.7,6.7-24.1,8.8c0,0.1,0,0.1,0,0.1c5.2,0.6,10,2.5,14.2,6.8c3.6,3.6,6.3,8,9.3,12
		c3,4,6.3,7.8,10,11.1C519.9,388.7,526.4,384.4,531.8,378.6z"/>
	<path fill="#FFFFFF" stroke="#000000" stroke-width="1.6368" stroke-miterlimit="10" d="M481,283c-5.2,3.1-11.8,1.5-17.6,0.5
		c-7.8-1.3-16-2.6-23.7-0.1c-2.8,8.1-6.4,15.9-10.9,23.2l0.1,0.1c4.1-3.2,8.9-5.2,14.8-5.2c5.1,0,10.1,1.2,15.1,1.9
		c4.9,0.7,10,1,14.9,0.8C479.7,298.5,481.4,290.9,481,283z"/>
	<path fill="#FFFFFF" stroke="#000000" stroke-width="1.6368" stroke-miterlimit="10" d="M404.5,251.3c1.5,5.8,7.4,9.4,12.1,12.9
		c6.5,4.6,13.2,9.5,16.8,16.7c-3.8,7.7-6.7,15.7-8.8,24.1c-0.1,0-0.1,0-0.1,0c-0.6-5.2-2.5-10-6.8-14.2c-3.6-3.6-8-6.3-12-9.3
		c-4-3-7.8-6.3-11.1-10C394.4,263.2,398.7,256.7,404.5,251.3z"/>
	<path fill="#FFFFFF" stroke="#000000" stroke-width="1.6368" stroke-miterlimit="10" d="M301.1,283c5.2,3.1,11.8,1.5,17.6,0.5
		c7.8-1.3,16-2.6,23.7-0.1c2.8,8.1,6.4,15.9,10.9,23.2l-0.1,0.1c-4.1-3.2-8.9-5.2-14.8-5.2c-5.1,0-10.1,1.2-15.1,1.9
		c-4.9,0.7-10,1-14.9,0.8C302.4,298.5,300.7,290.9,301.1,283z"/>
	<path fill="#FFFFFF" stroke="#000000" stroke-width="1.6368" stroke-miterlimit="10" d="M250.3,378.6c5.8-1.5,9.4-7.4,12.9-12.1
		c4.6-6.5,9.5-13.2,16.7-16.8c7.7,3.8,15.7,6.7,24.1,8.8c0,0.1,0,0.1,0,0.1c-5.2,0.6-10,2.5-14.2,6.8c-3.6,3.6-6.3,8-9.3,12
		c-3,4-6.3,7.8-10,11.1C262.2,388.7,255.7,384.4,250.3,378.6z"/>
	<path fill="#FFFFFF" stroke="#000000" stroke-width="1.6368" stroke-miterlimit="10" d="M282,482c3.1-5.2,1.5-11.8,0.5-17.6
		c-1.3-7.8-2.6-16-0.1-23.7c8.1-2.8,15.9-6.4,23.2-10.9l0.1,0.1c-3.2,4.1-5.2,8.9-5.2,14.8c0,5.1,1.2,10.1,1.9,15.1
		c0.7,4.9,1,10,0.8,14.9C297.5,480.7,289.9,482.4,282,482z"/>
	<path fill="#FFFFFF" stroke="#000000" stroke-width="1.6368" stroke-miterlimit="10" d="M377.6,532.8c-1.5-5.8-7.4-9.4-12.1-12.9
		c-6.5-4.6-13.2-9.5-16.8-16.7c3.8-7.7,6.7-15.7,8.8-24.1c0.1,0,0.1,0,0.1,0c0.6,5.2,2.5,10,6.8,14.2c3.6,3.6,8,6.3,12,9.3
		c4,3,7.8,6.3,11.1,10C387.7,520.9,383.4,527.4,377.6,532.8z"/>
	<path fill="#FFFFFF" stroke="#000000" stroke-width="1.6368" stroke-miterlimit="10" d="M481,501.1c-5.2-3.1-11.8-1.5-17.6-0.5
		c-7.8,1.3-16,2.6-23.7,0.1c-2.8-8.1-6.4-15.9-10.9-23.2l0.1-0.1c4.1,3.2,8.9,5.2,14.8,5.2c5.1,0,10.1-1.2,15.1-1.9
		c4.9-0.7,10-1,14.9-0.8C479.7,485.5,481.4,493.2,481,501.1z"/>
	<path fill="#FFFFFF" stroke="#000000" stroke-width="1.6368" stroke-miterlimit="10" d="M531.8,405.5c-5.8,1.5-9.4,7.4-12.9,12.1
		c-4.6,6.5-9.5,13.2-16.7,16.8c-7.7-3.8-15.7-6.7-24.1-8.8c0-0.1,0-0.1,0-0.1c5.2-0.6,10-2.5,14.2-6.8c3.6-3.6,6.3-8,9.3-12
		c3-4,6.3-7.8,10-11.1C519.9,395.4,526.4,399.7,531.8,405.5z"/>
	<path fill="#FFFFFF" stroke="#000000" stroke-width="1.6368" stroke-miterlimit="10" d="M500.1,302.1c-3.1,5.2-1.5,11.8-0.5,17.6
		c1.3,7.8,2.6,16,0.1,23.7c-8.1,2.8-15.9,6.4-23.2,10.9l-0.1-0.1c3.2-4.1,5.2-8.9,5.2-14.8c0-5.1-1.2-10.1-1.9-15.1
		c-0.7-4.9-1-10-0.8-14.9C484.5,303.4,492.2,301.7,500.1,302.1z"/>
	<path fill="#FFFFFF" stroke="#000000" stroke-width="1.6368" stroke-miterlimit="10" d="M318.3,216.4c0.5-0.2,1.2-0.2,1.9,0.1
		c8,3.7,16.4,6.5,24.5,10.1c7.5,3.4,14.7,7.2,21.7,11.5c8.3,5.2,17.4,11.5,22.1,20.1c-1.3-11.1-9.6-20.2-19.2-26.5
		c-0.5,0-1-0.2-1.4-0.7c-0.1-0.1-0.3-0.3-0.4-0.5c-2.3-1.4-4.6-2.7-6.9-3.8c-8.5-4.1-17.6-6.9-26.4-10.5c-7.1-3-14-6.4-20.4-10.7
		c-1.6,7.6-3.9,14.8-6.9,21.9c-3.6,8.7-8,17.1-11.2,26.1c-0.8,2.4-1.6,4.9-2.2,7.6c0,0.2,0.1,0.4,0.1,0.6c0.1,0.6-0.1,1.2-0.5,1.4
		c-2.3,11.3-1.8,23.5,5.2,32.3c-2.7-9.4-0.8-20.3,1.4-29.8c1.9-8,4.3-15.8,7.2-23.5c3.1-8.2,7.1-16.2,10.2-24.5
		C317.3,217.1,317.7,216.6,318.3,216.4z"/>
	<path fill="#FFFFFF" stroke="#000000" stroke-width="1.6368" stroke-miterlimit="10" d="M463.8,216.4c0.5,0.2,1,0.8,1.3,1.4
		c3.1,8.2,7.1,16.2,10.2,24.5c2.9,7.7,5.3,15.5,7.2,23.5c2.3,9.6,4.1,20.4,1.4,29.8c6.9-8.8,7.5-21,5.2-32.3
		c-0.3-0.3-0.5-0.8-0.5-1.4c0-0.2,0.1-0.4,0.1-0.6c-0.6-2.6-1.4-5.2-2.2-7.6c-3.2-8.9-7.6-17.4-11.2-26.1c-3-7.1-5.4-14.4-6.9-21.9
		c-6.5,4.2-13.3,7.7-20.4,10.7c-8.7,3.6-17.8,6.4-26.4,10.5c-2.3,1.1-4.6,2.4-6.9,3.8c-0.1,0.1-0.3,0.3-0.4,0.5
		c-0.4,0.5-0.9,0.7-1.4,0.7c-9.6,6.4-17.9,15.4-19.2,26.5c4.7-8.6,13.7-15,22.1-20.1c6.9-4.3,14.2-8.1,21.7-11.5
		c8-3.6,16.5-6.4,24.5-10.1C462.5,216.2,463.2,216.2,463.8,216.4z"/>
	<path fill="#FFFFFF" stroke="#000000" stroke-width="1.6368" stroke-miterlimit="10" d="M566.7,319.3c0.2,0.5,0.2,1.2-0.1,1.9
		c-3.7,8-6.5,16.4-10.1,24.5c-3.4,7.5-7.2,14.7-11.5,21.7c-5.2,8.3-11.5,17.4-20.1,22.1c11.1-1.3,20.2-9.6,26.5-19.2
		c0-0.5,0.2-1,0.7-1.4c0.1-0.1,0.3-0.3,0.5-0.4c1.4-2.3,2.7-4.6,3.8-6.9c4.1-8.5,6.9-17.6,10.5-26.4c3-7.1,6.4-14,10.7-20.4
		c-7.6-1.6-14.8-3.9-21.9-6.9c-8.7-3.6-17.1-8-26.1-11.2c-2.4-0.8-4.9-1.6-7.6-2.2c-0.2,0-0.4,0.1-0.6,0.1c-0.6,0.1-1.2-0.1-1.4-0.5
		c-11.3-2.3-23.5-1.8-32.3,5.2c9.4-2.7,20.3-0.8,29.8,1.4c8,1.9,15.8,4.3,23.5,7.2c8.2,3.1,16.2,7.1,24.5,10.2
		C566,318.3,566.5,318.7,566.7,319.3z"/>
	<path fill="#FFFFFF" stroke="#000000" stroke-width="1.6368" stroke-miterlimit="10" d="M566.7,464.8c-0.2,0.5-0.8,1-1.4,1.3
		c-8.2,3.1-16.2,7.1-24.5,10.2c-7.7,2.9-15.5,5.3-23.5,7.2c-9.6,2.3-20.4,4.1-29.8,1.4c8.8,6.9,21,7.5,32.3,5.2
		c0.3-0.3,0.8-0.5,1.4-0.5c0.2,0,0.4,0.1,0.6,0.1c2.6-0.6,5.2-1.4,7.6-2.2c8.9-3.2,17.4-7.6,26.1-11.2c7.1-3,14.4-5.4,21.9-6.9
		c-4.2-6.5-7.7-13.3-10.7-20.4c-3.6-8.7-6.4-17.8-10.5-26.4c-1.1-2.3-2.4-4.6-3.8-6.9c-0.1-0.1-0.3-0.3-0.5-0.4
		c-0.5-0.4-0.7-0.9-0.7-1.4c-6.4-9.6-15.4-17.9-26.5-19.2c8.6,4.7,15,13.7,20.1,22.1c4.3,6.9,8.1,14.2,11.5,21.7
		c3.6,8,6.4,16.5,10.1,24.5C566.9,463.5,566.9,464.2,566.7,464.8z"/>
	<path fill="#FFFFFF" stroke="#000000" stroke-width="1.6368" stroke-miterlimit="10" d="M463.8,567.7c-0.5,0.2-1.2,0.2-1.9-0.1
		c-8-3.7-16.4-6.5-24.5-10.1c-7.5-3.4-14.7-7.2-21.7-11.5c-8.3-5.2-17.4-11.5-22.1-20.1c1.3,11.1,9.6,20.2,19.2,26.5
		c0.5,0,1,0.2,1.4,0.7c0.1,0.1,0.3,0.3,0.4,0.5c2.3,1.4,4.6,2.7,6.9,3.8c8.5,4.1,17.6,6.9,26.4,10.5c7.1,3,14,6.4,20.4,10.7
		c1.6-7.6,3.9-14.8,6.9-21.9c3.6-8.7,8-17.1,11.2-26.1c0.8-2.4,1.6-4.9,2.2-7.6c0-0.2-0.1-0.4-0.1-0.6c-0.1-0.6,0.1-1.2,0.5-1.4
		c2.3-11.3,1.8-23.5-5.2-32.3c2.7,9.4,0.8,20.3-1.4,29.8c-1.9,8-4.3,15.8-7.2,23.5c-3.1,8.2-7.1,16.2-10.2,24.5
		C464.8,567,464.4,567.5,463.8,567.7z"/>
	<path fill="#FFFFFF" stroke="#000000" stroke-width="1.6368" stroke-miterlimit="10" d="M318.3,567.7c-0.5-0.2-1-0.8-1.3-1.4
		c-3.1-8.2-7.1-16.2-10.2-24.5c-2.9-7.7-5.3-15.5-7.2-23.5c-2.3-9.6-4.1-20.4-1.4-29.8c-6.9,8.8-7.5,21-5.2,32.3
		c0.3,0.3,0.5,0.8,0.5,1.4c0,0.2-0.1,0.4-0.1,0.6c0.6,2.6,1.4,5.2,2.2,7.6c3.2,8.9,7.6,17.4,11.2,26.1c3,7.1,5.4,14.4,6.9,21.9
		c6.5-4.2,13.3-7.7,20.4-10.7c8.7-3.6,17.8-6.4,26.4-10.5c2.3-1.1,4.6-2.4,6.9-3.8c0.1-0.1,0.3-0.3,0.4-0.5c0.4-0.5,0.9-0.7,1.4-0.7
		c9.6-6.4,17.9-15.4,19.2-26.5c-4.7,8.6-13.7,15-22.1,20.1c-6.9,4.3-14.2,8.1-21.7,11.5c-8,3.6-16.5,6.4-24.5,10.1
		C319.5,567.9,318.9,567.9,318.3,567.7z"/>
	<path fill="#FFFFFF" stroke="#000000" stroke-width="1.6368" stroke-miterlimit="10" d="M215.4,464.8c-0.2-0.5-0.2-1.2,0.1-1.9
		c3.7-8,6.5-16.4,10.1-24.5c3.4-7.5,7.2-14.7,11.5-21.7c5.2-8.3,11.5-17.4,20.1-22.1c-11.1,1.3-20.2,9.6-26.5,19.2
		c0,0.5-0.2,1-0.7,1.4c-0.1,0.1-0.3,0.3-0.5,0.4c-1.4,2.3-2.7,4.6-3.8,6.9c-4.1,8.5-6.9,17.6-10.5,26.4c-3,7.1-6.4,14-10.7,20.4
		c7.6,1.6,14.8,3.9,21.9,6.9c8.7,3.6,17.1,8,26.1,11.2c2.4,0.8,4.9,1.6,7.6,2.2c0.2,0,0.4-0.1,0.6-0.1c0.6-0.1,1.2,0.1,1.4,0.5
		c11.3,2.3,23.5,1.8,32.3-5.2c-9.4,2.7-20.3,0.8-29.8-1.4c-8-1.9-15.8-4.3-23.5-7.2c-8.2-3.1-16.2-7.1-24.5-10.2
		C216.1,465.8,215.6,465.4,215.4,464.8z"/>
	<path fill="#FFFFFF" stroke="#000000" stroke-width="1.6368" stroke-miterlimit="10" d="M215.4,319.3c0.2-0.5,0.8-1,1.4-1.3
		c8.2-3.1,16.2-7.1,24.5-10.2c7.7-2.9,15.5-5.3,23.5-7.2c9.6-2.3,20.4-4.1,29.8-1.4c-8.8-6.9-21-7.5-32.3-5.2
		c-0.3,0.3-0.8,0.5-1.4,0.5c-0.2,0-0.4-0.1-0.6-0.1c-2.6,0.6-5.2,1.4-7.6,2.2c-8.9,3.2-17.4,7.6-26.1,11.2c-7.1,3-14.4,5.4-21.9,6.9
		c4.2,6.5,7.7,13.3,10.7,20.4c3.6,8.7,6.4,17.8,10.5,26.4c1.1,2.3,2.4,4.6,3.8,6.9c0.1,0.1,0.3,0.3,0.5,0.4c0.5,0.4,0.7,0.9,0.7,1.4
		c6.4,9.6,15.4,17.9,26.5,19.2c-8.6-4.7-15-13.7-20.1-22.1c-4.3-6.9-8.1-14.2-11.5-21.7c-3.6-8-6.4-16.5-10.1-24.5
		C215.2,320.5,215.2,319.9,215.4,319.3z"/>
	<path fill="#FFFFFF" stroke="#000000" stroke-width="1.6368" stroke-miterlimit="10" d="M343.1,68.5c-1-4.8-0.5-10,2.7-14
		c2.9-3.5,7.8-5.5,12.3-4.3c4.6,1.2,7.4,5.5,8.1,10c0.9,5.8-1.8,11.1-4.5,16.1c0.1,0.2,0.2,0.3,0.3,0.5c1,2.5,1.6,4.9,1.8,7.4
		c3.6-6,6.9-12.4,9.3-19c2.2-6,4.7-13.5,3.5-20.1c-1.6-8.2-10-8.2-16.7-7.9c-7.1,0.3-14.6,1-20.8,5c-14.2,9.3-5.4,27.2-2.3,40.5
		C336.8,77,337.8,71.3,343.1,68.5z"/>
	<path fill="#FFFFFF" stroke="#000000" stroke-width="1.6368" stroke-miterlimit="10" d="M128.4,197.2c-4.1-2.7-7.5-6.7-8-11.8
		c-0.5-4.5,1.6-9.4,5.6-11.8c4.1-2.4,9.1-1.4,12.8,1.3c4.7,3.4,6.7,9.1,8.2,14.5c0.2,0.1,0.3,0.1,0.5,0.2c2.5,1,4.7,2.3,6.5,3.9
		c-1.7-6.9-3.8-13.6-6.8-20.1c-2.7-5.8-6.2-12.9-11.8-16.7c-6.9-4.7-12.9,1.2-17.4,6.2c-4.8,5.2-9.6,11.1-11.1,18.2
		c-3.4,16.7,15.5,23,26.9,30.3C129.9,207.7,126.5,202.9,128.4,197.2z"/>
	<path fill="#FFFFFF" stroke="#000000" stroke-width="1.6368" stroke-miterlimit="10" d="M67.5,440c-4.8,1-10,0.5-14-2.7
		c-3.5-2.9-5.5-7.8-4.3-12.3c1.2-4.6,5.5-7.4,10-8.1c5.8-0.9,11.1,1.8,16.1,4.5c0.2-0.1,0.3-0.2,0.5-0.3c2.5-1,4.9-1.6,7.4-1.8
		c-6-3.6-12.4-6.9-19-9.3c-6-2.2-13.5-4.7-20.1-3.5c-8.2,1.6-8.2,10-7.9,16.7c0.3,7.1,1,14.6,5,20.8c9.3,14.2,27.2,5.4,40.5,2.3
		C76,446.3,70.3,445.3,67.5,440z"/>
	<path fill="#FFFFFF" stroke="#000000" stroke-width="1.6368" stroke-miterlimit="10" d="M196.2,654.7c-2.7,4.1-6.7,7.5-11.8,8
		c-4.5,0.5-9.4-1.6-11.8-5.6c-2.4-4.1-1.4-9.1,1.3-12.8c3.4-4.7,9.1-6.7,14.5-8.2c0.1-0.2,0.1-0.3,0.2-0.5c1-2.5,2.3-4.7,3.9-6.5
		c-6.9,1.7-13.6,3.8-20.1,6.8c-5.8,2.7-12.9,6.2-16.7,11.8c-4.7,6.9,1.2,12.9,6.2,17.4c5.2,4.8,11.1,9.6,18.2,11.1
		c16.7,3.4,23-15.5,30.3-26.9C206.7,653.1,201.9,656.6,196.2,654.7z"/>
	<path fill="#FFFFFF" stroke="#000000" stroke-width="1.6368" stroke-miterlimit="10" d="M439,715.6c1,4.8,0.5,10-2.7,14
		c-2.9,3.5-7.8,5.5-12.3,4.3c-4.6-1.2-7.4-5.5-8.1-10c-0.9-5.8,1.8-11.1,4.5-16.1c-0.1-0.2-0.2-0.3-0.3-0.6c-1-2.5-1.6-4.9-1.8-7.4
		c-3.6,6-6.9,12.4-9.3,19c-2.2,6-4.7,13.5-3.5,20.1c1.6,8.2,10,8.2,16.7,7.9c7.1-0.3,14.6-1,20.8-5c14.2-9.3,5.4-27.2,2.3-40.5
		C445.3,707.1,444.3,712.8,439,715.6z"/>
	<path fill="#FFFFFF" stroke="#000000" stroke-width="1.6368" stroke-miterlimit="10" d="M653.7,586.9c4.1,2.7,7.5,6.7,8,11.8
		c0.5,4.5-1.6,9.4-5.6,11.8c-4.1,2.4-9.1,1.4-12.8-1.3c-4.7-3.4-6.7-9.1-8.2-14.5c-0.2-0.1-0.3-0.1-0.5-0.2c-2.5-1-4.7-2.3-6.5-3.9
		c1.7,6.9,3.8,13.6,6.8,20.1c2.7,5.8,6.2,12.9,11.8,16.7c6.9,4.7,12.9-1.2,17.4-6.2c4.8-5.2,9.6-11.1,11.1-18.2
		c3.4-16.7-15.5-23-26.9-30.3C652.1,576.4,655.6,581.2,653.7,586.9z"/>
	<path fill="#FFFFFF" stroke="#000000" stroke-width="1.6368" stroke-miterlimit="10" d="M714.6,344.1c4.8-1,10-0.5,14,2.7
		c3.5,2.9,5.5,7.8,4.3,12.3c-1.2,4.6-5.5,7.4-10,8.1c-5.8,0.9-11.1-1.8-16.1-4.5c-0.2,0.1-0.3,0.2-0.6,0.3c-2.5,1-4.9,1.6-7.4,1.8
		c6,3.6,12.4,6.9,19,9.3c6,2.2,13.5,4.7,20.1,3.5c8.2-1.6,8.2-10,7.9-16.7c-0.3-7.1-1-14.6-5-20.8c-9.3-14.2-27.2-5.4-40.5-2.3
		C706.1,337.8,711.8,338.8,714.6,344.1z"/>
	<path fill="#FFFFFF" stroke="#000000" stroke-width="1.6368" stroke-miterlimit="10" d="M585.9,129.4c2.7-4.1,6.7-7.5,11.8-8
		c4.5-0.5,9.4,1.6,11.8,5.6c2.4,4.1,1.4,9.1-1.3,12.8c-3.4,4.7-9.1,6.7-14.5,8.2c-0.1,0.2-0.1,0.3-0.2,0.5c-1,2.5-2.3,4.7-3.9,6.5
		c6.9-1.7,13.6-3.8,20.1-6.8c5.8-2.7,12.9-6.2,16.7-11.8c4.7-6.9-1.2-12.9-6.2-17.4c-5.2-4.8-11.1-9.6-18.2-11.1
		c-16.7-3.4-23,15.5-30.3,26.9C575.4,130.9,580.2,127.5,585.9,129.4z"/>
	<path fill="#FFFFFF" stroke="#000000" stroke-width="1.6368" stroke-miterlimit="10" d="M439,68.5c1-4.8,0.5-10-2.7-14
		c-2.9-3.5-7.8-5.5-12.3-4.3c-4.6,1.2-7.4,5.5-8.1,10c-0.9,5.8,1.8,11.1,4.5,16.1c-0.1,0.2-0.2,0.3-0.3,0.5c-1,2.5-1.6,4.9-1.8,7.4
		c-3.6-6-6.9-12.4-9.3-19c-2.2-6-4.7-13.5-3.5-20.1c1.6-8.2,10-8.2,16.7-7.9c7.1,0.3,14.6,1,20.8,5c14.2,9.3,5.4,27.2,2.3,40.5
		C445.3,77,444.3,71.3,439,68.5z"/>
	<path fill="#FFFFFF" stroke="#000000" stroke-width="1.6368" stroke-miterlimit="10" d="M196.2,129.4c-2.7-4.1-6.7-7.5-11.8-8
		c-4.5-0.5-9.4,1.6-11.8,5.6c-2.4,4.1-1.4,9.1,1.3,12.8c3.4,4.7,9.1,6.7,14.5,8.2c0.1,0.2,0.1,0.3,0.2,0.5c1,2.5,2.3,4.7,3.9,6.5
		c-6.9-1.7-13.6-3.8-20.1-6.8c-5.8-2.7-12.9-6.2-16.7-11.8c-4.7-6.9,1.2-12.9,6.2-17.4c5.2-4.8,11.1-9.6,18.2-11.1
		c16.7-3.4,23,15.5,30.3,26.9C206.7,130.9,201.9,127.5,196.2,129.4z"/>
	<path fill="#FFFFFF" stroke="#000000" stroke-width="1.6368" stroke-miterlimit="10" d="M67.5,344.1c-4.8-1-10-0.5-14,2.7
		c-3.5,2.9-5.5,7.8-4.3,12.3c1.2,4.6,5.5,7.4,10,8.1c5.8,0.9,11.1-1.8,16.1-4.5c0.2,0.1,0.3,0.2,0.5,0.3c2.5,1,4.9,1.6,7.4,1.8
		c-6,3.6-12.4,6.9-19,9.3c-6,2.2-13.5,4.7-20.1,3.5c-8.2-1.6-8.2-10-7.9-16.7c0.3-7.1,1-14.6,5-20.8c9.3-14.2,27.2-5.4,40.5-2.3
		C76,337.8,70.3,338.8,67.5,344.1z"/>
	<path fill="#FFFFFF" stroke="#000000" stroke-width="1.6368" stroke-miterlimit="10" d="M128.4,586.9c-4.1,2.7-7.5,6.7-8,11.8
		c-0.5,4.5,1.6,9.4,5.6,11.8c4.1,2.4,9.1,1.4,12.8-1.3c4.7-3.4,6.7-9.1,8.2-14.5c0.2-0.1,0.3-0.1,0.5-0.2c2.5-1,4.7-2.3,6.5-3.9
		c-1.7,6.9-3.8,13.6-6.8,20.1c-2.7,5.8-6.2,12.9-11.8,16.7c-6.9,4.7-12.9-1.2-17.4-6.2c-4.8-5.2-9.6-11.1-11.1-18.2
		c-3.4-16.7,15.5-23,26.9-30.3C129.9,576.4,126.5,581.2,128.4,586.9z"/>
	<path fill="#FFFFFF" stroke="#000000" stroke-width="1.6368" stroke-miterlimit="10" d="M343.1,715.6c-1,4.8-0.5,10,2.7,14
		c2.9,3.5,7.8,5.5,12.3,4.3c4.6-1.2,7.4-5.5,8.1-10c0.9-5.8-1.8-11.1-4.5-16.1c0.1-0.2,0.2-0.3,0.3-0.6c1-2.5,1.6-4.9,1.8-7.4
		c3.6,6,6.9,12.4,9.3,19c2.2,6,4.7,13.5,3.5,20.1c-1.6,8.2-10,8.2-16.7,7.9c-7.1-0.3-14.6-1-20.8-5c-14.2-9.3-5.4-27.2-2.3-40.5
		C336.8,707.1,337.8,712.8,343.1,715.6z"/>
	<path fill="#FFFFFF" stroke="#000000" stroke-width="1.6368" stroke-miterlimit="10" d="M585.9,654.7c2.7,4.1,6.7,7.5,11.8,8
		c4.5,0.5,9.4-1.6,11.8-5.6c2.4-4.1,1.4-9.1-1.3-12.8c-3.4-4.7-9.1-6.7-14.5-8.2c-0.1-0.2-0.1-0.3-0.2-0.5c-1-2.5-2.3-4.7-3.9-6.5
		c6.9,1.7,13.6,3.8,20.1,6.8c5.8,2.7,12.9,6.2,16.7,11.8c4.7,6.9-1.2,12.9-6.2,17.4c-5.2,4.8-11.1,9.6-18.2,11.1
		c-16.7,3.4-23-15.5-30.3-26.9C575.4,653.1,580.2,656.6,585.9,654.7z"/>
	<path fill="#FFFFFF" stroke="#000000" stroke-width="1.6368" stroke-miterlimit="10" d="M714.6,440c4.8,1,10,0.5,14-2.7
		c3.5-2.9,5.5-7.8,4.3-12.3c-1.2-4.6-5.5-7.4-10-8.1c-5.8-0.9-11.1,1.8-16.1,4.5c-0.2-0.1-0.3-0.2-0.6-0.3c-2.5-1-4.9-1.6-7.4-1.8
		c6-3.6,12.4-6.9,19-9.3c6-2.2,13.5-4.7,20.1-3.5c8.2,1.6,8.2,10,7.9,16.7c-0.3,7.1-1,14.6-5,20.8c-9.3,14.2-27.2,5.4-40.5,2.3
		C706.1,446.3,711.8,445.3,714.6,440z"/>
	<path fill="#FFFFFF" stroke="#000000" stroke-width="1.6368" stroke-miterlimit="10" d="M653.7,197.2c4.1-2.7,7.5-6.7,8-11.8
		c0.5-4.5-1.6-9.4-5.6-11.8c-4.1-2.4-9.1-1.4-12.8,1.3c-4.7,3.4-6.7,9.1-8.2,14.5c-0.2,0.1-0.3,0.1-0.5,0.2c-2.5,1-4.7,2.3-6.5,3.9
		c1.7-6.9,3.8-13.6,6.8-20.1c2.7-5.8,6.2-12.9,11.8-16.7c6.9-4.7,12.9,1.2,17.4,6.2c4.8,5.2,9.6,11.1,11.1,18.2
		c3.4,16.7-15.5,23-26.9,30.3C652.1,207.7,655.6,202.9,653.7,197.2z"/>
	<path fill="#FFFFFF" stroke="#000000" stroke-width="1.6368" stroke-miterlimit="10" d="M352.4,235.2c-0.1,9.6-9.3,14.3-14.6,21.3
		c1.9,4.4,3.6,8.9,5.2,13.5c0.1,0.1,0.1,0.1,0.1,0.1c1.5,1.8,2.6,3.8,3.4,5.9c2.7-4.2,6.3-7.8,10.4-10.9c2.9-2.3,5.9-4.3,8.9-6.5
		c3.4-2.4,7.6-5.3,7.8-9.8c0-0.3,0.1-0.5,0.1-0.7c-4.5-3.4-9.6-6.4-14-9C357.4,237.8,354.9,236.5,352.4,235.2z"/>
	<path fill="#FFFFFF" stroke="#000000" stroke-width="1.6368" stroke-miterlimit="10" d="M252.8,308.4c6.7,6.8,3.5,16.7,4.7,25.4
		c4.5,1.8,8.9,3.7,13.2,5.9c0.1,0,0.1,0,0.2,0c2.3,0.2,4.5,0.8,6.6,1.9c-1-4.9-1-10-0.3-15.1c0.5-3.6,1.1-7.2,1.7-10.9
		c0.7-4.1,1.7-9.1-1.4-12.4c-0.2-0.2-0.3-0.4-0.4-0.6c-5.6,0.8-11.3,2.2-16.2,3.6C258.2,306.8,255.5,307.6,252.8,308.4z"/>
	<path fill="#FFFFFF" stroke="#000000" stroke-width="1.6368" stroke-miterlimit="10" d="M234.2,430.7c9.6,0.1,14.3,9.3,21.3,14.6
		c4.4-1.9,8.9-3.6,13.5-5.2c0.1-0.1,0.1-0.1,0.1-0.1c1.8-1.5,3.8-2.6,5.9-3.4c-4.2-2.7-7.8-6.3-10.9-10.4c-2.3-2.9-4.3-5.9-6.5-8.9
		c-2.4-3.4-5.3-7.6-9.8-7.8c-0.3,0-0.5-0.1-0.7-0.1c-3.4,4.5-6.4,9.6-9,14C236.8,425.7,235.5,428.2,234.2,430.7z"/>
	<path fill="#FFFFFF" stroke="#000000" stroke-width="1.6368" stroke-miterlimit="10" d="M307.4,530.3c6.8-6.7,16.7-3.5,25.4-4.7
		c1.8-4.5,3.7-8.9,5.9-13.2c0-0.1,0-0.1,0-0.2c0.2-2.3,0.8-4.5,1.9-6.6c-4.9,1-10,1-15.1,0.3c-3.6-0.5-7.2-1.1-10.9-1.7
		c-4.1-0.7-9.1-1.7-12.4,1.4c-0.2,0.2-0.4,0.3-0.6,0.4c0.8,5.6,2.2,11.3,3.6,16.2C305.8,524.9,306.6,527.6,307.4,530.3z"/>
	<path fill="#FFFFFF" stroke="#000000" stroke-width="1.6368" stroke-miterlimit="10" d="M429.7,548.9c0.1-9.6,9.3-14.3,14.6-21.3
		c-1.9-4.4-3.6-8.9-5.2-13.5c-0.1-0.1-0.1-0.1-0.1-0.1c-1.5-1.8-2.6-3.8-3.4-5.9c-2.7,4.2-6.3,7.8-10.4,10.9
		c-2.9,2.3-5.9,4.3-8.9,6.5c-3.4,2.4-7.6,5.3-7.8,9.8c0,0.3-0.1,0.5-0.1,0.7c4.5,3.4,9.6,6.4,14,9
		C424.7,546.3,427.2,547.6,429.7,548.9z"/>
	<path fill="#FFFFFF" stroke="#000000" stroke-width="1.6368" stroke-miterlimit="10" d="M529.3,475.6c-6.7-6.8-3.5-16.7-4.7-25.4
		c-4.5-1.8-8.9-3.7-13.2-5.9c-0.1,0-0.1,0-0.2,0c-2.3-0.2-4.5-0.8-6.6-1.9c1,4.9,1,10,0.3,15.1c-0.5,3.6-1.1,7.2-1.7,10.9
		c-0.7,4.1-1.7,9.1,1.4,12.4c0.2,0.2,0.3,0.4,0.4,0.6c5.6-0.8,11.3-2.2,16.2-3.6C523.9,477.3,526.6,476.5,529.3,475.6z"/>
	<path fill="#FFFFFF" stroke="#000000" stroke-width="1.6368" stroke-miterlimit="10" d="M547.9,353.4c-9.6-0.1-14.3-9.3-21.3-14.6
		c-4.4,1.9-8.9,3.6-13.5,5.2c-0.1,0.1-0.1,0.1-0.1,0.1c-1.8,1.5-3.8,2.6-5.9,3.4c4.2,2.7,7.8,6.3,10.9,10.4c2.3,2.9,4.3,5.9,6.5,8.9
		c2.4,3.4,5.3,7.6,9.8,7.8c0.3,0,0.5,0.1,0.7,0.1c3.4-4.5,6.4-9.6,9-14C545.3,358.4,546.6,355.9,547.9,353.4z"/>
	<path fill="#FFFFFF" stroke="#000000" stroke-width="1.6368" stroke-miterlimit="10" d="M474.6,253.8c-6.8,6.7-16.7,3.5-25.4,4.7
		c-1.8,4.5-3.7,8.9-5.9,13.2c0,0.1,0,0.1,0,0.2c-0.2,2.3-0.8,4.5-1.9,6.6c4.9-1,10-1,15.1-0.3c3.6,0.5,7.2,1.1,10.9,1.7
		c4.1,0.7,9.1,1.7,12.4-1.4c0.2-0.2,0.4-0.3,0.6-0.4c-0.8-5.6-2.2-11.3-3.6-16.2C476.3,259.2,475.5,256.5,474.6,253.8z"/>
	<path fill="#FFFFFF" stroke="#000000" stroke-width="1.6368" stroke-miterlimit="10" d="M429.7,235.2c0.1,9.6,9.3,14.3,14.6,21.3
		c-1.9,4.4-3.6,8.9-5.2,13.5c-0.1,0.1-0.1,0.1-0.1,0.1c-1.5,1.8-2.6,3.8-3.4,5.9c-2.7-4.2-6.3-7.8-10.4-10.9
		c-2.9-2.3-5.9-4.3-8.9-6.5c-3.4-2.4-7.6-5.3-7.8-9.8c0-0.3-0.1-0.5-0.1-0.7c4.5-3.4,9.6-6.4,14-9
		C424.7,237.8,427.2,236.5,429.7,235.2z"/>
	<path fill="#FFFFFF" stroke="#000000" stroke-width="1.6368" stroke-miterlimit="10" d="M307.4,253.8c6.8,6.7,16.7,3.5,25.4,4.7
		c1.8,4.5,3.7,8.9,5.9,13.2c0,0.1,0,0.1,0,0.2c0.2,2.3,0.8,4.5,1.9,6.6c-4.9-1-10-1-15.1-0.3c-3.6,0.5-7.2,1.1-10.9,1.7
		c-4.1,0.7-9.1,1.7-12.4-1.4c-0.2-0.2-0.4-0.3-0.6-0.4c0.8-5.6,2.2-11.3,3.6-16.2C305.8,259.2,306.6,256.5,307.4,253.8z"/>
	<path fill="#FFFFFF" stroke="#000000" stroke-width="1.6368" stroke-miterlimit="10" d="M234.2,353.4c9.6-0.1,14.3-9.3,21.3-14.6
		c4.4,1.9,8.9,3.6,13.5,5.2c0.1,0.1,0.1,0.1,0.1,0.1c1.8,1.5,3.8,2.6,5.9,3.4c-4.2,2.7-7.8,6.3-10.9,10.4c-2.3,2.9-4.3,5.9-6.5,8.9
		c-2.4,3.4-5.3,7.6-9.8,7.8c-0.3,0-0.5,0.1-0.7,0.1c-3.4-4.5-6.4-9.6-9-14C236.8,358.4,235.5,355.9,234.2,353.4z"/>
	<path fill="#FFFFFF" stroke="#000000" stroke-width="1.6368" stroke-miterlimit="10" d="M252.8,475.6c6.7-6.8,3.5-16.7,4.7-25.4
		c4.5-1.8,8.9-3.7,13.2-5.9c0.1,0,0.1,0,0.2,0c2.3-0.2,4.5-0.8,6.6-1.9c-1,4.9-1,10-0.3,15.1c0.5,3.6,1.1,7.2,1.7,10.9
		c0.7,4.1,1.7,9.1-1.4,12.4c-0.2,0.2-0.3,0.4-0.4,0.6c-5.6-0.8-11.3-2.2-16.2-3.6C258.2,477.3,255.5,476.5,252.8,475.6z"/>
	<path fill="#FFFFFF" stroke="#000000" stroke-width="1.6368" stroke-miterlimit="10" d="M352.4,548.9c-0.1-9.6-9.3-14.3-14.6-21.3
		c1.9-4.4,3.6-8.9,5.2-13.5c0.1-0.1,0.1-0.1,0.1-0.1c1.5-1.8,2.6-3.8,3.4-5.9c2.7,4.2,6.3,7.8,10.4,10.9c2.9,2.3,5.9,4.3,8.9,6.5
		c3.4,2.4,7.6,5.3,7.8,9.8c0,0.3,0.1,0.5,0.1,0.7c-4.5,3.4-9.6,6.4-14,9C357.4,546.3,354.9,547.6,352.4,548.9z"/>
	<path fill="#FFFFFF" stroke="#000000" stroke-width="1.6368" stroke-miterlimit="10" d="M474.6,530.3c-6.8-6.7-16.7-3.5-25.4-4.7
		c-1.8-4.5-3.7-8.9-5.9-13.2c0-0.1,0-0.1,0-0.2c-0.2-2.3-0.8-4.5-1.9-6.6c4.9,1,10,1,15.1,0.3c3.6-0.5,7.2-1.1,10.9-1.7
		c4.1-0.7,9.1-1.7,12.4,1.4c0.2,0.2,0.4,0.3,0.6,0.4c-0.8,5.6-2.2,11.3-3.6,16.2C476.3,524.9,475.5,527.6,474.6,530.3z"/>
	<path fill="#FFFFFF" stroke="#000000" stroke-width="1.6368" stroke-miterlimit="10" d="M547.9,430.7c-9.6,0.1-14.3,9.3-21.3,14.6
		c-4.4-1.9-8.9-3.6-13.5-5.2c-0.1-0.1-0.1-0.1-0.1-0.1c-1.8-1.5-3.8-2.6-5.9-3.4c4.2-2.7,7.8-6.3,10.9-10.4c2.3-2.9,4.3-5.9,6.5-8.9
		c2.4-3.4,5.3-7.6,9.8-7.8c0.3,0,0.5-0.1,0.7-0.1c3.4,4.5,6.4,9.6,9,14C545.3,425.7,546.6,428.2,547.9,430.7z"/>
	<path fill="#FFFFFF" stroke="#000000" stroke-width="1.6368" stroke-miterlimit="10" d="M529.3,308.4c-6.7,6.8-3.5,16.7-4.7,25.4
		c-4.5,1.8-8.9,3.7-13.2,5.9c-0.1,0-0.1,0-0.2,0c-2.3,0.2-4.5,0.8-6.6,1.9c1-4.9,1-10,0.3-15.1c-0.5-3.6-1.1-7.2-1.7-10.9
		c-0.7-4.1-1.7-9.1,1.4-12.4c0.2-0.2,0.3-0.4,0.4-0.6c5.6,0.8,11.3,2.2,16.2,3.6C523.9,306.8,526.6,307.6,529.3,308.4z"/>
	<path fill="#FFFFFF" stroke="#000000" stroke-width="1.6368" stroke-miterlimit="10" d="M358.9,72.2c2.7-5.4,5.7-14-0.8-17.3
		c-3.2-1.6-7.1-0.1-9.2,2.6c-2.1,2.8-2.4,6.4-1.7,9.8C351.6,66.7,355.9,68.8,358.9,72.2z"/>
	<path fill="#FFFFFF" stroke="#000000" stroke-width="1.6368" stroke-miterlimit="10" d="M142.2,188.6c-1.9-5.7-5.8-13.9-12.8-11.7
		c-3.4,1.1-5.1,5-4.7,8.3c0.5,3.5,2.8,6.3,5.6,8.1C133.2,189.9,137.6,188.3,142.2,188.6z"/>
	<path fill="#FFFFFF" stroke="#000000" stroke-width="1.6368" stroke-miterlimit="10" d="M71.2,424.1c-5.4-2.7-14-5.7-17.3,0.8
		c-1.6,3.2-0.1,7.1,2.6,9.2c2.8,2.1,6.4,2.4,9.8,1.7C65.7,431.4,67.8,427.2,71.2,424.1z"/>
	<path fill="#FFFFFF" stroke="#000000" stroke-width="1.6368" stroke-miterlimit="10" d="M187.6,640.9c-5.7,1.9-13.9,5.8-11.7,12.8
		c1.1,3.4,5,5.1,8.3,4.7c3.5-0.5,6.3-2.8,8.1-5.6C188.9,649.9,187.3,645.4,187.6,640.9z"/>
	<path fill="#FFFFFF" stroke="#000000" stroke-width="1.6368" stroke-miterlimit="10" d="M423.1,711.9c-2.7,5.4-5.7,14,0.8,17.3
		c3.2,1.6,7.1,0.1,9.2-2.6c2.1-2.8,2.4-6.4,1.7-9.8C430.4,717.3,426.2,715.3,423.1,711.9z"/>
	<path fill="#FFFFFF" stroke="#000000" stroke-width="1.6368" stroke-miterlimit="10" d="M639.9,595.5c1.9,5.7,5.8,13.9,12.8,11.7
		c3.4-1.1,5.1-5,4.7-8.3c-0.5-3.5-2.8-6.3-5.6-8.1C648.9,594.2,644.4,595.7,639.9,595.5z"/>
	<path fill="#FFFFFF" stroke="#000000" stroke-width="1.6368" stroke-miterlimit="10" d="M710.9,359.9c5.4,2.7,14,5.7,17.3-0.8
		c1.6-3.2,0.1-7.1-2.6-9.2c-2.8-2.1-6.4-2.4-9.8-1.7C716.3,352.6,714.3,356.9,710.9,359.9z"/>
	<path fill="#FFFFFF" stroke="#000000" stroke-width="1.6368" stroke-miterlimit="10" d="M594.5,143.2c5.7-1.9,13.9-5.8,11.7-12.8
		c-1.1-3.4-5-5.1-8.3-4.7c-3.5,0.5-6.3,2.8-8.1,5.6C593.2,134.2,594.7,138.6,594.5,143.2z"/>
	<path fill="#FFFFFF" stroke="#000000" stroke-width="1.6368" stroke-miterlimit="10" d="M423.1,72.2c-2.7-5.4-5.7-14,0.8-17.3
		c3.2-1.6,7.1-0.1,9.2,2.6c2.1,2.8,2.4,6.4,1.7,9.8C430.4,66.7,426.2,68.8,423.1,72.2z"/>
	<path fill="#FFFFFF" stroke="#000000" stroke-width="1.6368" stroke-miterlimit="10" d="M187.6,143.2c-5.7-1.9-13.9-5.8-11.7-12.8
		c1.1-3.4,5-5.1,8.3-4.7c3.5,0.5,6.3,2.8,8.1,5.6C188.9,134.2,187.3,138.6,187.6,143.2z"/>
	<path fill="#FFFFFF" stroke="#000000" stroke-width="1.6368" stroke-miterlimit="10" d="M71.2,359.9c-5.4,2.7-14,5.7-17.3-0.8
		c-1.6-3.2-0.1-7.1,2.6-9.2c2.8-2.1,6.4-2.4,9.8-1.7C65.7,352.6,67.8,356.9,71.2,359.9z"/>
	<path fill="#FFFFFF" stroke="#000000" stroke-width="1.6368" stroke-miterlimit="10" d="M142.2,595.5c-1.9,5.7-5.8,13.9-12.8,11.7
		c-3.4-1.1-5.1-5-4.7-8.3c0.5-3.5,2.8-6.3,5.6-8.1C133.2,594.2,137.6,595.7,142.2,595.5z"/>
	<path fill="#FFFFFF" stroke="#000000" stroke-width="1.6368" stroke-miterlimit="10" d="M358.9,711.9c2.7,5.4,5.7,14-0.8,17.3
		c-3.2,1.6-7.1,0.1-9.2-2.6c-2.1-2.8-2.4-6.4-1.7-9.8C351.6,717.3,355.9,715.3,358.9,711.9z"/>
	<path fill="#FFFFFF" stroke="#000000" stroke-width="1.6368" stroke-miterlimit="10" d="M594.5,640.9c5.7,1.9,13.9,5.8,11.7,12.8
		c-1.1,3.4-5,5.1-8.3,4.7c-3.5-0.5-6.3-2.8-8.1-5.6C593.2,649.9,594.7,645.4,594.5,640.9z"/>
	<path fill="#FFFFFF" stroke="#000000" stroke-width="1.6368" stroke-miterlimit="10" d="M710.9,424.1c5.4-2.7,14-5.7,17.3,0.8
		c1.6,3.2,0.1,7.1-2.6,9.2c-2.8,2.1-6.4,2.4-9.8,1.7C716.3,431.4,714.3,427.2,710.9,424.1z"/>
	<path fill="#FFFFFF" stroke="#000000" stroke-width="1.6368" stroke-miterlimit="10" d="M639.9,188.6c1.9-5.7,5.8-13.9,12.8-11.7
		c3.4,1.1,5.1,5,4.7,8.3c-0.5,3.5-2.8,6.3-5.6,8.1C648.9,189.9,644.4,188.3,639.9,188.6z"/>
	<path fill="#FFFFFF" stroke="#000000" stroke-width="1.6368" stroke-miterlimit="10" d="M348.2,107.7c2.6-3.9,5.3-7.8,7.9-11.8
		c3.6-5.7,4.5-12.2,1.3-18.4c-3.4-6.5-14-9.1-15.9-0.1c-0.8,3.8-0.2,7.9-0.1,11.7c0.1,3.9,0.1,7.9,0.1,11.9c0,6-0.1,12.2-0.4,18.2
		C343.2,115.3,345.7,111.5,348.2,107.7z"/>
	<path fill="#FFFFFF" stroke="#000000" stroke-width="1.6368" stroke-miterlimit="10" d="M159.7,221.3c-1-4.6-1.8-9.3-2.7-13.9
		c-1.4-6.6-5.4-11.9-12.1-14c-6.9-2.2-16.4,3.4-11.3,11.3c2.1,3.2,5.4,5.8,8.2,8.4c2.9,2.7,5.7,5.5,8.5,8.3
		c4.3,4.3,8.5,8.7,12.6,13.2C161.6,230.2,160.6,225.7,159.7,221.3z"/>
	<path fill="#FFFFFF" stroke="#000000" stroke-width="1.6368" stroke-miterlimit="10" d="M106.7,434.9c-3.9-2.6-7.8-5.3-11.8-7.9
		c-5.7-3.6-12.2-4.5-18.4-1.3c-6.5,3.4-9.1,14-0.1,15.9c3.8,0.8,7.9,0.2,11.7,0.1c3.9-0.1,7.9-0.1,11.9-0.1c6,0,12.2,0.1,18.2,0.4
		C114.3,439.9,110.5,437.3,106.7,434.9z"/>
	<path fill="#FFFFFF" stroke="#000000" stroke-width="1.6368" stroke-miterlimit="10" d="M220.3,623.4c-4.6,1-9.3,1.8-13.9,2.7
		c-6.6,1.4-11.9,5.4-14,12.1c-2.2,6.9,3.4,16.4,11.3,11.3c3.2-2.1,5.8-5.4,8.4-8.2c2.7-2.9,5.5-5.7,8.3-8.5
		c4.3-4.3,8.7-8.5,13.2-12.6C229.2,621.5,224.7,622.5,220.3,623.4z"/>
	<path fill="#FFFFFF" stroke="#000000" stroke-width="1.6368" stroke-miterlimit="10" d="M433.9,676.4c-2.6,3.9-5.3,7.8-7.9,11.8
		c-3.6,5.7-4.5,12.2-1.3,18.4c3.4,6.5,14,9.1,15.9,0.1c0.8-3.8,0.2-7.9,0.1-11.7c-0.1-3.9-0.1-7.9-0.1-11.9c0-6,0.1-12.2,0.4-18.2
		C438.9,668.7,436.3,672.6,433.9,676.4z"/>
	<path fill="#FFFFFF" stroke="#000000" stroke-width="1.6368" stroke-miterlimit="10" d="M622.4,562.8c1,4.6,1.8,9.3,2.7,13.9
		c1.4,6.6,5.4,11.9,12.1,14c6.9,2.2,16.4-3.4,11.3-11.3c-2.1-3.2-5.4-5.8-8.2-8.4c-2.9-2.7-5.7-5.5-8.5-8.3
		c-4.3-4.3-8.5-8.7-12.6-13.2C620.5,553.9,621.5,558.3,622.4,562.8z"/>
	<path fill="#FFFFFF" stroke="#000000" stroke-width="1.6368" stroke-miterlimit="10" d="M675.4,349.2c3.9,2.6,7.8,5.3,11.8,7.9
		c5.7,3.6,12.2,4.5,18.4,1.3c6.5-3.4,9.1-14,0.1-15.9c-3.8-0.8-7.9-0.2-11.7-0.1c-3.9,0.1-7.9,0.1-11.9,0.1c-6,0-12.2-0.1-18.2-0.4
		C667.7,344.2,671.6,346.7,675.4,349.2z"/>
	<path fill="#FFFFFF" stroke="#000000" stroke-width="1.6368" stroke-miterlimit="10" d="M561.8,160.7c4.6-1,9.3-1.8,13.9-2.7
		c6.6-1.4,11.9-5.4,14-12.1c2.2-6.9-3.4-16.4-11.3-11.3c-3.2,2.1-5.8,5.4-8.4,8.2c-2.7,2.9-5.5,5.7-8.3,8.5
		c-4.3,4.3-8.7,8.5-13.2,12.6C552.9,162.6,557.3,161.6,561.8,160.7z"/>
	<path fill="#FFFFFF" stroke="#000000" stroke-width="1.6368" stroke-miterlimit="10" d="M433.9,107.7c-2.6-3.9-5.3-7.8-7.9-11.8
		c-3.6-5.7-4.5-12.2-1.3-18.4c3.4-6.5,14-9.1,15.9-0.1c0.8,3.8,0.2,7.9,0.1,11.7c-0.1,3.9-0.1,7.9-0.1,11.9c0,6,0.1,12.2,0.4,18.2
		C438.9,115.3,436.3,111.5,433.9,107.7z"/>
	<path fill="#FFFFFF" stroke="#000000" stroke-width="1.6368" stroke-miterlimit="10" d="M220.3,160.7c-4.6-1-9.3-1.8-13.9-2.7
		c-6.6-1.4-11.9-5.4-14-12.1c-2.2-6.9,3.4-16.4,11.3-11.3c3.2,2.1,5.8,5.4,8.4,8.2c2.7,2.9,5.5,5.7,8.3,8.5
		c4.3,4.3,8.7,8.5,13.2,12.6C229.2,162.6,224.7,161.6,220.3,160.7z"/>
	<path fill="#FFFFFF" stroke="#000000" stroke-width="1.6368" stroke-miterlimit="10" d="M106.7,349.2c-3.9,2.6-7.8,5.3-11.8,7.9
		c-5.7,3.6-12.2,4.5-18.4,1.3c-6.5-3.4-9.1-14-0.1-15.9c3.8-0.8,7.9-0.2,11.7-0.1c3.9,0.1,7.9,0.1,11.9,0.1c6,0,12.2-0.1,18.2-0.4
		C114.3,344.2,110.5,346.7,106.7,349.2z"/>
	<path fill="#FFFFFF" stroke="#000000" stroke-width="1.6368" stroke-miterlimit="10" d="M159.7,562.8c-1,4.6-1.8,9.3-2.7,13.9
		c-1.4,6.6-5.4,11.9-12.1,14c-6.9,2.2-16.4-3.4-11.3-11.3c2.1-3.2,5.4-5.8,8.2-8.4c2.9-2.7,5.7-5.5,8.5-8.3
		c4.3-4.3,8.5-8.7,12.6-13.2C161.6,553.9,160.6,558.3,159.7,562.8z"/>
	<path fill="#FFFFFF" stroke="#000000" stroke-width="1.6368" stroke-miterlimit="10" d="M348.2,676.4c2.6,3.9,5.3,7.8,7.9,11.8
		c3.6,5.7,4.5,12.2,1.3,18.4c-3.4,6.5-14,9.1-15.9,0.1c-0.8-3.8-0.2-7.9-0.1-11.7c0.1-3.9,0.1-7.9,0.1-11.9c0-6-0.1-12.2-0.4-18.2
		C343.2,668.7,345.7,672.6,348.2,676.4z"/>
	<path fill="#FFFFFF" stroke="#000000" stroke-width="1.6368" stroke-miterlimit="10" d="M561.8,623.4c4.6,1,9.3,1.8,13.9,2.7
		c6.6,1.4,11.9,5.4,14,12.1c2.2,6.9-3.4,16.4-11.3,11.3c-3.2-2.1-5.8-5.4-8.4-8.2c-2.7-2.9-5.5-5.7-8.3-8.5
		c-4.3-4.3-8.7-8.5-13.2-12.6C552.9,621.5,557.3,622.5,561.8,623.4z"/>
	<path fill="#FFFFFF" stroke="#000000" stroke-width="1.6368" stroke-miterlimit="10" d="M675.4,434.9c3.9-2.6,7.8-5.3,11.8-7.9
		c5.7-3.6,12.2-4.5,18.4-1.3c6.5,3.4,9.1,14,0.1,15.9c-3.8,0.8-7.9,0.2-11.7,0.1c-3.9-0.1-7.9-0.1-11.9-0.1c-6,0-12.2,0.1-18.2,0.4
		C667.7,439.9,671.6,437.3,675.4,434.9z"/>
	<path fill="#FFFFFF" stroke="#000000" stroke-width="1.6368" stroke-miterlimit="10" d="M622.4,221.3c1-4.6,1.8-9.3,2.7-13.9
		c1.4-6.6,5.4-11.9,12.1-14c6.9-2.2,16.4,3.4,11.3,11.3c-2.1,3.2-5.4,5.8-8.2,8.4c-2.9,2.7-5.7,5.5-8.5,8.3
		c-4.3,4.3-8.5,8.7-12.6,13.2C620.5,230.2,621.5,225.7,622.4,221.3z"/>
	<path fill="#FFFFFF" stroke="#000000" stroke-width="1.6368" stroke-miterlimit="10" d="M308.1,144.4c7.1,8.7,11.2,19.4,11.7,30.5
		c3.4-0.1,6.9,0.8,10,3c5.7,3.7,9.2,9.6,11.8,15.7c0.5-4.5,1.9-8.9,4.1-13c1-2,2.3-3.8,3.6-5.6c-0.6-8.4-1.3-17.3-5.8-24.5
		c-3.9-6.3-10.2-10.6-16.8-13.7c-13.9-6.7-29.4-9.2-44.1-13.7C289.7,131.5,300.9,135.8,308.1,144.4z"/>
	<path fill="#FFFFFF" stroke="#000000" stroke-width="1.6368" stroke-miterlimit="10" d="M157.2,275.6c11.2,1,21.7,5.8,29.8,13.3
		c2.3-2.4,5.4-4.3,9.1-5c6.7-1.4,13.3,0.3,19.5,2.7c-2.7-3.6-4.9-7.6-6.3-12.1c-0.7-2.1-1.1-4.3-1.4-6.5
		c-6.4-5.5-13.1-11.2-21.5-13.2c-7.2-1.7-14.7-0.3-21.6,2.1c-14.5,5.1-27.3,14.3-40.9,21.5C135.2,279.4,146.1,274.6,157.2,275.6z"/>
	<path fill="#FFFFFF" stroke="#000000" stroke-width="1.6368" stroke-miterlimit="10" d="M143.4,475c8.7-7.1,19.4-11.2,30.5-11.7
		c-0.1-3.4,0.8-6.9,3-10c3.7-5.7,9.6-9.2,15.7-11.8c-4.5-0.5-8.9-1.9-13-4.1c-2-1-3.8-2.3-5.6-3.6c-8.4,0.6-17.3,1.3-24.5,5.8
		c-6.3,3.9-10.6,10.2-13.7,16.8c-6.7,13.9-9.2,29.4-13.7,44.1C130.5,493.4,134.8,482.2,143.4,475z"/>
	<path fill="#FFFFFF" stroke="#000000" stroke-width="1.6368" stroke-miterlimit="10" d="M274.6,625.8c1-11.2,5.8-21.7,13.3-29.8
		c-2.4-2.3-4.3-5.4-5-9.1c-1.4-6.7,0.3-13.3,2.7-19.5c-3.6,2.7-7.6,4.9-12.1,6.3c-2.1,0.7-4.3,1.1-6.5,1.4
		c-5.5,6.4-11.2,13.1-13.2,21.5c-1.7,7.2-0.3,14.7,2.1,21.6c5.1,14.5,14.3,27.3,21.5,40.9C278.4,647.9,273.6,637,274.6,625.8z"/>
	<path fill="#FFFFFF" stroke="#000000" stroke-width="1.6368" stroke-miterlimit="10" d="M474,639.7c-7.1-8.7-11.2-19.4-11.7-30.5
		c-3.4,0.1-6.9-0.8-10-3c-5.7-3.7-9.2-9.6-11.8-15.7c-0.5,4.5-1.9,8.9-4.1,13c-1,2-2.3,3.8-3.6,5.6c0.6,8.4,1.3,17.3,5.8,24.5
		c3.9,6.3,10.2,10.6,16.8,13.7c13.9,6.7,29.4,9.2,44.1,13.7C492.4,652.6,481.2,648.3,474,639.7z"/>
	<path fill="#FFFFFF" stroke="#000000" stroke-width="1.6368" stroke-miterlimit="10" d="M624.8,508.5c-11.2-1-21.7-5.8-29.8-13.3
		c-2.3,2.4-5.4,4.3-9.1,5c-6.7,1.4-13.3-0.3-19.5-2.7c2.7,3.6,4.9,7.6,6.3,12.1c0.7,2.1,1.1,4.3,1.4,6.5
		c6.4,5.5,13.1,11.2,21.5,13.2c7.2,1.7,14.7,0.3,21.6-2.1c14.5-5.1,27.3-14.3,40.9-21.5C646.9,504.6,636,509.5,624.8,508.5z"/>
	<path fill="#FFFFFF" stroke="#000000" stroke-width="1.6368" stroke-miterlimit="10" d="M638.7,309.1c-8.7,7.1-19.4,11.2-30.5,11.7
		c0.1,3.4-0.8,6.9-3,10c-3.7,5.7-9.6,9.2-15.7,11.8c4.5,0.5,8.9,1.9,13,4.1c2,1,3.8,2.3,5.6,3.6c8.4-0.6,17.3-1.3,24.5-5.8
		c6.3-3.9,10.6-10.2,13.7-16.8c6.7-13.9,9.2-29.4,13.7-44.1C651.6,290.7,647.3,301.9,638.7,309.1z"/>
	<path fill="#FFFFFF" stroke="#000000" stroke-width="1.6368" stroke-miterlimit="10" d="M507.5,158.2c-1,11.2-5.8,21.7-13.3,29.8
		c2.4,2.3,4.3,5.4,5,9.1c1.4,6.7-0.3,13.3-2.7,19.5c3.6-2.7,7.6-4.9,12.1-6.3c2.1-0.7,4.3-1.1,6.5-1.4c5.5-6.4,11.2-13.1,13.2-21.5
		c1.7-7.2,0.3-14.7-2.1-21.6c-5.1-14.5-14.3-27.3-21.5-40.9C503.6,136.2,508.5,147.1,507.5,158.2z"/>
	<path fill="#FFFFFF" stroke="#000000" stroke-width="1.6368" stroke-miterlimit="10" d="M474,144.4c-7.1,8.7-11.2,19.4-11.7,30.5
		c-3.4-0.1-6.9,0.8-10,3c-5.7,3.7-9.2,9.6-11.8,15.7c-0.5-4.5-1.9-8.9-4.1-13c-1-2-2.3-3.8-3.6-5.6c0.6-8.4,1.3-17.3,5.8-24.5
		c3.9-6.3,10.2-10.6,16.8-13.7c13.9-6.7,29.4-9.2,44.1-13.7C492.4,131.5,481.2,135.8,474,144.4z"/>
	<path fill="#FFFFFF" stroke="#000000" stroke-width="1.6368" stroke-miterlimit="10" d="M274.6,158.2c1,11.2,5.8,21.7,13.3,29.8
		c-2.4,2.3-4.3,5.4-5,9.1c-1.4,6.7,0.3,13.3,2.7,19.5c-3.6-2.7-7.6-4.9-12.1-6.3c-2.1-0.7-4.3-1.1-6.5-1.4
		c-5.5-6.4-11.2-13.1-13.2-21.5c-1.7-7.2-0.3-14.7,2.1-21.6c5.1-14.5,14.3-27.3,21.5-40.9C278.4,136.2,273.6,147.1,274.6,158.2z"/>
	<path fill="#FFFFFF" stroke="#000000" stroke-width="1.6368" stroke-miterlimit="10" d="M143.4,309.1c8.7,7.1,19.4,11.2,30.5,11.7
		c-0.1,3.4,0.8,6.9,3,10c3.7,5.7,9.6,9.2,15.7,11.8c-4.5,0.5-8.9,1.9-13,4.1c-2,1-3.8,2.3-5.6,3.6c-8.4-0.6-17.3-1.3-24.5-5.8
		c-6.3-3.9-10.6-10.2-13.7-16.8c-6.7-13.9-9.2-29.4-13.7-44.1C130.5,290.7,134.8,301.9,143.4,309.1z"/>
	<path fill="#FFFFFF" stroke="#000000" stroke-width="1.6368" stroke-miterlimit="10" d="M157.2,508.5c11.2-1,21.7-5.8,29.8-13.3
		c2.3,2.4,5.4,4.3,9.1,5c6.7,1.4,13.3-0.3,19.5-2.7c-2.7,3.6-4.9,7.6-6.3,12.1c-0.7,2.1-1.1,4.3-1.4,6.5
		c-6.4,5.5-13.1,11.2-21.5,13.2c-7.2,1.7-14.7,0.3-21.6-2.1c-14.5-5.1-27.3-14.3-40.9-21.5C135.2,504.6,146.1,509.5,157.2,508.5z"/>
	<path fill="#FFFFFF" stroke="#000000" stroke-width="1.6368" stroke-miterlimit="10" d="M308.1,639.7c7.1-8.7,11.2-19.4,11.7-30.5
		c3.4,0.1,6.9-0.8,10-3c5.7-3.7,9.2-9.6,11.8-15.7c0.5,4.5,1.9,8.9,4.1,13c1,2,2.3,3.8,3.6,5.6c-0.6,8.4-1.3,17.3-5.8,24.5
		c-3.9,6.3-10.2,10.6-16.8,13.7c-13.9,6.7-29.4,9.2-44.1,13.7C289.7,652.6,300.9,648.3,308.1,639.7z"/>
	<path fill="#FFFFFF" stroke="#000000" stroke-width="1.6368" stroke-miterlimit="10" d="M507.5,625.8c-1-11.2-5.8-21.7-13.3-29.8
		c2.4-2.3,4.3-5.4,5-9.1c1.4-6.7-0.3-13.3-2.7-19.5c3.6,2.7,7.6,4.9,12.1,6.3c2.1,0.7,4.3,1.1,6.5,1.4c5.5,6.4,11.2,13.1,13.2,21.5
		c1.7,7.2,0.3,14.7-2.1,21.6c-5.1,14.5-14.3,27.3-21.5,40.9C503.6,647.9,508.5,637,507.5,625.8z"/>
	<path fill="#FFFFFF" stroke="#000000" stroke-width="1.6368" stroke-miterlimit="10" d="M638.7,475c-8.7-7.1-19.4-11.2-30.5-11.7
		c0.1-3.4-0.8-6.9-3-10c-3.7-5.7-9.6-9.2-15.7-11.8c4.5-0.5,8.9-1.9,13-4.1c2-1,3.8-2.3,5.6-3.6c8.4,0.6,17.3,1.3,24.5,5.8
		c6.3,3.9,10.6,10.2,13.7,16.8c6.7,13.9,9.2,29.4,13.7,44.1C651.6,493.4,647.3,482.2,638.7,475z"/>
	<path fill="#FFFFFF" stroke="#000000" stroke-width="1.6368" stroke-miterlimit="10" d="M624.8,275.6c-11.2,1-21.7,5.8-29.8,13.3
		c-2.3-2.4-5.4-4.3-9.1-5c-6.7-1.4-13.3,0.3-19.5,2.7c2.7-3.6,4.9-7.6,6.3-12.1c0.7-2.1,1.1-4.3,1.4-6.5
		c6.4-5.5,13.1-11.2,21.5-13.2c7.2-1.7,14.7-0.3,21.6,2.1c14.5,5.1,27.3,14.3,40.9,21.5C646.9,279.4,636,274.6,624.8,275.6z"/>
	<path fill="#FFFFFF" stroke="#000000" stroke-width="1.6368" stroke-miterlimit="10" d="M339.5,229c-5.2-2.3-10.6-4.2-15.9-6.3
		c4.9,9.4,9.1,19.2,12.4,29.4c5.2-5.5,12.6-10.4,12-18.3c0-0.3,0-0.5,0.1-0.8C345.3,231.6,342.4,230.2,339.5,229z"/>
	<path fill="#FFFFFF" stroke="#000000" stroke-width="1.6368" stroke-miterlimit="10" d="M239.3,313.1c-5.3,2.1-10.4,4.5-15.7,6.7
		c10.2,3.2,20.1,7.1,29.6,12c-0.2-7.6,1.6-16.2-4.5-21.4c-0.2-0.2-0.3-0.4-0.5-0.6C245.2,310.9,242.3,312,239.3,313.1z"/>
	<path fill="#FFFFFF" stroke="#000000" stroke-width="1.6368" stroke-miterlimit="10" d="M228,443.5c-2.3,5.2-4.2,10.6-6.3,15.9
		c9.4-4.9,19.2-9.1,29.4-12.4c-5.5-5.2-10.4-12.6-18.3-12c-0.3,0-0.5,0-0.8-0.1C230.6,437.8,229.2,440.6,228,443.5z"/>
	<path fill="#FFFFFF" stroke="#000000" stroke-width="1.6368" stroke-miterlimit="10" d="M312.1,543.8c2.1,5.3,4.5,10.4,6.7,15.7
		c3.2-10.2,7.1-20.1,12-29.6c-7.6,0.2-16.2-1.6-21.4,4.5c-0.2,0.2-0.4,0.3-0.6,0.5C309.9,537.8,311,540.8,312.1,543.8z"/>
	<path fill="#FFFFFF" stroke="#000000" stroke-width="1.6368" stroke-miterlimit="10" d="M442.5,555.1c5.2,2.3,10.6,4.2,15.9,6.3
		c-4.9-9.4-9.1-19.2-12.4-29.4c-5.2,5.5-12.6,10.4-12,18.3c0,0.3,0,0.5-0.1,0.8C436.8,552.5,439.6,553.9,442.5,555.1z"/>
	<path fill="#FFFFFF" stroke="#000000" stroke-width="1.6368" stroke-miterlimit="10" d="M542.8,471c5.3-2.1,10.4-4.5,15.7-6.7
		c-10.2-3.2-20.1-7.1-29.6-12c0.2,7.6-1.6,16.2,4.5,21.4c0.2,0.2,0.3,0.4,0.5,0.6C536.8,473.2,539.8,472.1,542.8,471z"/>
	<path fill="#FFFFFF" stroke="#000000" stroke-width="1.6368" stroke-miterlimit="10" d="M554.1,340.5c2.3-5.2,4.2-10.6,6.3-15.9
		c-9.4,4.9-19.2,9.1-29.4,12.4c5.5,5.2,10.4,12.6,18.3,12c0.3,0,0.5,0,0.8,0.1C551.5,346.3,552.9,343.4,554.1,340.5z"/>
	<path fill="#FFFFFF" stroke="#000000" stroke-width="1.6368" stroke-miterlimit="10" d="M470,240.3c-2.1-5.3-4.5-10.4-6.7-15.7
		c-3.2,10.2-7.1,20.1-12,29.6c7.6-0.2,16.2,1.6,21.4-4.5c0.2-0.2,0.4-0.3,0.6-0.5C472.2,246.2,471.1,243.3,470,240.3z"/>
	<path fill="#FFFFFF" stroke="#000000" stroke-width="1.6368" stroke-miterlimit="10" d="M442.5,229c5.2-2.3,10.6-4.2,15.9-6.3
		c-4.9,9.4-9.1,19.2-12.4,29.4c-5.2-5.5-12.6-10.4-12-18.3c0-0.3,0-0.5-0.1-0.8C436.8,231.6,439.6,230.2,442.5,229z"/>
	<path fill="#FFFFFF" stroke="#000000" stroke-width="1.6368" stroke-miterlimit="10" d="M312.1,240.3c2.1-5.3,4.5-10.4,6.7-15.7
		c3.2,10.2,7.1,20.1,12,29.6c-7.6-0.2-16.2,1.6-21.4-4.5c-0.2-0.2-0.4-0.3-0.6-0.5C309.9,246.2,311,243.3,312.1,240.3z"/>
	<path fill="#FFFFFF" stroke="#000000" stroke-width="1.6368" stroke-miterlimit="10" d="M228,340.5c-2.3-5.2-4.2-10.6-6.3-15.9
		c9.4,4.9,19.2,9.1,29.4,12.4c-5.5,5.2-10.4,12.6-18.3,12c-0.3,0-0.5,0-0.8,0.1C230.6,346.3,229.2,343.4,228,340.5z"/>
	<path fill="#FFFFFF" stroke="#000000" stroke-width="1.6368" stroke-miterlimit="10" d="M239.3,471c-5.3-2.1-10.4-4.5-15.7-6.7
		c10.2-3.2,20.1-7.1,29.6-12c-0.2,7.6,1.6,16.2-4.5,21.4c-0.2,0.2-0.3,0.4-0.5,0.6C245.2,473.2,242.3,472.1,239.3,471z"/>
	<path fill="#FFFFFF" stroke="#000000" stroke-width="1.6368" stroke-miterlimit="10" d="M339.5,555.1c-5.2,2.3-10.6,4.2-15.9,6.3
		c4.9-9.4,9.1-19.2,12.4-29.4c5.2,5.5,12.6,10.4,12,18.3c0,0.3,0,0.5,0.1,0.8C345.3,552.5,342.4,553.9,339.5,555.1z"/>
	<path fill="#FFFFFF" stroke="#000000" stroke-width="1.6368" stroke-miterlimit="10" d="M470,543.8c-2.1,5.3-4.5,10.4-6.7,15.7
		c-3.2-10.2-7.1-20.1-12-29.6c7.6,0.2,16.2-1.6,21.4,4.5c0.2,0.2,0.4,0.3,0.6,0.5C472.2,537.8,471.1,540.8,470,543.8z"/>
	<path fill="#FFFFFF" stroke="#000000" stroke-width="1.6368" stroke-miterlimit="10" d="M554.1,443.5c2.3,5.2,4.2,10.6,6.3,15.9
		c-9.4-4.9-19.2-9.1-29.4-12.4c5.5-5.2,10.4-12.6,18.3-12c0.3,0,0.5,0,0.8-0.1C551.5,437.8,552.9,440.6,554.1,443.5z"/>
	<path fill="#FFFFFF" stroke="#000000" stroke-width="1.6368" stroke-miterlimit="10" d="M542.8,313.1c5.3,2.1,10.4,4.5,15.7,6.7
		c-10.2,3.2-20.1,7.1-29.6,12c0.2-7.6-1.6-16.2,4.5-21.4c0.2-0.2,0.3-0.4,0.5-0.6C536.8,310.9,539.8,312,542.8,313.1z"/>
	<path fill="#FFFFFF" stroke="#000000" stroke-width="1.6368" stroke-miterlimit="10" d="M341.5,214.4c0.9,0.3,1.9,0.7,2.7,1
		c-1.1-4.5-2.4-9.1-4-13.5c-2-5.6-4.2-11.4-8-16c-3.4-4.1-8.7-7.6-14.2-6.7c-4.5,0.8-7.2,3.8-8,7.7c1.4,4.7,3,9.4,4.7,14.1
		C323.1,206.6,332.1,210.8,341.5,214.4z"/>
	<path fill="#FFFFFF" stroke="#000000" stroke-width="1.6368" stroke-miterlimit="10" d="M230.4,301.5c0.9-0.4,1.8-0.8,2.7-1.2
		c-4-2.5-8.1-4.7-12.4-6.7c-5.4-2.5-11-5.1-17-5.7c-5.4-0.5-11.5,0.8-14.8,5.4c-2.7,3.7-2.4,7.8-0.2,11.1c4.3,2.3,8.8,4.5,13.3,6.7
		C211.8,308.9,221.2,305.6,230.4,301.5z"/>
	<path fill="#FFFFFF" stroke="#000000" stroke-width="1.6368" stroke-miterlimit="10" d="M213.4,441.6c0.3-0.9,0.7-1.9,1-2.7
		c-4.5,1.1-9.1,2.4-13.5,4c-5.6,2-11.4,4.2-16,8c-4.1,3.4-7.6,8.7-6.7,14.2c0.8,4.5,3.8,7.2,7.7,8c4.7-1.4,9.4-3,14.1-4.7
		C205.6,460,209.8,451,213.4,441.6z"/>
	<path fill="#FFFFFF" stroke="#000000" stroke-width="1.6368" stroke-miterlimit="10" d="M300.5,552.7c-0.4-0.9-0.8-1.8-1.2-2.7
		c-2.5,4-4.7,8.1-6.7,12.4c-2.5,5.4-5.1,11-5.7,17c-0.5,5.4,0.8,11.5,5.4,14.8c3.7,2.7,7.8,2.4,11.1,0.2c2.3-4.3,4.5-8.8,6.7-13.3
		C307.9,571.3,304.6,561.9,300.5,552.7z"/>
	<path fill="#FFFFFF" stroke="#000000" stroke-width="1.6368" stroke-miterlimit="10" d="M440.6,569.7c-0.9-0.3-1.9-0.7-2.7-1
		c1.1,4.5,2.4,9.1,4,13.5c2,5.6,4.2,11.4,8,16c3.4,4.1,8.7,7.6,14.2,6.7c4.5-0.8,7.2-3.8,8-7.7c-1.4-4.7-3-9.4-4.7-14.1
		C459,577.5,450,573.3,440.6,569.7z"/>
	<path fill="#FFFFFF" stroke="#000000" stroke-width="1.6368" stroke-miterlimit="10" d="M551.7,482.6c-0.9,0.4-1.8,0.8-2.7,1.2
		c4,2.5,8.1,4.7,12.4,6.7c5.4,2.5,11,5.1,17,5.7c5.4,0.5,11.5-0.8,14.8-5.4c2.7-3.7,2.4-7.8,0.2-11.1c-4.3-2.3-8.8-4.5-13.3-6.7
		C570.3,475.2,560.9,478.5,551.7,482.6z"/>
	<path fill="#FFFFFF" stroke="#000000" stroke-width="1.6368" stroke-miterlimit="10" d="M568.7,342.5c-0.3,0.9-0.7,1.9-1,2.7
		c4.5-1.1,9.1-2.4,13.5-4c5.6-2,11.4-4.2,16-8c4.1-3.4,7.6-8.7,6.7-14.2c-0.8-4.5-3.8-7.2-7.7-8c-4.7,1.4-9.4,3-14.1,4.7
		C576.5,324.1,572.3,333.1,568.7,342.5z"/>
	<path fill="#FFFFFF" stroke="#000000" stroke-width="1.6368" stroke-miterlimit="10" d="M481.6,231.4c0.4,0.9,0.8,1.8,1.2,2.7
		c2.5-4,4.7-8.1,6.7-12.4c2.5-5.4,5.1-11,5.7-17c0.5-5.4-0.8-11.5-5.4-14.8c-3.7-2.7-7.8-2.4-11.1-0.2c-2.3,4.3-4.5,8.8-6.7,13.3
		C474.2,212.8,477.5,222.2,481.6,231.4z"/>
	<path fill="#FFFFFF" stroke="#000000" stroke-width="1.6368" stroke-miterlimit="10" d="M440.6,214.4c-0.9,0.3-1.9,0.7-2.7,1
		c1.1-4.5,2.4-9.1,4-13.5c2-5.6,4.2-11.4,8-16c3.4-4.1,8.7-7.6,14.2-6.7c4.5,0.8,7.2,3.8,8,7.7c-1.4,4.7-3,9.4-4.7,14.1
		C459,206.6,450,210.8,440.6,214.4z"/>
	<path fill="#FFFFFF" stroke="#000000" stroke-width="1.6368" stroke-miterlimit="10" d="M300.5,231.4c-0.4,0.9-0.8,1.8-1.2,2.7
		c-2.5-4-4.7-8.1-6.7-12.4c-2.5-5.4-5.1-11-5.7-17c-0.5-5.4,0.8-11.5,5.4-14.8c3.7-2.7,7.8-2.4,11.1-0.2c2.3,4.3,4.5,8.8,6.7,13.3
		C307.9,212.8,304.6,222.2,300.5,231.4z"/>
	<path fill="#FFFFFF" stroke="#000000" stroke-width="1.6368" stroke-miterlimit="10" d="M213.4,342.5c0.3,0.9,0.7,1.9,1,2.7
		c-4.5-1.1-9.1-2.4-13.5-4c-5.6-2-11.4-4.2-16-8c-4.1-3.4-7.6-8.7-6.7-14.2c0.8-4.5,3.8-7.2,7.7-8c4.7,1.4,9.4,3,14.1,4.7
		C205.6,324.1,209.8,333.1,213.4,342.5z"/>
	<path fill="#FFFFFF" stroke="#000000" stroke-width="1.6368" stroke-miterlimit="10" d="M230.4,482.6c0.9,0.4,1.8,0.8,2.7,1.2
		c-4,2.5-8.1,4.7-12.4,6.7c-5.4,2.5-11,5.1-17,5.7c-5.4,0.5-11.5-0.8-14.8-5.4c-2.7-3.7-2.4-7.8-0.2-11.1c4.3-2.3,8.8-4.5,13.3-6.7
		C211.8,475.2,221.2,478.5,230.4,482.6z"/>
	<path fill="#FFFFFF" stroke="#000000" stroke-width="1.6368" stroke-miterlimit="10" d="M341.5,569.7c0.9-0.3,1.9-0.7,2.7-1
		c-1.1,4.5-2.4,9.1-4,13.5c-2,5.6-4.2,11.4-8,16c-3.4,4.1-8.7,7.6-14.2,6.7c-4.5-0.8-7.2-3.8-8-7.7c1.4-4.7,3-9.4,4.7-14.1
		C323.1,577.5,332.1,573.3,341.5,569.7z"/>
	<path fill="#FFFFFF" stroke="#000000" stroke-width="1.6368" stroke-miterlimit="10" d="M481.6,552.7c0.4-0.9,0.8-1.8,1.2-2.7
		c2.5,4,4.7,8.1,6.7,12.4c2.5,5.4,5.1,11,5.7,17c0.5,5.4-0.8,11.5-5.4,14.8c-3.7,2.7-7.8,2.4-11.1,0.2c-2.3-4.3-4.5-8.8-6.7-13.3
		C474.2,571.3,477.5,561.9,481.6,552.7z"/>
	<path fill="#FFFFFF" stroke="#000000" stroke-width="1.6368" stroke-miterlimit="10" d="M568.7,441.6c-0.3-0.9-0.7-1.9-1-2.7
		c4.5,1.1,9.1,2.4,13.5,4c5.6,2,11.4,4.2,16,8c4.1,3.4,7.6,8.7,6.7,14.2c-0.8,4.5-3.8,7.2-7.7,8c-4.7-1.4-9.4-3-14.1-4.7
		C576.5,460,572.3,451,568.7,441.6z"/>
	<path fill="#FFFFFF" stroke="#000000" stroke-width="1.6368" stroke-miterlimit="10" d="M551.7,301.5c-0.9-0.4-1.8-0.8-2.7-1.2
		c4-2.5,8.1-4.7,12.4-6.7c5.4-2.5,11-5.1,17-5.7c5.4-0.5,11.5,0.8,14.8,5.4c2.7,3.7,2.4,7.8,0.2,11.1c-4.3,2.3-8.8,4.5-13.3,6.7
		C570.3,308.9,560.9,305.6,551.7,301.5z"/>
	<path fill="#FFFFFF" stroke="#000000" stroke-width="1.6368" stroke-miterlimit="10" d="M292.3,109.6c9.3,7.7,22.5,3.7,33.3,7.6
		c-0.2-6-0.5-12.2-1.1-18.2c-0.6-7-1.1-14.4-4.1-20.9c-2.7-5.9-7.7-10.6-14.4-10.9c-6.3-0.3-12.2,2.7-16.2,7.6
		C281.8,84.7,282.1,101.2,292.3,109.6z M300.6,81.8c0.3-0.2,0.8-0.2,1-0.2c4.3-1.9,9.1-0.1,11.4,4.4c2.6,5.2,1,13.7-4.5,16.4
		c-5.3,2.7-11.4-1.4-13.4-6.4C293,90.6,295.3,84.3,300.6,81.8z"/>
	<path fill="#FFFFFF" stroke="#000000" stroke-width="1.6368" stroke-miterlimit="10" d="M121.5,262.1c12-1.1,18.6-13.3,28.9-18.1
		c-4.5-4.1-9-8.2-13.7-12.1c-5.4-4.5-11-9.5-17.7-11.9c-6.1-2.3-12.9-2-17.9,2.5c-4.7,4.3-6.8,10.5-6,16.8
		C96.5,252,108.3,263.3,121.5,262.1z M107.7,236.6c0.1-0.4,0.3-0.7,0.6-0.9c1.7-4.3,6.4-6.5,11.2-4.9c5.5,1.8,10.4,9,8.4,14.8
		c-1.9,5.6-9.1,7.1-14,4.9C108.5,248.2,105.7,242.2,107.7,236.6z"/>
	<path fill="#FFFFFF" stroke="#000000" stroke-width="1.6368" stroke-miterlimit="10" d="M108.6,490.8c7.7-9.3,3.7-22.5,7.6-33.3
		c-6,0.2-12.2,0.5-18.2,1.1c-7,0.6-14.4,1.1-20.9,4.1c-5.9,2.7-10.6,7.7-10.9,14.4c-0.3,6.3,2.7,12.2,7.6,16.2
		C83.7,501.3,100.2,501,108.6,490.8z M80.8,482.4c-0.2-0.3-0.2-0.8-0.2-1c-1.9-4.3-0.1-9.1,4.4-11.4c5.2-2.6,13.7-1,16.4,4.5
		c2.7,5.3-1.4,11.4-6.4,13.4C89.6,490.1,83.3,487.8,80.8,482.4z"/>
	<path fill="#FFFFFF" stroke="#000000" stroke-width="1.6368" stroke-miterlimit="10" d="M261.1,661.6c-1.1-12-13.3-18.6-18.1-28.9
		c-4.1,4.5-8.2,9-12.1,13.7c-4.5,5.4-9.5,11-11.9,17.7c-2.3,6.1-2,12.9,2.5,17.9c4.3,4.7,10.5,6.8,16.8,6
		C251,686.5,262.3,674.8,261.1,661.6z M235.6,675.3c-0.4-0.1-0.7-0.3-0.9-0.6c-4.3-1.7-6.5-6.4-4.9-11.2c1.8-5.5,9-10.4,14.8-8.4
		c5.6,1.9,7.1,9.1,4.9,14C247.2,674.6,241.2,677.4,235.6,675.3z"/>
	<path fill="#FFFFFF" stroke="#000000" stroke-width="1.6368" stroke-miterlimit="10" d="M489.8,674.5c-9.3-7.7-22.5-3.7-33.3-7.6
		c0.2,6,0.5,12.2,1.1,18.2c0.6,7,1.1,14.4,4.1,20.9c2.7,5.9,7.7,10.6,14.4,10.9c6.3,0.3,12.2-2.7,16.2-7.6
		C500.3,699.3,500,682.9,489.8,674.5z M481.4,702.3c-0.3,0.2-0.8,0.2-1,0.2c-4.3,1.9-9.1,0.1-11.4-4.4c-2.6-5.2-1-13.7,4.5-16.4
		c5.3-2.7,11.4,1.4,13.4,6.4C489.1,693.5,486.8,699.8,481.4,702.3z"/>
	<path fill="#FFFFFF" stroke="#000000" stroke-width="1.6368" stroke-miterlimit="10" d="M660.6,522c-12,1.1-18.6,13.3-28.9,18.1
		c4.5,4.1,9,8.2,13.7,12.1c5.4,4.5,11,9.5,17.7,11.9c6.1,2.3,12.9,2,17.9-2.5c4.7-4.3,6.8-10.5,6-16.8
		C685.5,532.1,673.8,520.7,660.6,522z M674.3,547.5c-0.1,0.4-0.3,0.7-0.6,0.9c-1.7,4.3-6.4,6.5-11.2,4.9c-5.5-1.8-10.4-9-8.4-14.8
		c1.9-5.6,9.1-7.1,14-4.9C673.6,535.9,676.4,541.9,674.3,547.5z"/>
	<path fill="#FFFFFF" stroke="#000000" stroke-width="1.6368" stroke-miterlimit="10" d="M673.5,293.3c-7.7,9.3-3.7,22.5-7.6,33.3
		c6-0.2,12.2-0.5,18.2-1.1c7-0.6,14.4-1.1,20.9-4.1c5.9-2.7,10.6-7.7,10.9-14.4c0.3-6.3-2.7-12.2-7.6-16.2
		C698.3,282.8,681.9,283.1,673.5,293.3z M701.3,301.6c0.2,0.3,0.2,0.8,0.2,1c1.9,4.3,0.1,9.1-4.4,11.4c-5.2,2.6-13.7,1-16.4-4.5
		c-2.7-5.3,1.4-11.4,6.4-13.4C692.5,294,698.8,296.3,701.3,301.6z"/>
	<path fill="#FFFFFF" stroke="#000000" stroke-width="1.6368" stroke-miterlimit="10" d="M521,122.5c1.1,12,13.3,18.6,18.1,28.9
		c4.1-4.5,8.2-9,12.1-13.7c4.5-5.4,9.5-11,11.9-17.7c2.3-6.1,2-12.9-2.5-17.9c-4.3-4.7-10.5-6.8-16.8-6
		C531.1,97.5,519.7,109.3,521,122.5z M546.5,108.7c0.4,0.1,0.7,0.3,0.9,0.6c4.3,1.7,6.5,6.4,4.9,11.2c-1.8,5.5-9,10.4-14.8,8.4
		c-5.6-1.9-7.1-9.1-4.9-14C534.9,109.5,540.9,106.7,546.5,108.7z"/>
	<path fill="#FFFFFF" stroke="#000000" stroke-width="1.6368" stroke-miterlimit="10" d="M489.8,109.6c-9.3,7.7-22.5,3.7-33.3,7.6
		c0.2-6,0.5-12.2,1.1-18.2c0.6-7,1.1-14.4,4.1-20.9c2.7-5.9,7.7-10.6,14.4-10.9c6.3-0.3,12.2,2.7,16.2,7.6
		C500.3,84.7,500,101.2,489.8,109.6z M481.4,81.8c-0.3-0.2-0.8-0.2-1-0.2c-4.3-1.9-9.1-0.1-11.4,4.4c-2.6,5.2-1,13.7,4.5,16.4
		c5.3,2.7,11.4-1.4,13.4-6.4C489.1,90.6,486.8,84.3,481.4,81.8z"/>
	<path fill="#FFFFFF" stroke="#000000" stroke-width="1.6368" stroke-miterlimit="10" d="M261.1,122.5c-1.1,12-13.3,18.6-18.1,28.9
		c-4.1-4.5-8.2-9-12.1-13.7c-4.5-5.4-9.5-11-11.9-17.7c-2.3-6.1-2-12.9,2.5-17.9c4.3-4.7,10.5-6.8,16.8-6
		C251,97.5,262.3,109.3,261.1,122.5z M235.6,108.7c-0.4,0.1-0.7,0.3-0.9,0.6c-4.3,1.7-6.5,6.4-4.9,11.2c1.8,5.5,9,10.4,14.8,8.4
		c5.6-1.9,7.1-9.1,4.9-14C247.2,109.5,241.2,106.7,235.6,108.7z"/>
	<path fill="#FFFFFF" stroke="#000000" stroke-width="1.6368" stroke-miterlimit="10" d="M108.6,293.3c7.7,9.3,3.7,22.5,7.6,33.3
		c-6-0.2-12.2-0.5-18.2-1.1c-7-0.6-14.4-1.1-20.9-4.1c-5.9-2.7-10.6-7.7-10.9-14.4c-0.3-6.3,2.7-12.2,7.6-16.2
		C83.7,282.8,100.2,283.1,108.6,293.3z M80.8,301.6c-0.2,0.3-0.2,0.8-0.2,1c-1.9,4.3-0.1,9.1,4.4,11.4c5.2,2.6,13.7,1,16.4-4.5
		c2.7-5.3-1.4-11.4-6.4-13.4C89.6,294,83.3,296.3,80.8,301.6z"/>
	<path fill="#FFFFFF" stroke="#000000" stroke-width="1.6368" stroke-miterlimit="10" d="M121.5,522c12,1.1,18.6,13.3,28.9,18.1
		c-4.5,4.1-9,8.2-13.7,12.1c-5.4,4.5-11,9.5-17.7,11.9c-6.1,2.3-12.9,2-17.9-2.5c-4.7-4.3-6.8-10.5-6-16.8
		C96.5,532.1,108.3,520.7,121.5,522z M107.7,547.5c0.1,0.4,0.3,0.7,0.6,0.9c1.7,4.3,6.4,6.5,11.2,4.9c5.5-1.8,10.4-9,8.4-14.8
		c-1.9-5.6-9.1-7.1-14-4.9C108.5,535.9,105.7,541.9,107.7,547.5z"/>
	<path fill="#FFFFFF" stroke="#000000" stroke-width="1.6368" stroke-miterlimit="10" d="M292.3,674.5c9.3-7.7,22.5-3.7,33.3-7.6
		c-0.2,6-0.5,12.2-1.1,18.2c-0.6,7-1.1,14.4-4.1,20.9c-2.7,5.9-7.7,10.6-14.4,10.9c-6.3,0.3-12.2-2.7-16.2-7.6
		C281.8,699.3,282.1,682.9,292.3,674.5z M300.6,702.3c0.3,0.2,0.8,0.2,1,0.2c4.3,1.9,9.1,0.1,11.4-4.4c2.6-5.2,1-13.7-4.5-16.4
		c-5.3-2.7-11.4,1.4-13.4,6.4C293,693.5,295.3,699.8,300.6,702.3z"/>
	<path fill="#FFFFFF" stroke="#000000" stroke-width="1.6368" stroke-miterlimit="10" d="M521,661.6c1.1-12,13.3-18.6,18.1-28.9
		c4.1,4.5,8.2,9,12.1,13.7c4.5,5.4,9.5,11,11.9,17.7c2.3,6.1,2,12.9-2.5,17.9c-4.3,4.7-10.5,6.8-16.8,6
		C531.1,686.5,519.7,674.8,521,661.6z M546.5,675.3c0.4-0.1,0.7-0.3,0.9-0.6c4.3-1.7,6.5-6.4,4.9-11.2c-1.8-5.5-9-10.4-14.8-8.4
		c-5.6,1.9-7.1,9.1-4.9,14C534.9,674.6,540.9,677.4,546.5,675.3z"/>
	<path fill="#FFFFFF" stroke="#000000" stroke-width="1.6368" stroke-miterlimit="10" d="M673.5,490.8c-7.7-9.3-3.7-22.5-7.6-33.3
		c6,0.2,12.2,0.5,18.2,1.1c7,0.6,14.4,1.1,20.9,4.1c5.9,2.7,10.6,7.7,10.9,14.4c0.3,6.3-2.7,12.2-7.6,16.2
		C698.3,501.3,681.9,501,673.5,490.8z M701.3,482.4c0.2-0.3,0.2-0.8,0.2-1c1.9-4.3,0.1-9.1-4.4-11.4c-5.2-2.6-13.7-1-16.4,4.5
		c-2.7,5.3,1.4,11.4,6.4,13.4C692.5,490.1,698.8,487.8,701.3,482.4z"/>
	<path fill="#FFFFFF" stroke="#000000" stroke-width="1.6368" stroke-miterlimit="10" d="M660.6,262.1c-12-1.1-18.6-13.3-28.9-18.1
		c4.5-4.1,9-8.2,13.7-12.1c5.4-4.5,11-9.5,17.7-11.9c6.1-2.3,12.9-2,17.9,2.5c4.7,4.3,6.8,10.5,6,16.8
		C685.5,252,673.8,263.3,660.6,262.1z M674.3,236.6c-0.1-0.4-0.3-0.7-0.6-0.9c-1.7-4.3-6.4-6.5-11.2-4.9c-5.5,1.8-10.4,9-8.4,14.8
		c1.9,5.6,9.1,7.1,14,4.9C673.6,248.2,676.4,242.2,674.3,236.6z"/>
	<path fill="#FFFFFF" stroke="#000000" stroke-width="1.6368" stroke-miterlimit="10" d="M305.7,186C305.7,186,305.7,186,305.7,186
		c0.1-0.1,0.1-0.2,0.2-0.3c1.2-5.2,5-8.7,9.6-10c-0.3-11.8-5.1-23.2-13.5-31.6c-6.1-6-14-9.9-20.1-15.8c-0.2,8.5-3,16.8-3.1,25.4
		c-0.1,11.8,4.6,23.3,12.8,31.8c4.3-2.3,9.4-2.4,13.9,0.3C305.5,185.9,305.6,185.9,305.7,186L305.7,186z"/>
	<path fill="#FFFFFF" stroke="#000000" stroke-width="1.6368" stroke-miterlimit="10" d="M476.4,186L476.4,186
		c0.1,0,0.2-0.1,0.3-0.1c4.5-2.7,9.6-2.6,13.9-0.3c8.1-8.5,12.9-20,12.8-31.8c-0.1-8.6-2.9-16.9-3.1-25.4c-6.2,5.8-14,9.8-20.1,15.8
		c-8.5,8.3-13.2,19.7-13.5,31.6c4.6,1.4,8.3,4.9,9.6,10C476.3,185.8,476.4,185.9,476.4,186C476.4,186,476.4,186,476.4,186z"/>
	<path fill="#FFFFFF" stroke="#000000" stroke-width="1.6368" stroke-miterlimit="10" d="M597.1,306.7
		C597.1,306.7,597.1,306.7,597.1,306.7c0.1,0.1,0.2,0.1,0.3,0.2c5.2,1.2,8.7,5,10,9.6c11.8-0.3,23.2-5.1,31.6-13.5
		c6-6.1,9.9-14,15.8-20.1c-8.5-0.2-16.8-3-25.4-3.1c-11.8-0.1-23.3,4.6-31.8,12.8c2.3,4.3,2.4,9.4-0.3,13.9
		C597.1,306.5,597.1,306.6,597.1,306.7L597.1,306.7z"/>
	<path fill="#FFFFFF" stroke="#000000" stroke-width="1.6368" stroke-miterlimit="10" d="M597.1,477.4L597.1,477.4
		c0,0.1,0.1,0.2,0.1,0.3c2.7,4.5,2.6,9.6,0.3,13.9c8.5,8.1,20,12.9,31.8,12.8c8.6-0.1,16.9-2.9,25.4-3.1c-5.8-6.2-9.8-14-15.8-20.1
		c-8.3-8.5-19.7-13.2-31.6-13.5c-1.4,4.6-4.9,8.3-10,9.6C597.3,477.3,597.2,477.4,597.1,477.4C597.1,477.4,597.1,477.4,597.1,477.4z
		"/>
	<path fill="#FFFFFF" stroke="#000000" stroke-width="1.6368" stroke-miterlimit="10" d="M476.4,598.1
		C476.4,598.1,476.4,598.1,476.4,598.1c-0.1,0.1-0.1,0.2-0.2,0.3c-1.2,5.2-5,8.7-9.6,10c0.3,11.8,5.1,23.2,13.5,31.6
		c6.1,6,14,9.9,20.1,15.8c0.2-8.5,3-16.8,3.1-25.4c0.1-11.8-4.6-23.3-12.8-31.8c-4.3,2.3-9.4,2.4-13.9-0.3
		C476.6,598.1,476.5,598.1,476.4,598.1L476.4,598.1z"/>
	<path fill="#FFFFFF" stroke="#000000" stroke-width="1.6368" stroke-miterlimit="10" d="M305.7,598.1L305.7,598.1
		c-0.1,0-0.2,0.1-0.3,0.1c-4.5,2.7-9.6,2.6-13.9,0.3c-8.1,8.5-12.9,20-12.8,31.8c0.1,8.6,2.9,16.9,3.1,25.4
		c6.2-5.8,14-9.8,20.1-15.8c8.5-8.3,13.2-19.7,13.5-31.6c-4.6-1.4-8.3-4.9-9.6-10C305.8,598.3,305.7,598.2,305.7,598.1
		C305.7,598.1,305.7,598.1,305.7,598.1z"/>
	<path fill="#FFFFFF" stroke="#000000" stroke-width="1.6368" stroke-miterlimit="10" d="M185,477.4C185,477.4,185,477.4,185,477.4
		c-0.1-0.1-0.2-0.1-0.3-0.2c-5.2-1.2-8.7-5-10-9.6c-11.8,0.3-23.2,5.1-31.6,13.5c-6,6.1-9.9,14-15.8,20.1c8.5,0.2,16.8,3,25.4,3.1
		c11.8,0.1,23.3-4.6,31.8-12.8c-2.3-4.3-2.4-9.4,0.3-13.9C184.9,477.6,184.9,477.5,185,477.4L185,477.4z"/>
	<path fill="#FFFFFF" stroke="#000000" stroke-width="1.6368" stroke-miterlimit="10" d="M185,306.7L185,306.7
		c0-0.1-0.1-0.2-0.1-0.3c-2.7-4.5-2.6-9.6-0.3-13.9c-8.5-8.1-20-12.9-31.8-12.8c-8.6,0.1-16.9,2.9-25.4,3.1
		c5.8,6.2,9.8,14,15.8,20.1c8.3,8.5,19.7,13.2,31.6,13.5c1.4-4.6,4.9-8.3,10-9.6C184.8,306.8,184.9,306.7,185,306.7
		C185,306.7,185,306.7,185,306.7z"/>
	<path fill="#FFFFFF" stroke="#000000" stroke-width="1.6368" stroke-miterlimit="10" d="M304.8,98.9c4.2,0.2,5.8-5.8,5.2-9.1
		c-0.6-3.2-4.1-6.4-7.3-3.8c-0.4,0.3-0.8,0.4-1.2,0.5C297.1,90,298.1,98.6,304.8,98.9z"/>
	<path fill="#FFFFFF" stroke="#000000" stroke-width="1.6368" stroke-miterlimit="10" d="M122.7,245.7c3.1-2.8,0-8.2-2.7-10.1
		c-2.7-1.8-7.4-1.6-7.9,2.4c-0.1,0.5-0.3,0.9-0.5,1.2C111,244.9,117.8,250.2,122.7,245.7z"/>
	<path fill="#FFFFFF" stroke="#000000" stroke-width="1.6368" stroke-miterlimit="10" d="M97.9,478.3c0.2-4.2-5.8-5.8-9.1-5.2
		c-3.2,0.6-6.4,4.1-3.8,7.3c0.3,0.4,0.4,0.8,0.5,1.2C89,486,97.6,485,97.9,478.3z"/>
	<path fill="#FFFFFF" stroke="#000000" stroke-width="1.6368" stroke-miterlimit="10" d="M244.7,660.4c-2.8-3.1-8.2,0-10.1,2.7
		c-1.8,2.7-1.6,7.4,2.4,7.9c0.5,0.1,0.9,0.3,1.2,0.5C243.9,672.1,249.2,665.3,244.7,660.4z"/>
	<path fill="#FFFFFF" stroke="#000000" stroke-width="1.6368" stroke-miterlimit="10" d="M477.3,685.2c-4.2-0.2-5.8,5.8-5.2,9.1
		c0.6,3.2,4.1,6.4,7.3,3.8c0.4-0.3,0.8-0.4,1.2-0.5C485,694.1,484,685.5,477.3,685.2z"/>
	<path fill="#FFFFFF" stroke="#000000" stroke-width="1.6368" stroke-miterlimit="10" d="M659.4,538.3c-3.1,2.8,0,8.2,2.7,10.1
		c2.7,1.8,7.4,1.6,7.9-2.4c0.1-0.5,0.3-0.9,0.5-1.2C671.1,539.2,664.3,533.9,659.4,538.3z"/>
	<path fill="#FFFFFF" stroke="#000000" stroke-width="1.6368" stroke-miterlimit="10" d="M684.2,305.8c-0.2,4.2,5.8,5.8,9.1,5.2
		c3.2-0.6,6.4-4.1,3.8-7.3c-0.3-0.4-0.4-0.8-0.5-1.2C693.1,298.1,684.5,299.1,684.2,305.8z"/>
	<path fill="#FFFFFF" stroke="#000000" stroke-width="1.6368" stroke-miterlimit="10" d="M537.3,123.7c2.8,3.1,8.2,0,10.1-2.7
		c1.8-2.7,1.6-7.4-2.4-7.9c-0.5-0.1-0.9-0.3-1.2-0.5C538.2,112,532.9,118.8,537.3,123.7z"/>
	<path fill="#FFFFFF" stroke="#000000" stroke-width="1.6368" stroke-miterlimit="10" d="M477.3,98.9c-4.2,0.2-5.8-5.8-5.2-9.1
		c0.6-3.2,4.1-6.4,7.3-3.8c0.4,0.3,0.8,0.4,1.2,0.5C485,90,484,98.6,477.3,98.9z"/>
	<path fill="#FFFFFF" stroke="#000000" stroke-width="1.6368" stroke-miterlimit="10" d="M244.7,123.7c-2.8,3.1-8.2,0-10.1-2.7
		c-1.8-2.7-1.6-7.4,2.4-7.9c0.5-0.1,0.9-0.3,1.2-0.5C243.9,112,249.2,118.8,244.7,123.7z"/>
	<path fill="#FFFFFF" stroke="#000000" stroke-width="1.6368" stroke-miterlimit="10" d="M97.9,305.8c0.2,4.2-5.8,5.8-9.1,5.2
		c-3.2-0.6-6.4-4.1-3.8-7.3c0.3-0.4,0.4-0.8,0.5-1.2C89,298.1,97.6,299.1,97.9,305.8z"/>
	<path fill="#FFFFFF" stroke="#000000" stroke-width="1.6368" stroke-miterlimit="10" d="M122.7,538.3c3.1,2.8,0,8.2-2.7,10.1
		c-2.7,1.8-7.4,1.6-7.9-2.4c-0.1-0.5-0.3-0.9-0.5-1.2C111,539.2,117.8,533.9,122.7,538.3z"/>
	<path fill="#FFFFFF" stroke="#000000" stroke-width="1.6368" stroke-miterlimit="10" d="M304.8,685.2c4.2-0.2,5.8,5.8,5.2,9.1
		c-0.6,3.2-4.1,6.4-7.3,3.8c-0.4-0.3-0.8-0.4-1.2-0.5C297.1,694.1,298.1,685.5,304.8,685.2z"/>
	<path fill="#FFFFFF" stroke="#000000" stroke-width="1.6368" stroke-miterlimit="10" d="M537.3,660.4c2.8-3.1,8.2,0,10.1,2.7
		c1.8,2.7,1.6,7.4-2.4,7.9c-0.5,0.1-0.9,0.3-1.2,0.5C538.2,672.1,532.9,665.3,537.3,660.4z"/>
	<path fill="#FFFFFF" stroke="#000000" stroke-width="1.6368" stroke-miterlimit="10" d="M684.2,478.3c-0.2-4.2,5.8-5.8,9.1-5.2
		c3.2,0.6,6.4,4.1,3.8,7.3c-0.3,0.4-0.4,0.8-0.5,1.2C693.1,486,684.5,485,684.2,478.3z"/>
	<path fill="#FFFFFF" stroke="#000000" stroke-width="1.6368" stroke-miterlimit="10" d="M659.4,245.7c-3.1-2.8,0-8.2,2.7-10.1
		c2.7-1.8,7.4-1.6,7.9,2.4c0.1,0.5,0.3,0.9,0.5,1.2C671.1,244.9,664.3,250.2,659.4,245.7z"/>
</g>
<g id="_2">
</g>
</svg>
